<svg width="24" height="24" viewBox="0 0 24 24" fill="none" xmlns="http://www.w3.org/2000/svg">
<path d="M10.5201 8.99999C10.9635 8.78291 11.3109 8.40952 11.4955 7.95168C11.6801 7.49384 11.6889 6.9839 11.5201 6.51999M10.5201 8.99999L18.5301 21.91C14.3388 21.3925 10.4394 19.4934 7.44775 16.5126C4.45613 13.5319 2.54284 9.63937 2.0101 5.44999C1.95118 5.02305 1.98494 4.58842 2.10909 4.1757C2.23324 3.76298 2.44485 3.38186 2.72953 3.05827C3.01421 2.73469 3.36527 2.47624 3.75881 2.30052C4.15235 2.1248 4.57913 2.03594 5.0101 2.03999H8.0101C8.7248 2.0296 9.41972 2.27473 9.96972 2.73123C10.5197 3.18773 10.8887 3.82561 11.0101 4.52999M10.5201 8.99999L10.1001 9.27999C10.6419 10.254 11.3149 11.149 12.1001 11.94C12.6531 12.489 13.257 12.9831 13.9032 13.4159L13.8617 13.5008L14.7601 13.94L15.0039 13.5017L15.8116 13.8971L15.6088 14.3549L15.2131 15.2485L15.1915 15.2562L15.1716 15.2644C14.8679 15.1213 14.5705 14.9674 14.2799 14.8032C13.2271 14.2079 12.2639 13.4764 11.4134 12.6317C11.4118 12.63 11.4101 12.6283 11.4084 12.6267C10.7519 11.9739 10.1625 11.2536 9.65101 10.4763M10.5201 8.99999L18.5301 20.9757C14.6115 20.4458 10.9751 18.64 8.18403 15.8357C8.17374 15.8254 8.16345 15.815 8.15318 15.8046C8.13344 15.7847 8.11375 15.7647 8.09412 15.7447M11.5201 6.51999C11.3613 6.09241 11.231 5.65479 11.1301 5.20999M11.5201 6.51999L10.6153 6.85597C10.6154 6.85616 10.6155 6.85635 10.6156 6.85654L10.944 7.72572L10.9399 7.72763L10.1012 8.117L10.0903 8.12209L9.97157 8.17719L9.90554 8.20785M11.5201 6.51999L10.6131 6.84997C10.4406 6.39262 10.3015 5.92338 10.1969 5.44593L10.1969 5.44592L10.1957 5.44048C10.1944 5.43473 10.1931 5.42898 10.1918 5.42323L11.1301 5.20999M11.1301 5.20999C11.0801 4.98999 11.0401 4.75999 11.0101 4.52999M11.1301 5.20999L10.1918 5.42292C10.1391 5.18692 10.0951 4.9477 10.0596 4.70519L10.0579 4.69414L11.0101 4.52999M11.0101 4.52999L10.051 4.65508L10.0479 4.64024C9.95068 4.18725 9.69927 3.78212 9.33666 3.49396M9.65101 10.4763C9.50214 10.2443 9.36046 10.0074 9.22622 9.76612L8.87244 9.13017M9.65101 10.4763C10.1524 11.2577 10.7353 11.9846 11.3904 12.6445L11.3904 12.6445L11.3956 12.6497C12.2515 13.4994 13.22 14.2276 14.274 14.8139L15.1543 15.3036L14.7901 16.19L15.1937 15.3255L15.1953 15.3264L15.1954 15.3264L15.2219 15.2723L15.2219 15.2722L15.2439 15.282L15.2439 15.282L16.1201 15.67M9.65101 10.4763C9.36688 10.0446 9.10676 9.59525 8.87244 9.13017M8.87244 9.13017C8.84307 9.07186 8.8141 9.01331 8.78554 8.95451M8.87244 9.13017L8.77765 8.95977L8.78554 8.95451M8.78554 8.95451L9.5454 8.44794L9.90554 8.20785M8.78554 8.95451C8.75562 8.89291 8.72614 8.83104 8.69712 8.7689M9.90554 8.20785L8.70121 8.767L8.69712 8.7689M9.90554 8.20785L9.9654 8.16794L10.0207 8.13108L10.0804 8.10187C10.0841 8.10003 10.0879 8.09816 10.0916 8.09628C10.3079 7.98698 10.4773 7.80275 10.5681 7.57771C10.6594 7.3511 10.6646 7.09896 10.5829 6.86888C10.5824 6.8674 10.5818 6.86591 10.5813 6.86443L15.8782 13.9297L15.6585 14.3792L15.2298 15.2561L16.1201 15.67M9.33666 3.49396C9.33516 3.49276 9.33365 3.49157 9.33214 3.49038C9.22659 3.40699 9.11358 3.335 8.99502 3.27503M9.33666 3.49396L9.33105 3.50071C9.32963 3.49953 9.3282 3.49835 9.32678 3.49717C9.22322 3.4117 9.11201 3.33743 8.99502 3.27503M9.33666 3.49396L9.33105 3.50071C9.68399 3.79365 9.92509 4.19862 10.0149 4.64732C10.0172 4.65895 10.0194 4.6706 10.0215 4.68229C10.0228 4.69159 10.024 4.7009 10.0253 4.71021C10.0581 4.95119 10.1011 5.1946 10.155 5.43161L8.06088 3.05999M8.99502 3.27503C8.69855 3.11689 8.36496 3.03494 8.02464 3.03988L8.01737 3.03999H8.0101H5.0101H5.00071L5.00071 3.03995C4.7134 3.03725 4.42888 3.09649 4.16652 3.21363C3.90416 3.33078 3.67012 3.50308 3.48033 3.7188C3.29055 3.93452 3.14947 4.18861 3.0667 4.46376C2.98394 4.7389 2.96143 5.02865 3.00071 5.31328L3.00217 5.32383L3.00211 5.32384C3.50327 9.26491 5.29405 12.9286 8.09412 15.7447M8.99502 3.27503C8.70737 3.12955 8.387 3.05486 8.06088 3.05999M8.09412 15.7447C5.32565 12.9233 3.56202 9.26789 3.07763 5.34246L3.07674 5.33524L3.07595 5.32801C3.04544 5.04714 3.07218 4.763 3.15457 4.49276C3.23696 4.22251 3.37329 3.97178 3.55531 3.75571L3.56199 3.74778L3.56883 3.73999C3.75625 3.52665 3.98696 3.35567 4.24559 3.23843C4.50423 3.12118 4.78487 3.06035 5.06884 3.05999L5.0701 3.05999L8.06088 3.05999M8.09412 15.7447L8.06088 3.05999M8.06088 3.05999C8.05654 3.06006 8.0522 3.06014 8.04785 3.06024L8.0701 4.05999M8.06088 3.05999L18.5924 20.91H18.6634H18.6662H18.9101H18.9116C19.1058 20.9103 19.2974 20.8823 19.4807 20.8282C19.7434 20.7506 19.9892 20.6194 20.2016 20.4408C20.2027 20.4399 20.2037 20.4391 20.2047 20.4382C20.218 20.427 20.2312 20.4156 20.2442 20.404C20.4349 20.2332 20.5909 20.0275 20.7039 19.7983C20.7157 19.7745 20.727 19.7505 20.7378 19.7262C20.8396 19.4971 20.8973 19.2511 20.9082 19.0012C20.9083 18.9987 20.9084 18.9963 20.9085 18.9938C20.9097 18.9641 20.9102 18.9344 20.9101 18.9046L20.9101 18.9L20.9101 15.9097C20.91 15.9072 20.91 15.9046 20.9099 15.902L19.9201 15.88M8.06088 3.05999H8.0701V4.05999M8.06088 3.05999L9.0701 4.84999M8.0701 4.05999H5.0701C4.92812 4.06017 4.7878 4.09058 4.65848 4.14921C4.52916 4.20783 4.41381 4.29332 4.3201 4.39999C4.22517 4.51268 4.15407 4.64344 4.1111 4.78438C4.06813 4.92532 4.05419 5.07351 4.0701 5.21999C4.53251 8.96733 6.2293 12.4541 8.89282 15.1303C11.5563 17.8065 15.035 19.5198 18.7801 20C18.9267 20.0183 19.0755 20.0056 19.2168 19.9625C19.3581 19.9194 19.4887 19.847 19.6001 19.75C19.7068 19.6563 19.7923 19.5409 19.8509 19.4116C19.9095 19.2823 19.9399 19.142 19.9401 19L19.9201 15.88M8.0701 4.05999C8.30265 4.05482 8.52972 4.13087 8.71224 4.27506C8.89476 4.41925 9.02131 4.62256 9.0701 4.84999M19.9201 15.88L20.909 15.8737C20.8913 15.4281 20.7252 15.0008 20.4365 14.66C20.4354 14.6587 20.4343 14.6574 20.4331 14.6561C20.1465 14.3196 19.7569 14.0879 19.3257 13.9964C19.3237 13.9963 19.3217 13.9962 19.3197 13.9961C19.2998 13.9948 19.28 13.9933 19.2601 13.9916C19.002 13.9688 18.7498 13.9054 18.6163 13.8718C18.5894 13.865 18.5673 13.8595 18.5509 13.8557C18.5406 13.8534 18.5304 13.8511 18.5201 13.8488L18.3201 14.73M19.9201 15.88C19.9253 15.6474 19.8492 15.4204 19.705 15.2378C19.5608 15.0553 19.3575 14.9288 19.1301 14.88C18.8568 14.84 18.5868 14.79 18.3201 14.73M18.3201 14.73C17.7847 14.6085 17.2571 14.4549 16.7401 14.27L16.1201 15.67M18.3201 14.73L18.5184 13.8485L15.5501 16.19C15.6748 16.1454 15.7894 16.0764 15.8873 15.9872C15.9851 15.8979 16.0643 15.7901 16.1201 15.67M8.69712 8.7689C8.69708 8.7688 8.69703 8.76871 8.69699 8.76862C8.69698 8.7686 8.69698 8.76859 8.69697 8.76857C8.69672 8.76804 8.69647 8.7675 8.69622 8.76696L8.69543 8.76733L8.69431 8.76785L8.69161 8.76911L7.7901 9.18999L8.69711 8.76889L8.69712 8.7689ZM9.0701 4.84999C9.1101 5.12332 9.1601 5.39332 9.2201 5.65999M9.0701 4.84999L9.6801 7.20999C9.48936 6.70517 9.33562 6.18713 9.2201 5.65999M9.2201 5.65999L9.22012 5.65999L9.2201 5.65999ZM18.5698 13.7611C18.56 13.759 18.5503 13.7568 18.5405 13.7546C18.0684 13.6474 17.6029 13.5133 17.1462 13.353L18.5698 13.7611Z" fill="black" stroke="white" stroke-width="2"/>
</svg>
