<svg width="64" height="64" viewBox="0 0 64 64" fill="none" xmlns="http://www.w3.org/2000/svg">
<path d="M56.1466 44.8268C56.1452 44.8272 56.1438 44.8276 56.1425 44.828L56.1466 44.8268ZM6.22373 33.2529L7.88097 31.1888L6.22373 33.2529Z" fill="black" stroke="#414957" stroke-width="6"/>
<path d="M7.25339 20.4003C7.77487 20.5534 8.2762 20.7683 8.74672 21.0403C10.3996 22.0268 12.2885 22.5476 14.2134 22.5476C16.1382 22.5476 18.0272 22.0268 19.6801 21.0403C20.7213 20.4514 21.8972 20.1419 23.0934 20.1419C24.2896 20.1419 25.4655 20.4514 26.5067 21.0403C28.1795 21.9968 30.0731 22.4999 32.0001 22.4999C33.927 22.4999 35.8206 21.9968 37.4934 21.0403C38.5346 20.4514 39.7105 20.1419 40.9067 20.1419C42.103 20.1419 43.2788 20.4514 44.3201 21.0403C46.01 22.0061 47.9203 22.5204 49.8667 22.5336C51.7472 22.5297 53.591 22.0135 55.2001 21.0403C55.6706 20.7683 56.1719 20.5534 56.6934 20.4003C57.3723 20.2022 57.9448 19.7426 58.2849 19.1225C58.625 18.5024 58.7048 17.7726 58.5067 17.0936C58.3087 16.4146 57.8491 15.8422 57.2289 15.5021C56.6088 15.162 55.879 15.0822 55.2001 15.2803C54.2651 15.5688 53.3694 15.9719 52.5334 16.4803C51.6839 16.9771 50.7175 17.2389 49.7334 17.2389C48.7493 17.2389 47.7829 16.9771 46.9334 16.4803C45.0844 15.4431 43 14.8984 40.8801 14.8984C38.7601 14.8984 36.6757 15.4431 34.8267 16.4803C33.9682 16.9791 32.993 17.2418 32.0001 17.2418C31.0071 17.2418 30.0319 16.9791 29.1734 16.4803C27.3244 15.4431 25.24 14.8984 23.1201 14.8984C21.0001 14.8984 18.9157 15.4431 17.0667 16.4803C16.2172 16.9771 15.2508 17.2389 14.2667 17.2389C13.2826 17.2389 12.3162 16.9771 11.4667 16.4803C10.6307 15.9719 9.73502 15.5688 8.80006 15.2803C8.1211 15.0822 7.39129 15.162 6.77117 15.5021C6.15105 15.8422 5.69142 16.4146 5.49339 17.0936C5.29536 17.7726 5.37516 18.5024 5.71522 19.1225C6.05529 19.7426 6.62777 20.2022 7.30672 20.4003H7.25339Z" fill="#FFC700"/>
</svg>
