<svg width="64" height="64" viewBox="0 0 64 64" fill="none" xmlns="http://www.w3.org/2000/svg">
<path d="M56.0001 30.6666C56.0001 35.8213 51.8214 40 46.6667 40C41.5121 40 37.3334 35.8213 37.3334 30.6666C37.3334 25.512 41.5121 21.3333 46.6667 21.3333C51.8214 21.3333 56.0001 25.512 56.0001 30.6666ZM50.6667 30.6666C50.6667 28.4575 48.8759 26.6666 46.6667 26.6666C44.4576 26.6666 42.6667 28.4575 42.6667 30.6666C42.6667 32.8758 44.4576 34.6666 46.6667 34.6666C48.8759 34.6666 50.6667 32.8758 50.6667 30.6666Z" fill="#FFC700"/>
<path d="M53.3334 53.3333C53.3334 54.8061 54.5273 56 56.0001 56C57.4728 56 58.6667 54.8061 58.6667 53.3333C58.6667 46.7059 53.2942 42.6666 46.6667 42.6666C40.0393 42.6666 34.6667 46.7059 34.6667 53.3333C34.6667 54.8061 35.8607 56 37.3334 56C38.8062 56 40.0001 54.8061 40.0001 53.3333C40.0001 49.6514 42.9849 48 46.6667 48C50.3486 48 53.3334 49.6514 53.3334 53.3333Z" fill="#FFC700"/>
<mask id="path-2-inside-1" fill="white">
<path d="M29.3333 18.6667C29.3333 24.5577 24.5576 29.3333 18.6666 29.3333C12.7755 29.3333 7.99992 24.5577 7.99992 18.6667C7.99992 12.7756 12.7755 8 18.6666 8C24.5576 8 29.3333 12.7756 29.3333 18.6667ZM23.9999 18.6667C23.9999 15.7211 21.6121 13.3333 18.6666 13.3333C15.7211 13.3333 13.3333 15.7211 13.3333 18.6667C13.3333 21.6122 15.7211 24 18.6666 24C21.6121 24 23.9999 21.6122 23.9999 18.6667Z"/>
<path d="M29.3333 56C27.8605 56 26.6666 54.8061 26.6666 53.3333V45.3333C26.6666 40.9151 23.0849 37.3333 18.6666 37.3333C14.2483 37.3333 10.6666 40.9151 10.6666 45.3333V53.3333C10.6666 54.8061 9.47268 56 7.99992 56C6.52716 56 5.33325 54.8061 5.33325 53.3333V45.3333C5.33325 37.9695 11.3028 32 18.6666 32C26.0304 32 31.9999 37.9695 31.9999 45.3333V53.3333C31.9999 54.8061 30.806 56 29.3333 56Z"/>
</mask>
<path d="M29.3333 18.6667C29.3333 24.5577 24.5576 29.3333 18.6666 29.3333C12.7755 29.3333 7.99992 24.5577 7.99992 18.6667C7.99992 12.7756 12.7755 8 18.6666 8C24.5576 8 29.3333 12.7756 29.3333 18.6667ZM23.9999 18.6667C23.9999 15.7211 21.6121 13.3333 18.6666 13.3333C15.7211 13.3333 13.3333 15.7211 13.3333 18.6667C13.3333 21.6122 15.7211 24 18.6666 24C21.6121 24 23.9999 21.6122 23.9999 18.6667Z" fill="black"/>
<path d="M29.3333 56C27.8605 56 26.6666 54.8061 26.6666 53.3333V45.3333C26.6666 40.9151 23.0849 37.3333 18.6666 37.3333C14.2483 37.3333 10.6666 40.9151 10.6666 45.3333V53.3333C10.6666 54.8061 9.47268 56 7.99992 56C6.52716 56 5.33325 54.8061 5.33325 53.3333V45.3333C5.33325 37.9695 11.3028 32 18.6666 32C26.0304 32 31.9999 37.9695 31.9999 45.3333V53.3333C31.9999 54.8061 30.806 56 29.3333 56Z" fill="black"/>
<path d="M18.6666 30C24.9258 30 29.9999 24.9259 29.9999 18.6667H17.9999C17.9999 18.2985 18.2984 18 18.6666 18V30ZM7.33325 18.6667C7.33325 24.9259 12.4074 30 18.6666 30V18C19.0348 18 19.3333 18.2985 19.3333 18.6667H7.33325ZM18.6666 7.33333C12.4074 7.33333 7.33325 12.4074 7.33325 18.6667H19.3333C19.3333 19.0349 19.0348 19.3333 18.6666 19.3333V7.33333ZM29.9999 18.6667C29.9999 12.4074 24.9258 7.33333 18.6666 7.33333V19.3333C18.2984 19.3333 17.9999 19.0349 17.9999 18.6667H29.9999ZM18.6666 35.3333C27.8713 35.3333 35.3333 27.8714 35.3333 18.6667H23.3333C23.3333 21.244 21.2439 23.3333 18.6666 23.3333V35.3333ZM1.99992 18.6667C1.99992 27.8714 9.46184 35.3333 18.6666 35.3333V23.3333C16.0893 23.3333 13.9999 21.244 13.9999 18.6667H1.99992ZM18.6666 2C9.46184 2 1.99992 9.46192 1.99992 18.6667H13.9999C13.9999 16.0893 16.0893 14 18.6666 14V2ZM35.3333 18.6667C35.3333 9.46192 27.8713 2 18.6666 2V14C21.2439 14 23.3333 16.0893 23.3333 18.6667H35.3333ZM20.6666 45.3333V53.3333H32.6666V45.3333H20.6666ZM18.6666 43.3333C19.7712 43.3333 20.6666 44.2288 20.6666 45.3333H32.6666C32.6666 37.6013 26.3986 31.3333 18.6666 31.3333V43.3333ZM16.6666 45.3333C16.6666 44.2288 17.562 43.3333 18.6666 43.3333V31.3333C10.9346 31.3333 4.66658 37.6013 4.66658 45.3333H16.6666ZM16.6666 53.3333V45.3333H4.66658V53.3333H16.6666ZM-0.666748 45.3333V53.3333H11.3333V45.3333H-0.666748ZM18.6666 26C7.98908 26 -0.666748 34.6558 -0.666748 45.3333H11.3333C11.3333 41.2832 14.6165 38 18.6666 38V26ZM37.9999 45.3333C37.9999 34.6558 29.3441 26 18.6666 26V38C22.7167 38 25.9999 41.2832 25.9999 45.3333H37.9999ZM37.9999 53.3333V45.3333H25.9999V53.3333H37.9999ZM7.99992 50C9.84087 50 11.3333 51.4924 11.3333 53.3333H-0.666748C-0.666748 58.1198 3.21344 62 7.99992 62V50ZM25.9999 53.3333C25.9999 51.4924 27.4923 50 29.3333 50V62C34.1197 62 37.9999 58.1198 37.9999 53.3333H25.9999ZM4.66658 53.3333C4.66658 51.4924 6.15897 50 7.99992 50V62C12.7864 62 16.6666 58.1198 16.6666 53.3333H4.66658ZM20.6666 53.3333C20.6666 58.1198 24.5468 62 29.3333 62V50C31.1742 50 32.6666 51.4924 32.6666 53.3333H20.6666Z" fill="#414957" mask="url(#path-2-inside-1)"/>
</svg>
