<svg width="64" height="64" viewBox="0 0 64 64" fill="none" xmlns="http://www.w3.org/2000/svg">
<path d="M55.2532 41.9469C54.3183 42.2354 53.4226 42.6384 52.5866 43.1469C51.737 43.6436 50.7707 43.9055 49.7866 43.9055C48.8025 43.9055 47.8361 43.6436 46.9866 43.1469C45.1376 42.1097 43.0532 41.565 40.9332 41.565C38.8133 41.565 36.7288 42.1097 34.8799 43.1469C34.0214 43.6457 33.0461 43.9084 32.0532 43.9084C31.0603 43.9084 30.0851 43.6457 29.2266 43.1469C27.3776 42.1097 25.2932 41.565 23.1732 41.565C21.0533 41.565 18.9688 42.1097 17.1199 43.1469C16.2704 43.6436 15.304 43.9055 14.3199 43.9055C13.3358 43.9055 12.3694 43.6436 11.5199 43.1469C10.6839 42.6384 9.78819 42.2354 8.85323 41.9469C8.51705 41.8488 8.16484 41.8179 7.81672 41.856C7.46861 41.894 7.13139 42.0003 6.82434 42.1687C6.51729 42.3371 6.24641 42.5643 6.02717 42.8374C5.80793 43.1104 5.64462 43.424 5.54656 43.7602C5.44851 44.0964 5.41763 44.4486 5.45569 44.7967C5.49376 45.1448 5.60001 45.482 5.7684 45.7891C5.93678 46.0961 6.16399 46.367 6.43706 46.5862C6.71013 46.8055 7.02371 46.9688 7.3599 47.0669C7.88138 47.22 8.3827 47.4348 8.85323 47.7069C10.5061 48.6933 12.395 49.2142 14.3199 49.2142C16.2447 49.2142 18.1337 48.6933 19.7866 47.7069C20.8278 47.1179 22.0037 46.8084 23.1999 46.8084C24.3961 46.8084 25.572 47.1179 26.6132 47.7069C28.286 48.6634 30.1796 49.1665 32.1066 49.1665C34.0335 49.1665 35.9271 48.6634 37.5999 47.7069C38.6411 47.1179 39.817 46.8084 41.0132 46.8084C42.2095 46.8084 43.3853 47.1179 44.4266 47.7069C46.1165 48.6727 48.0268 49.187 49.9732 49.2002C51.8537 49.1963 53.6975 48.68 55.3066 47.7069C55.7771 47.4348 56.2784 47.22 56.7999 47.0669C57.4788 46.8688 58.0513 46.4092 58.3914 45.7891C58.7315 45.169 58.8113 44.4391 58.6132 43.7602C58.4152 43.0812 57.9556 42.5088 57.3355 42.1687C56.7153 41.8286 55.9855 41.7488 55.3066 41.9469H55.2532ZM55.2532 28.6135C54.3183 28.902 53.4226 29.3051 52.5866 29.8135C51.737 30.3103 50.7707 30.5721 49.7866 30.5721C48.8025 30.5721 47.8361 30.3103 46.9866 29.8135C45.1376 28.7764 43.0532 28.2317 40.9332 28.2317C38.8133 28.2317 36.7288 28.7764 34.8799 29.8135C34.0214 30.3123 33.0461 30.5751 32.0532 30.5751C31.0603 30.5751 30.0851 30.3123 29.2266 29.8135C27.3776 28.7764 25.2932 28.2317 23.1732 28.2317C21.0533 28.2317 18.9688 28.7764 17.1199 29.8135C16.2704 30.3103 15.304 30.5721 14.3199 30.5721C13.3358 30.5721 12.3694 30.3103 11.5199 29.8135C10.6839 29.3051 9.78819 28.902 8.85323 28.6135C8.50406 28.4817 8.13111 28.4246 7.7585 28.446C7.38589 28.4674 7.02192 28.5668 6.69014 28.7377C6.35835 28.9086 6.06614 29.1473 5.8324 29.4383C5.59866 29.7292 5.42861 30.066 5.33323 30.4269C5.23518 30.763 5.2043 31.1152 5.24236 31.4634C5.28042 31.8115 5.38668 32.1487 5.55506 32.4557C5.72345 32.7628 5.95066 33.0337 6.22373 33.2529C6.4968 33.4722 6.81038 33.6355 7.14656 33.7335C7.66804 33.8866 8.16937 34.1015 8.6399 34.3735C10.2927 35.36 12.1817 35.8809 14.1066 35.8809C16.0314 35.8809 17.9204 35.36 19.5732 34.3735C20.6145 33.7846 21.7903 33.4751 22.9866 33.4751C24.1828 33.4751 25.3587 33.7846 26.3999 34.3735C28.0727 35.33 29.9663 35.8332 31.8932 35.8332C33.8202 35.8332 35.7138 35.33 37.3866 34.3735C38.4278 33.7846 39.6037 33.4751 40.7999 33.4751C41.9961 33.4751 43.172 33.7846 44.2132 34.3735C45.9032 35.3394 47.8134 35.8537 49.7599 35.8669C51.6403 35.863 53.4842 35.3467 55.0932 34.3735C55.5638 34.1015 56.0651 33.8866 56.5866 33.7335C57.2655 33.5355 57.838 33.0759 58.1781 32.4557C58.5181 31.8356 58.5979 31.1058 58.3999 30.4269C58.2019 29.7479 57.7422 29.1754 57.1221 28.8354C56.502 28.4953 55.7722 28.4155 55.0932 28.6135H55.2532Z" fill="black"/>
<path d="M56.1466 44.8269C56.1452 44.8272 56.1438 44.8277 56.1425 44.828L56.1466 44.8269ZM6.22373 33.2529L7.88097 31.1888L6.22373 33.2529Z" stroke="white" stroke-opacity="0.3" stroke-width="6"/>
<path d="M7.25339 20.4003C7.77487 20.5534 8.2762 20.7683 8.74672 21.0403C10.3996 22.0268 12.2885 22.5476 14.2134 22.5476C16.1382 22.5476 18.0272 22.0268 19.6801 21.0403C20.7213 20.4514 21.8972 20.1419 23.0934 20.1419C24.2896 20.1419 25.4655 20.4514 26.5067 21.0403C28.1795 21.9968 30.0731 22.4999 32.0001 22.4999C33.927 22.4999 35.8206 21.9968 37.4934 21.0403C38.5346 20.4514 39.7105 20.1419 40.9067 20.1419C42.103 20.1419 43.2788 20.4514 44.3201 21.0403C46.01 22.0061 47.9203 22.5204 49.8667 22.5336C51.7472 22.5297 53.591 22.0135 55.2001 21.0403C55.6706 20.7683 56.1719 20.5534 56.6934 20.4003C57.3723 20.2022 57.9448 19.7426 58.2849 19.1225C58.625 18.5024 58.7048 17.7726 58.5067 17.0936C58.3087 16.4146 57.8491 15.8422 57.2289 15.5021C56.6088 15.162 55.879 15.0822 55.2001 15.2803C54.2651 15.5688 53.3694 15.9719 52.5334 16.4803C51.6839 16.9771 50.7175 17.2389 49.7334 17.2389C48.7493 17.2389 47.7829 16.9771 46.9334 16.4803C45.0844 15.4431 43 14.8984 40.8801 14.8984C38.7601 14.8984 36.6757 15.4431 34.8267 16.4803C33.9682 16.9791 32.993 17.2418 32.0001 17.2418C31.0071 17.2418 30.0319 16.9791 29.1734 16.4803C27.3244 15.4431 25.24 14.8984 23.1201 14.8984C21.0001 14.8984 18.9157 15.4431 17.0667 16.4803C16.2172 16.9771 15.2508 17.2389 14.2667 17.2389C13.2826 17.2389 12.3162 16.9771 11.4667 16.4803C10.6307 15.9719 9.73502 15.5688 8.80006 15.2803C8.1211 15.0822 7.39129 15.162 6.77117 15.5021C6.15105 15.8422 5.69142 16.4146 5.49339 17.0936C5.29536 17.7726 5.37516 18.5024 5.71522 19.1225C6.05529 19.7426 6.62777 20.2022 7.30672 20.4003H7.25339Z" fill="#FFC700"/>
</svg>
