<svg width="53" height="53" viewBox="0 0 64 64" fill="none" xmlns="http://www.w3.org/2000/svg">
<path d="M32.0002 58.6667C46.7278 58.6667 58.6668 46.7276 58.6668 32C58.6668 17.2724 46.7278 5.33334 32.0002 5.33334C17.2726 5.33334 5.3335 17.2724 5.3335 32C5.3335 46.7276 17.2726 58.6667 32.0002 58.6667Z" stroke="#414957" stroke-width="6" stroke-linecap="round" stroke-linejoin="round"/>
<path d="M39.5469 39.5467L50.8535 50.8534" stroke="#414957" stroke-width="6" stroke-linecap="round" stroke-linejoin="round"/>
<path d="M13.1465 50.8534L24.4532 39.5467" stroke="#414957" stroke-width="6" stroke-linecap="round" stroke-linejoin="round"/>
<path d="M39.5469 24.4534L48.9602 15.04" stroke="#414957" stroke-width="6" stroke-linecap="round" stroke-linejoin="round"/>
<path d="M13.1465 13.1467L24.4532 24.4533" stroke="#414957" stroke-width="6" stroke-linecap="round" stroke-linejoin="round"/>
<path d="M32.0002 42.6666C37.8912 42.6666 42.6668 37.891 42.6668 32C42.6668 26.1089 37.8912 21.3333 32.0002 21.3333C26.1091 21.3333 21.3335 26.1089 21.3335 32C21.3335 37.891 26.1091 42.6666 32.0002 42.6666Z" stroke="#FFC700" stroke-width="6" stroke-linecap="round" stroke-linejoin="round"/>
</svg>
