<svg width="126" height="100" viewBox="0 0 126 100" fill="none" xmlns="http://www.w3.org/2000/svg">
<path d="M76.5496 75.4879C76.4272 75.3659 76.1824 75.366 76.06 75.6099C75.9376 75.7318 75.9377 75.9757 76.1824 76.0976C76.3048 76.2196 80.5888 79.0245 86.5864 80.244C86.5864 80.244 86.5864 80.244 86.7088 80.244C86.8312 80.244 87.076 80.1221 87.076 80.0001C87.076 79.7562 86.9536 79.6342 86.8312 79.5123C80.956 78.2928 76.672 75.4879 76.5496 75.4879Z" fill="white"/>
<path d="M70.7972 100C71.042 100 71.1645 99.878 71.2868 99.7561C71.4092 99.5122 71.2868 99.3902 71.042 99.2683C65.2892 97.439 61.1276 94.5122 61.0052 94.3902C60.8828 94.2682 60.638 94.2683 60.5156 94.5122C60.3932 94.6342 60.3932 94.878 60.638 95C60.638 95 64.922 98.0488 70.7972 100Z" fill="white"/>
<path d="M88.3004 74.6339C88.0556 74.5119 87.8108 74.6339 87.6884 74.8778C87.566 75.1217 87.6884 75.2437 87.9332 75.3656H88.0556C91.7276 76.829 95.8892 78.4144 104.09 78.9022C104.335 78.9022 104.457 78.7803 104.457 78.5364C104.457 78.2925 104.335 78.1705 104.09 78.1705C96.0116 77.6827 92.0948 76.2193 88.3004 74.6339Z" fill="white"/>
<path d="M81.2006 97.8048C81.323 97.8048 81.5679 97.6829 81.5679 97.561C81.5679 97.3171 81.4454 97.1951 81.323 97.0732C69.9398 94.5122 60.5151 89.6341 53.1711 82.5609C53.0487 82.439 52.8039 82.439 52.6815 82.5609C52.5591 82.6829 52.5591 82.9268 52.6815 83.0488C60.0255 90.2439 69.6951 95.1219 81.2006 97.8048Z" fill="white"/>
<path d="M48.7648 98.5366C45.3376 97.1951 41.5432 94.2683 41.5432 94.1463C41.4208 94.0244 41.176 94.0244 41.0536 94.1463C40.9312 94.2683 40.9312 94.5122 41.0536 94.6342C41.176 94.7561 44.9704 97.6829 48.52 99.1463H48.6424C48.7648 99.1463 48.8872 99.0244 49.0096 98.9024C49.132 98.7805 49.0096 98.5366 48.7648 98.5366Z" fill="white"/>
<path d="M103.968 42.8045C102.866 38.9021 98.827 37.8045 96.1343 37.4386L99.6838 51.0972C101.887 49.6338 104.947 46.707 103.968 42.8045Z" fill="white"/>
<path d="M41.7885 62.9267L46.9293 61.5853L41.7885 52.195V62.9267Z" fill="white"/>
<path d="M94.1761 37.317L98.0929 52.0731C98.3378 51.9511 98.7049 51.8292 99.0721 51.5853L95.4001 37.4389C94.7881 37.317 94.4209 37.317 94.1761 37.317Z" fill="white"/>
<path d="M89.7697 7.31707C82.0585 2.68292 73.0009 0.243903 63.6986 0C63.3314 0 63.0866 0 62.7194 0C49.2554 0 36.6482 4.99999 27.2234 14.2683C17.6762 23.5366 12.0459 36.3415 11.0667 50.4879C4.33468 54.5123 0.295495 57.4391 0.173095 57.561C0.0506954 57.683 -0.071699 57.8049 0.0507007 57.9269L5.80347 79.2684C5.80347 79.3904 6.04828 79.5123 6.17068 79.5123L8.61867 79.6342C9.10827 79.6342 13.5147 80.122 20.6139 80.244C21.4706 81.3416 28.2026 90.366 34.8122 93.9025H34.9346C35.057 93.9025 35.1794 93.7806 35.3018 93.6586C35.4242 93.4147 35.3018 93.2928 35.1794 93.1708C29.3042 90.0001 23.1842 82.3172 21.5931 80.122C22.4498 80.122 23.3066 80.122 24.2858 80.122C26.489 80.122 28.937 80.1221 31.5074 80.0001C32.7314 81.8294 34.9346 84.6342 38.6066 87.4391C38.729 87.4391 38.729 87.5611 38.8514 87.5611C38.9738 87.5611 39.0962 87.5611 39.0962 87.4391C39.2186 87.3172 39.2186 87.0733 38.9738 86.9513C35.669 84.3903 33.4658 81.8294 32.2418 80.0001C34.0778 79.8782 36.0362 79.8781 37.9946 79.7562C42.0338 85.0001 47.1746 88.5367 49.745 90.244L50.2346 90.6098C50.357 90.6098 50.357 90.7318 50.4794 90.7318C50.6018 90.7318 50.7242 90.7318 50.8466 90.6098C50.969 90.4879 50.9689 90.244 50.7241 90.122L50.2346 89.7562C47.7866 88.0489 42.8906 84.6342 38.9738 79.7562C44.7266 79.3903 50.969 78.7806 57.4561 77.683C59.2921 77.4391 61.1281 77.0732 62.9641 76.7074C62.9641 76.7074 62.9641 76.7074 62.9641 76.8294C63.0865 76.9513 75.4489 88.9025 94.6657 89.7562C94.9105 89.7562 95.0329 89.6343 95.0329 89.3904C95.0329 89.1465 94.9105 89.0245 94.6657 89.0245C77.4073 88.1708 65.7794 78.4147 63.821 76.5854C71.5322 75.0001 78.7537 73.0489 85.2409 70.6098C89.2801 72.3172 95.8897 74.3903 104.702 74.7562C104.947 74.7562 105.07 74.6342 105.07 74.3903C105.07 74.1464 104.947 74.0245 104.702 74.0245C96.5017 73.6586 90.2593 71.8294 86.2201 70.244C89.6473 68.9025 92.9521 67.4391 96.0121 65.8537C96.0121 65.8537 96.0121 65.8537 96.1345 65.8537H96.2569C99.1945 66.5854 101.887 67.1952 105.804 67.1952C107.273 67.1952 108.986 67.0732 110.945 66.8293C111.19 66.8293 111.312 66.5854 111.312 66.4635C111.312 66.2196 111.067 66.0976 110.945 66.0976C104.702 66.9513 101.03 66.0976 97.2361 65.244C99.3169 64.1464 101.398 62.9269 103.356 61.5855C103.478 61.7074 103.846 61.8293 105.804 61.8293C106.661 61.8293 108.007 61.8294 109.721 61.7074C109.966 61.7074 110.088 61.4635 110.088 61.3415C110.088 61.0976 109.966 60.9757 109.721 60.9757C106.294 61.0976 104.825 61.0976 104.335 60.9757C114.005 54.5123 121.226 46.5854 126 37.1952C126 37.1952 125.878 37.1952 125.755 37.3171C125.51 37.4391 124.898 37.561 124.898 37.561L105.314 42.8049C106.661 48.6586 100.174 52.683 98.4601 53.2927C98.3376 53.2927 98.3377 53.2927 98.2153 53.2927C97.9705 53.2927 97.7257 53.1708 97.6033 52.9269C97.6033 52.9269 97.6033 52.8049 97.4809 52.8049L93.1969 36.8293C93.1969 36.7073 93.1969 36.5854 93.3193 36.4634C93.4417 36.3415 93.5641 36.2196 93.8089 36.0976C94.1761 36.0976 102.866 35.7317 104.947 42.0732L124.531 36.8293C124.531 36.8293 125.143 36.5854 125.388 36.5854C125.51 36.5854 125.633 36.5854 125.633 36.5854C120.125 32.683 114.25 28.9024 108.374 27.0732C108.252 26.5854 108.007 26.2196 108.007 26.2196C103.723 18.4147 97.3585 11.8293 89.7697 7.31707ZM117.31 32.0732C114.494 30.8537 111.679 29.8781 108.619 29.0244C108.619 28.6585 108.497 28.2927 108.497 27.9268C111.557 28.9025 114.494 30.3658 117.31 32.0732ZM15.8402 66.4635L9.23066 68.1708H9.10827C8.98587 68.1708 8.74106 68.0488 8.74106 67.9269C8.74106 67.683 8.86347 67.561 8.98587 67.4391L15.5954 65.7318C15.8402 65.7318 15.9627 65.8537 16.0851 65.9757C16.0851 66.2196 15.9626 66.4635 15.8402 66.4635ZM35.9138 69.1464C35.669 69.2683 35.4242 69.1464 35.1794 68.9025L28.937 60.244L28.5698 69.7561C28.5698 70.0001 28.4474 70.244 28.0802 70.3659C27.9578 70.3659 27.9578 70.3659 27.8354 70.3659C27.5906 70.3659 27.4682 70.244 27.3458 70.122L18.2882 59.0244C18.0434 58.7805 18.1658 58.4147 18.4106 58.1708C18.6554 57.9269 19.0226 58.0488 19.2675 58.2927L27.3458 68.1708L27.713 58.5366C27.713 58.2927 27.9578 58.0488 28.2026 57.9269C28.4474 57.8049 28.6922 57.9269 28.937 58.1708L35.057 66.7074L34.9346 51.0976C34.9346 50.7318 35.1794 50.4879 35.5466 50.4879C35.9138 50.4879 36.1586 50.7318 36.1586 51.0976L36.281 68.6586C36.281 68.9025 36.1586 69.1464 35.9138 69.1464ZM2.86588 58.2927L2.62109 58.4147L8.12907 78.7806L6.41546 78.6586L0.78511 57.8049C3.3555 55.9757 29.0594 38.1707 58.925 30L59.7817 30.9756C29.3042 39.7561 3.11068 58.1708 2.86588 58.2927ZM50.7241 67.0732C50.4794 67.1952 49.9898 67.0732 49.8674 66.8293L47.5418 62.683L41.789 64.1464V68.2928C41.789 68.6586 41.5442 68.9025 41.177 68.9025C40.8098 68.9025 40.565 68.6586 40.565 68.2928L40.4426 49.7561C40.4426 49.5122 40.6874 49.2683 40.9322 49.1464C41.177 49.0244 41.5442 49.1464 41.6666 49.3903L50.969 66.2196C51.0914 66.4635 50.9689 66.8293 50.7241 67.0732ZM64.1881 64.3903C64.0658 64.5122 63.9434 64.5122 63.821 64.5122C63.6986 64.5122 63.4538 64.3903 63.3314 64.2683L55.4978 55.4879L53.9066 60C53.9066 60.122 53.7841 60.122 53.7841 60.244L55.253 65.6098C55.3754 65.9757 55.1306 66.3416 54.7634 66.3416H54.641C54.3962 66.3416 54.1514 66.0976 54.029 65.8537L48.8882 46.9513C48.7658 46.5854 49.0106 46.2196 49.3778 46.2196C49.745 46.2196 50.1122 46.3415 50.1122 46.7074L53.1722 58.1708L57.8234 44.5123C57.9458 44.1464 58.3129 44.0244 58.6801 44.1464C59.0473 44.2683 59.1698 44.6342 59.0474 45L55.865 54.2684L64.1881 63.5367C64.433 63.7806 64.433 64.1464 64.1881 64.3903ZM74.8369 61.3415L68.1049 63.2927H67.9825C67.8601 63.2927 67.7377 63.2927 67.6153 63.1708C67.4929 63.0488 67.3706 62.9269 67.3706 62.805L62.2297 43.6586C62.1073 43.2927 62.3522 42.9268 62.7194 42.9268L70.0634 40.9756C70.4306 40.8537 70.7977 41.0976 70.7977 41.4634C70.9201 41.8293 70.6753 42.1952 70.3081 42.1952L63.5761 44.0245L65.7793 52.3171L71.4097 50.7318C71.7769 50.6098 72.1441 50.8537 72.1441 51.2196C72.2665 51.5854 72.0217 51.9513 71.6545 51.9513L66.0242 53.5366L68.2274 61.8293L74.3473 60.122C74.7145 60.0001 75.0817 60.2439 75.0817 60.6098C75.4489 60.8537 75.2041 61.2196 74.8369 61.3415ZM79.7329 60.3659C79.4881 60.6098 79.2433 60.7318 78.9985 60.7318C78.3865 60.7318 78.0193 60.244 77.8969 59.7562C77.8969 59.5123 78.0193 59.2683 78.1417 59.0244C78.3865 58.7805 78.6313 58.6586 78.8761 58.6586C79.4881 58.6586 79.8553 59.1464 79.9777 59.6342C80.1001 59.8781 79.9777 60.122 79.7329 60.3659ZM93.9313 54.8781C94.0537 55.244 93.8088 55.6098 93.4416 55.6098C93.0744 55.7318 92.7073 55.4879 92.7073 55.122L88.7905 40.4878L86.8321 48.9025C86.8321 49.1464 86.5873 49.2683 86.3425 49.3903C86.0977 49.3903 85.8529 49.3903 85.7305 49.2684L79.3657 42.439L83.7721 58.5366C83.8945 58.9025 83.6497 59.2684 83.2825 59.2684H83.1601C82.9153 59.2684 82.6705 59.0245 82.5481 58.7806L77.5297 40.2439C77.4073 40 77.5297 39.6342 77.7745 39.5122C78.0193 39.3903 78.3865 39.3903 78.5089 39.6342L85.7305 47.4391L87.9337 37.683C88.0561 37.4391 88.3009 37.1952 88.5457 37.1952C88.7905 37.1952 89.0353 37.4391 89.1577 37.683L93.9313 54.8781ZM107.885 29.2683C107.885 29.8781 107.64 30.4878 107.273 30.7317C106.906 31.0976 106.538 31.2195 106.049 31.2195C104.947 31.2195 103.478 30.2439 101.887 28.4146L101.765 28.2927C99.0721 24.6342 94.9104 22.8049 94.788 22.6829C94.5433 22.561 94.4209 22.6829 94.2985 22.9268C94.1761 23.1707 94.2985 23.2927 94.5433 23.4146C94.5433 23.4146 97.1137 24.6342 99.5617 26.8293C99.0721 26.7073 98.5825 26.7073 98.0929 26.9512C97.1137 27.3171 96.6241 28.4146 96.7465 29.7561C96.7465 30.4878 96.5017 30.9756 95.8897 31.2195C94.9105 31.5854 93.4417 30.9756 92.2177 29.1464C90.7489 26.8293 88.5457 26.3415 87.1993 27.0732C85.9753 27.6829 85.6081 29.0244 86.0977 30.4878C86.5873 31.8293 86.0977 33.0488 84.9961 33.6586C83.7721 34.2683 81.6913 34.0244 79.6105 31.0976L77.6521 28.9025C77.1625 28.4147 73.613 24.0244 70.0634 23.1707C69.8186 23.1707 69.6961 23.2927 69.5737 23.4146C69.5737 23.6585 69.6961 23.7805 69.8185 23.9024C72.1441 24.5122 74.5921 26.7073 75.9385 28.1707V28.2927C76.3057 29.3903 76.1833 30.3659 75.3265 30.8537C74.4697 31.4634 72.8785 31.3415 71.6545 30C69.5737 27.8049 67.7378 27.6829 66.881 28.1707C66.1466 28.6585 65.9017 29.6341 66.2689 30.6098C66.6361 31.7073 66.5137 32.683 65.7793 33.0488C65.0449 33.5366 63.4538 33.4147 61.985 31.9513C61.6178 31.5854 61.3729 31.2195 61.0057 30.8537L60.761 30.6098L59.6594 29.3902C58.313 27.8049 57.5786 27.0732 57.5786 27.0732C56.1098 25.6098 54.5186 25 53.5394 25.4878C52.9274 25.8537 52.5602 26.5854 52.805 27.4391C52.9274 28.2927 52.9273 28.9025 52.5602 29.2683C52.3153 29.6342 51.7034 29.8781 50.969 29.8781C49.0106 30 47.7866 28.2927 46.1954 25.9756C45.3386 24.7561 44.3594 23.2927 43.013 21.9512C39.0962 17.8049 33.3434 19.8781 33.3434 19.8781C33.0986 20 33.0986 20.122 33.0986 20.3659C33.221 20.6098 33.3434 20.6098 33.5882 20.6098C33.5882 20.6098 38.9738 18.6586 42.401 22.561C43.1354 23.2927 43.7474 24.1463 44.3594 24.878C40.0754 22.8049 35.057 25.3659 34.9346 25.3659C34.6898 25.4878 34.6898 25.7317 34.8122 25.8537C34.9346 26.0976 35.1794 26.0976 35.3018 25.9756C35.4242 25.9756 41.4218 22.8049 45.5834 26.4634C46.073 27.0732 46.4402 27.6829 46.8074 28.1707C41.5442 27.9268 37.6274 33.4147 37.3826 33.6586C37.2602 33.7805 37.2602 34.0244 37.505 34.1464C37.6274 34.1464 37.6274 34.2683 37.7498 34.2683C37.8722 34.2683 37.9946 34.2683 38.117 34.1464C38.117 34.1464 42.401 28.2927 47.6642 29.0244C48.6434 30.122 49.745 30.7317 51.0914 30.6098C52.0706 30.4878 52.805 30.2439 53.1722 29.6342C53.6618 29.0244 53.7842 28.2927 53.5394 27.1951C53.417 26.7073 53.5394 26.2195 53.9066 26.0976C54.3962 25.8537 55.4978 25.9756 57.089 27.4391C57.2114 27.561 57.701 28.1708 58.6801 29.2683C47.0522 32.4391 36.0362 37.0732 26.8562 41.7074C28.2026 39.2683 29.549 37.1952 31.2626 35.4878C31.385 35.3659 31.385 35.122 31.2626 35C31.1402 34.8781 30.8954 34.8781 30.773 35C28.8146 36.9513 27.2234 39.3903 25.7546 42.3171C24.5306 42.9269 23.3066 43.5366 22.0826 44.2683C23.9186 37.6829 27.5906 31.9512 32.8538 27.561C32.9762 27.439 32.9762 27.1951 32.8538 27.0732C32.7314 26.9512 32.4866 26.9512 32.3642 27.0732C26.8562 31.7073 22.9394 37.9268 21.2258 44.8781C17.9211 46.7074 14.861 48.4147 12.2907 49.8781C13.2698 35.8537 19.1451 23.6586 28.0802 14.8781C34.3226 10.4878 39.953 12.1951 39.953 12.1951C40.1978 12.3171 40.3202 12.1951 40.4426 11.9512C40.565 11.7073 40.4426 11.5854 40.1978 11.4634C39.953 11.3415 35.7914 10.1219 30.6506 12.439C34.2002 9.39024 38.117 6.95122 42.401 5C56.7218 2.07316 68.2273 8.17072 68.3497 8.29268H68.4721C68.5945 8.29268 68.7169 8.17072 68.8393 8.04876C68.9617 7.80486 68.8394 7.68294 68.717 7.56098C68.5946 7.56098 58.4353 2.19511 45.461 3.65853C50.969 1.58535 56.9666 0.487802 63.209 0.487802C63.5762 0.487802 63.8209 0.487802 64.1881 0.487802C82.9153 0.853656 98.7044 10.8535 107.15 26.7072C107.28 26.9512 107.885 27.8049 107.885 29.2683Z" fill="white"/>
<path d="M63.8205 15.6094C63.0861 15.3655 62.3517 15.6094 61.7397 15.9753C61.2501 16.3411 61.0053 17.0729 61.1277 17.8046C61.2501 18.6582 61.0053 19.3899 60.5157 19.7558C60.0261 19.9997 59.1693 19.7558 58.4349 19.146C54.6406 15.9753 53.1717 16.9509 53.0493 16.9509C52.9269 17.0728 52.8045 17.3167 52.9269 17.4387C53.0493 17.5606 53.2941 17.6826 53.4165 17.5607C53.4165 17.5607 54.6405 16.8289 57.9453 19.6338C58.6797 20.2436 59.4141 20.6094 60.0261 20.6094C60.2709 20.6094 60.6381 20.4875 60.8829 20.3655C61.7397 19.8777 62.1069 18.9021 61.8621 17.6826C61.7397 17.1948 61.8621 16.8289 62.2293 16.585C62.5965 16.3411 63.0861 16.2192 63.5757 16.3411C63.8205 16.3411 63.9429 16.3412 64.0653 16.0972C64.0653 15.8533 63.9429 15.6094 63.8205 15.6094Z" fill="white"/>
<path d="M87.3217 14.7558C87.3217 14.6339 87.077 14.512 86.9546 14.512C86.7098 14.512 86.5874 14.7558 86.5874 14.8778C86.5874 14.9998 86.5873 15.1217 87.5665 16.5851C88.5457 18.1705 88.1786 18.7802 87.9337 19.0241C87.4442 19.6339 86.7098 19.6339 85.7306 19.0241C84.7514 18.4144 84.2617 18.0485 83.7721 17.5607C83.5274 17.3168 83.1601 16.951 82.6705 16.5851C81.8137 15.9754 81.0793 16.0973 80.8345 16.2193C80.2225 16.4632 79.9777 17.0729 79.9777 17.9266C79.9777 18.2924 79.8553 18.6583 79.4881 18.9022C79.1209 19.1461 78.509 19.1461 78.0194 19.0241C76.9178 18.6583 74.225 16.4632 74.225 16.4632C72.389 14.9997 71.6546 14.6339 71.5322 14.6339C71.2874 14.5119 71.165 14.6339 71.0426 14.7558C70.9202 14.9997 71.0426 15.1217 71.165 15.2436C71.165 15.2436 72.0218 15.6095 73.613 16.951C73.7354 17.0729 76.4282 19.1461 77.6522 19.6339C78.3866 19.8778 79.2434 19.8778 79.733 19.39C80.2226 19.0241 80.4673 18.5363 80.5897 17.8046C80.5897 17.3168 80.7122 16.829 81.0794 16.7071C81.3242 16.5851 81.6914 16.7071 82.181 16.951C82.6706 17.3168 82.9153 17.5607 83.1601 17.8046C83.6497 18.2924 84.1394 18.7802 85.241 19.39C85.9754 19.7558 86.465 19.9998 86.9546 19.9998C87.6889 19.9998 88.1786 19.6339 88.4234 19.268C89.1578 18.4144 89.0353 17.3168 88.0561 15.9754C87.4441 15.1217 87.3217 14.7558 87.3217 14.7558Z" fill="white"/>
</svg>
