<svg width="53" height="53" viewBox="0 0 64 64" fill="none" xmlns="http://www.w3.org/2000/svg">
<mask id="path-1-inside-1" fill="white">
<path d="M31.9999 5.33334C26.7258 5.33334 21.57 6.89732 17.1847 9.82749C12.7994 12.7577 9.38148 16.9224 7.36314 21.7951C5.34481 26.6678 4.81672 32.0296 5.84566 37.2024C6.8746 42.3752 9.41435 47.1268 13.1438 50.8562C16.8732 54.5856 21.6247 57.1253 26.7975 58.1543C31.9704 59.1832 37.3321 58.6551 42.2048 56.6368C47.0775 54.6185 51.2423 51.2005 54.1725 46.8152C57.1026 42.4299 58.6666 37.2742 58.6666 32C58.6666 28.4981 57.9768 25.0305 56.6367 21.7951C55.2966 18.5598 53.3323 15.6201 50.8561 13.1438C48.3799 10.6676 45.4402 8.70335 42.2048 7.36322C38.9695 6.0231 35.5018 5.33334 31.9999 5.33334ZM31.9999 53.3333C27.7806 53.3333 23.656 52.0822 20.1478 49.738C16.6395 47.3939 13.9052 44.0621 12.2905 40.1639C10.6758 36.2658 10.2534 31.9763 11.0765 27.8381C11.8997 23.6998 13.9315 19.8986 16.915 16.9151C19.8985 13.9315 23.6997 11.8997 27.838 11.0766C31.9763 10.2534 36.2657 10.6759 40.1638 12.2906C44.062 13.9053 47.3938 16.6396 49.7379 20.1478C52.0821 23.6561 53.3333 27.7807 53.3333 32C53.3333 37.658 51.0857 43.0842 47.0849 47.085C43.0841 51.0857 37.6579 53.3333 31.9999 53.3333Z"/>
</mask>
<path d="M31.9999 5.33334C26.7258 5.33334 21.57 6.89732 17.1847 9.82749C12.7994 12.7577 9.38148 16.9224 7.36314 21.7951C5.34481 26.6678 4.81672 32.0296 5.84566 37.2024C6.8746 42.3752 9.41435 47.1268 13.1438 50.8562C16.8732 54.5856 21.6247 57.1253 26.7975 58.1543C31.9704 59.1832 37.3321 58.6551 42.2048 56.6368C47.0775 54.6185 51.2423 51.2005 54.1725 46.8152C57.1026 42.4299 58.6666 37.2742 58.6666 32C58.6666 28.4981 57.9768 25.0305 56.6367 21.7951C55.2966 18.5598 53.3323 15.6201 50.8561 13.1438C48.3799 10.6676 45.4402 8.70335 42.2048 7.36322C38.9695 6.0231 35.5018 5.33334 31.9999 5.33334ZM31.9999 53.3333C27.7806 53.3333 23.656 52.0822 20.1478 49.738C16.6395 47.3939 13.9052 44.0621 12.2905 40.1639C10.6758 36.2658 10.2534 31.9763 11.0765 27.8381C11.8997 23.6998 13.9315 19.8986 16.915 16.9151C19.8985 13.9315 23.6997 11.8997 27.838 11.0766C31.9763 10.2534 36.2657 10.6759 40.1638 12.2906C44.062 13.9053 47.3938 16.6396 49.7379 20.1478C52.0821 23.6561 53.3333 27.7807 53.3333 32C53.3333 37.658 51.0857 43.0842 47.0849 47.085C43.0841 51.0857 37.6579 53.3333 31.9999 53.3333Z" fill="black"/>
<path d="M58.6666 32H64.6666H58.6666ZM31.9999 53.3333V59.3333V53.3333ZM53.3333 32H59.3333H53.3333ZM31.9999 -0.666656C25.5391 -0.666656 19.2233 1.24921 13.8513 4.83867L20.5181 14.8163C23.9168 12.5454 27.9125 11.3333 31.9999 11.3333V-0.666656ZM13.8513 4.83867C8.4793 8.42813 4.29233 13.53 1.81987 19.499L12.9064 24.0912C14.4706 20.3149 17.1195 17.0872 20.5181 14.8163L13.8513 4.83867ZM1.81987 19.499C-0.652597 25.4681 -1.29951 32.0362 -0.0390553 38.373L11.7304 36.0319C10.9329 32.0229 11.3422 27.8676 12.9064 24.0912L1.81987 19.499ZM-0.0390553 38.373C1.2214 44.7097 4.33259 50.5303 8.90111 55.0988L17.3864 46.6136C14.4961 43.7233 12.5278 40.0408 11.7304 36.0319L-0.0390553 38.373ZM8.90111 55.0988C13.4696 59.6673 19.2903 62.7785 25.627 64.039L27.9681 52.2696C23.9591 51.4721 20.2767 49.5038 17.3864 46.6136L8.90111 55.0988ZM25.627 64.039C31.9637 65.2994 38.5319 64.6525 44.5009 62.1801L39.9087 51.0935C36.1324 52.6577 31.977 53.067 27.9681 52.2696L25.627 64.039ZM44.5009 62.1801C50.47 59.7076 55.5718 55.5206 59.1613 50.1486L49.1836 43.4818C46.9128 46.8804 43.6851 49.5293 39.9087 51.0935L44.5009 62.1801ZM59.1613 50.1486C62.7507 44.7766 64.6666 38.4609 64.6666 32H52.6666C52.6666 36.0875 51.4545 40.0832 49.1836 43.4818L59.1613 50.1486ZM64.6666 32C64.6666 27.7102 63.8217 23.4623 62.18 19.499L51.0934 24.0912C52.132 26.5986 52.6666 29.286 52.6666 32H64.6666ZM62.18 19.499C60.5383 15.5357 58.1321 11.9346 55.0988 8.90119L46.6135 17.3865C48.5326 19.3055 50.0548 21.5838 51.0934 24.0912L62.18 19.499ZM55.0988 8.90119C52.0654 5.86781 48.4642 3.4616 44.5009 1.81995L39.9087 12.9065C42.4161 13.9451 44.6944 15.4674 46.6135 17.3865L55.0988 8.90119ZM44.5009 1.81995C40.5376 0.178292 36.2898 -0.666656 31.9999 -0.666656V11.3333C34.7139 11.3333 37.4013 11.8679 39.9087 12.9065L44.5009 1.81995ZM31.9999 47.3333C28.9673 47.3333 26.0027 46.4341 23.4812 44.7492L16.8143 54.7268C21.3093 57.7303 26.5939 59.3333 31.9999 59.3333V47.3333ZM23.4812 44.7492C20.9596 43.0644 18.9943 40.6696 17.8338 37.8678L6.74722 42.46C8.81602 47.4545 12.3194 51.7234 16.8143 54.7268L23.4812 44.7492ZM17.8338 37.8678C16.6732 35.066 16.3696 31.983 16.9612 29.0086L5.1918 26.6675C4.13714 31.9697 4.67843 37.4655 6.74722 42.46L17.8338 37.8678ZM16.9612 29.0086C17.5529 26.0343 19.0132 23.3021 21.1576 21.1577L12.6723 12.6724C8.84971 16.4951 6.24646 21.3654 5.1918 26.6675L16.9612 29.0086ZM21.1576 21.1577C23.302 19.0133 26.0342 17.5529 29.0085 16.9613L26.6675 5.19188C21.3653 6.24654 16.495 8.84979 12.6723 12.6724L21.1576 21.1577ZM29.0085 16.9613C31.9829 16.3697 35.0659 16.6733 37.8677 17.8339L42.4599 6.7473C37.4654 4.67851 31.9696 4.13722 26.6675 5.19188L29.0085 16.9613ZM37.8677 17.8339C40.6695 18.9944 43.0643 20.9597 44.7491 23.4813L54.7268 16.8144C51.7233 12.3195 47.4545 8.8161 42.4599 6.7473L37.8677 17.8339ZM44.7491 23.4813C46.434 26.0028 47.3333 28.9674 47.3333 32H59.3333C59.3333 26.594 57.7302 21.3094 54.7268 16.8144L44.7491 23.4813ZM47.3333 32C47.3333 36.0667 45.7178 39.9668 42.8422 42.8423L51.3275 51.3276C56.4535 46.2016 59.3333 39.2493 59.3333 32H47.3333ZM42.8422 42.8423C39.9667 45.7179 36.0666 47.3333 31.9999 47.3333V59.3333C39.2492 59.3333 46.2015 56.4536 51.3275 51.3276L42.8422 42.8423Z" fill="#414957" mask="url(#path-1-inside-1)"/>
<path d="M37.7777 23.3408C38.4355 22.9013 39.2089 22.6667 40 22.6667C41.0609 22.6667 42.0783 23.0881 42.8284 23.8383C43.5786 24.5884 44 25.6058 44 26.6667C44 27.4578 43.7654 28.2312 43.3259 28.889C42.8864 29.5468 42.2616 30.0595 41.5307 30.3622C40.7998 30.665 39.9956 30.7442 39.2196 30.5898C38.4437 30.4355 37.731 30.0545 37.1716 29.4951C36.6122 28.9357 36.2312 28.223 36.0769 27.447C35.9225 26.6711 36.0017 25.8669 36.3045 25.136C36.6072 24.405 37.1199 23.7803 37.7777 23.3408Z" fill="#414957"/>
<path d="M21.7777 23.3408C22.4355 22.9013 23.2089 22.6667 24 22.6667C25.0609 22.6667 26.0783 23.0881 26.8284 23.8383C27.5786 24.5884 28 25.6058 28 26.6667C28 27.4578 27.7654 28.2312 27.3259 28.889C26.8864 29.5468 26.2616 30.0595 25.5307 30.3622C24.7998 30.665 23.9956 30.7442 23.2196 30.5898C22.4437 30.4355 21.731 30.0545 21.1716 29.4951C20.6122 28.9357 20.2312 28.223 20.0769 27.447C19.9225 26.6711 20.0017 25.8669 20.3045 25.136C20.6072 24.405 21.1199 23.7803 21.7777 23.3408Z" fill="#414957"/>
<path d="M31.9994 40.1678C34.2892 40.1678 36.5101 39.384 38.2927 37.9467C38.8373 37.4941 39.5393 37.2763 40.2445 37.3414C40.5936 37.3736 40.933 37.4742 41.2433 37.6376C41.5535 37.8009 41.8286 38.0238 42.0527 38.2934C42.5053 38.838 42.7231 39.5401 42.6581 40.2452C42.5931 40.9504 42.2506 41.6008 41.706 42.0534C38.9825 44.327 35.5472 45.5724 31.9994 45.5724C28.4515 45.5724 25.0163 44.327 22.2927 42.0534C21.7481 41.6008 21.4056 40.9504 21.3406 40.2452C21.2756 39.5401 21.4934 38.838 21.946 38.2934C22.3987 37.7488 23.0491 37.4064 23.7542 37.3414C24.4594 37.2763 25.1614 37.4941 25.706 37.9467C27.4886 39.384 29.7095 40.1678 31.9994 40.1678Z" fill="#FFC700"/>
</svg>
