<svg width="64" height="64" viewBox="0 0 64 64" fill="none" xmlns="http://www.w3.org/2000/svg">
<g opacity="0.4">
<path fill-rule="evenodd" clip-rule="evenodd" d="M32.0002 8.33331C18.9294 8.33331 8.3335 18.9292 8.3335 32C8.3335 45.0707 18.9294 55.6666 32.0002 55.6666C45.0709 55.6666 55.6668 45.0707 55.6668 32C55.6668 18.9292 45.0709 8.33331 32.0002 8.33331ZM2.3335 32C2.3335 15.6155 15.6157 2.33331 32.0002 2.33331C48.3846 2.33331 61.6668 15.6155 61.6668 32C61.6668 48.3844 48.3846 61.6666 32.0002 61.6666C15.6157 61.6666 2.3335 48.3844 2.3335 32Z" fill="white"/>
<path fill-rule="evenodd" clip-rule="evenodd" d="M37.4256 37.4253C38.5972 36.2537 40.4967 36.2537 41.6683 37.4253L52.9749 48.732C54.1465 49.9035 54.1465 51.803 52.9749 52.9746C51.8034 54.1462 49.9039 54.1462 48.7323 52.9746L37.4256 41.6679C36.2541 40.4964 36.2541 38.5969 37.4256 37.4253Z" fill="white"/>
<path fill-rule="evenodd" clip-rule="evenodd" d="M26.5747 37.4253C27.7463 38.5969 27.7463 40.4964 26.5747 41.6679L15.268 52.9746C14.0965 54.1462 12.197 54.1462 11.0254 52.9746C9.85382 51.803 9.85382 49.9035 11.0254 48.732L22.3321 37.4253C23.5036 36.2537 25.4031 36.2537 26.5747 37.4253Z" fill="white"/>
<path fill-rule="evenodd" clip-rule="evenodd" d="M51.0816 12.9187C52.2532 14.0903 52.2532 15.9897 51.0816 17.1613L41.6683 26.5747C40.4967 27.7462 38.5972 27.7462 37.4256 26.5747C36.2541 25.4031 36.2541 23.5036 37.4256 22.332L46.839 12.9187C48.0105 11.7471 49.91 11.7471 51.0816 12.9187Z" fill="white"/>
<path fill-rule="evenodd" clip-rule="evenodd" d="M11.0254 11.0253C12.197 9.85374 14.0965 9.85374 15.268 11.0253L26.5747 22.332C27.7463 23.5036 27.7463 25.403 26.5747 26.5746C25.4031 27.7462 23.5036 27.7462 22.3321 26.5746L11.0254 15.268C9.85382 14.0964 9.85382 12.1969 11.0254 11.0253Z" fill="white"/>
</g>
<path fill-rule="evenodd" clip-rule="evenodd" d="M32.0002 24.3333C27.766 24.3333 24.3335 27.7658 24.3335 32C24.3335 36.2342 27.766 39.6666 32.0002 39.6666C36.2343 39.6666 39.6668 36.2342 39.6668 32C39.6668 27.7658 36.2343 24.3333 32.0002 24.3333ZM18.3335 32C18.3335 24.4521 24.4523 18.3333 32.0002 18.3333C39.5481 18.3333 45.6668 24.4521 45.6668 32C45.6668 39.5479 39.5481 45.6666 32.0002 45.6666C24.4523 45.6666 18.3335 39.5479 18.3335 32Z" fill="#FFC700"/>
</svg>
