<svg width="64" height="64" viewBox="0 0 64 64" fill="none" xmlns="http://www.w3.org/2000/svg">
<g clip-path="url(#clip0)">
<path opacity="0.4" fill-rule="evenodd" clip-rule="evenodd" d="M31.7217 5.93814C26.2095 5.93814 20.9232 8.12783 17.0255 12.0255C13.1278 15.9232 10.9381 21.2095 10.9381 26.7216C10.9381 34.7654 16.1807 42.6188 22.0008 48.7622C24.8501 51.7698 27.7094 54.2331 29.8598 55.9454C30.569 56.5101 31.1984 56.991 31.7217 57.3808C32.2449 56.991 32.8743 56.5101 33.5835 55.9454C35.7339 54.2331 38.5932 51.7698 41.4425 48.7622C47.2626 42.6188 52.5052 34.7654 52.5052 26.7216C52.5052 21.2095 50.3155 15.9232 46.4178 12.0255C42.5201 8.12783 37.2338 5.93814 31.7217 5.93814ZM31.7217 61.0309C30.0747 63.5013 30.074 63.5009 30.0731 63.5003L30.0652 63.495L30.047 63.4828L29.9853 63.441C29.9331 63.4056 29.859 63.3549 29.7644 63.2894C29.5753 63.1584 29.3041 62.968 28.9627 62.7214C28.2801 62.2284 27.3148 61.5096 26.1608 60.5907C23.8576 58.7566 20.7788 56.1065 17.69 52.8461C11.6337 46.4534 5 37.1522 5 26.7216C5 19.6346 7.81531 12.8379 12.8266 7.82659C17.8379 2.81531 24.6346 0 31.7217 0C38.8087 0 45.6054 2.81531 50.6167 7.82659C55.628 12.8379 58.4433 19.6346 58.4433 26.7216C58.4433 37.1522 51.8096 46.4534 45.7533 52.8461C42.6645 56.1065 39.5857 58.7566 37.2825 60.5907C36.1285 61.5096 35.1632 62.2284 34.4806 62.7214C34.1392 62.968 33.868 63.1584 33.6789 63.2894C33.5843 63.3549 33.5102 63.4056 33.458 63.441L33.3963 63.4828L33.3781 63.495L33.3702 63.5003C33.3693 63.5009 33.3686 63.5013 31.7217 61.0309ZM31.7217 61.0309L33.3686 63.5013C32.3713 64.1662 31.072 64.1662 30.0747 63.5013L31.7217 61.0309Z" fill="white"/>
<path fill-rule="evenodd" clip-rule="evenodd" d="M31.7216 21.7732C28.9886 21.7732 26.7731 23.9887 26.7731 26.7217C26.7731 29.4546 28.9886 31.6701 31.7216 31.6701C34.4545 31.6701 36.67 29.4546 36.67 26.7217C36.67 23.9887 34.4545 21.7732 31.7216 21.7732ZM20.835 26.7217C20.835 20.7092 25.7091 15.8351 31.7216 15.8351C37.7341 15.8351 42.6082 20.7092 42.6082 26.7217C42.6082 32.7342 37.7341 37.6083 31.7216 37.6083C25.7091 37.6083 20.835 32.7342 20.835 26.7217Z" fill="#FFC700"/>
</g>
<defs>
<clipPath id="clip0">
<rect width="64" height="64" fill="white"/>
</clipPath>
</defs>
</svg>
