<svg width="64" height="64" viewBox="0 0 64 64" fill="none" xmlns="http://www.w3.org/2000/svg">
<g clip-path="url(#clip0)">
<path fill-rule="evenodd" clip-rule="evenodd" d="M46.686 46.6868C47.8456 45.5273 49.7255 45.5273 50.885 46.6868L54.6327 50.4345C55.7923 51.594 55.7923 53.474 54.6327 54.6335C53.4732 55.793 51.5933 55.793 50.4338 54.6335L46.686 50.8858C45.5265 49.7262 45.5265 47.8463 46.686 46.6868Z" fill="#FFC700"/>
<g opacity="0.4">
<path fill-rule="evenodd" clip-rule="evenodd" d="M32.0004 52.7847C33.6402 52.7847 34.9695 54.114 34.9695 55.7538V61.0323C34.9695 62.6721 33.6402 64.0014 32.0004 64.0014C30.3606 64.0014 29.0312 62.6721 29.0312 61.0323V55.7538C29.0312 54.114 30.3606 52.7847 32.0004 52.7847Z" fill="white"/>
<path fill-rule="evenodd" clip-rule="evenodd" d="M17.3124 46.6865C18.4719 47.8461 18.4719 49.726 17.3124 50.8855L13.5647 54.6332C12.4052 55.7927 10.5253 55.7927 9.36573 54.6332C8.20621 53.4737 8.20621 51.5938 9.36573 50.4342L13.1134 46.6865C14.273 45.527 16.1529 45.527 17.3124 46.6865Z" fill="white"/>
<path fill-rule="evenodd" clip-rule="evenodd" d="M52.7852 32.0009C52.7852 30.3611 54.1145 29.0317 55.7543 29.0317H61.0327C62.6726 29.0317 64.0019 30.3611 64.0019 32.0009C64.0019 33.6407 62.6726 34.97 61.0327 34.97H55.7543C54.1145 34.97 52.7852 33.6407 52.7852 32.0009Z" fill="white"/>
<path fill-rule="evenodd" clip-rule="evenodd" d="M0 32.0008C0 30.361 1.32933 29.0317 2.96913 29.0317H8.24759C9.8874 29.0317 11.2167 30.361 11.2167 32.0008C11.2167 33.6406 9.8874 34.9699 8.24759 34.9699H2.96913C1.32933 34.9699 0 33.6406 0 32.0008Z" fill="white"/>
<path fill-rule="evenodd" clip-rule="evenodd" d="M32.0006 21.7736C26.3524 21.7736 21.7736 26.3524 21.7736 32.0006C21.7736 37.6489 26.3524 42.2277 32.0006 42.2277C37.6489 42.2277 42.2277 37.6489 42.2277 32.0006C42.2277 26.3524 37.6489 21.7736 32.0006 21.7736ZM15.8354 32.0006C15.8354 23.0728 23.0728 15.8354 32.0006 15.8354C40.9285 15.8354 48.1659 23.0728 48.1659 32.0006C48.1659 40.9285 40.9285 48.1659 32.0006 48.1659C23.0728 48.1659 15.8354 40.9285 15.8354 32.0006Z" fill="white"/>
<path fill-rule="evenodd" clip-rule="evenodd" d="M54.633 9.3682C55.7925 10.5277 55.7925 12.4077 54.633 13.5672L50.8853 17.3149C49.7258 18.4744 47.8458 18.4744 46.6863 17.3149C45.5268 16.1554 45.5268 14.2754 46.6863 13.1159L50.434 9.3682C51.5935 8.20868 53.4735 8.20868 54.633 9.3682Z" fill="white"/>
<path fill-rule="evenodd" clip-rule="evenodd" d="M9.36573 9.36817C10.5253 8.20866 12.4052 8.20866 13.5647 9.36817L17.3124 13.1159C18.4719 14.2754 18.4719 16.1553 17.3124 17.3149C16.1529 18.4744 14.273 18.4744 13.1134 17.3149L9.36573 13.5672C8.20621 12.4076 8.20621 10.5277 9.36573 9.36817Z" fill="white"/>
<path fill-rule="evenodd" clip-rule="evenodd" d="M32.0004 0C33.6402 0 34.9695 1.32933 34.9695 2.96913V8.24759C34.9695 9.8874 33.6402 11.2167 32.0004 11.2167C30.3606 11.2167 29.0312 9.8874 29.0312 8.24759V2.96913C29.0312 1.32933 30.3606 0 32.0004 0Z" fill="white"/>
</g>
</g>
<defs>
<clipPath id="clip0">
<rect width="64" height="64" fill="white"/>
</clipPath>
</defs>
</svg>
