<svg width="64" height="64" viewBox="0 0 64 64" fill="none" xmlns="http://www.w3.org/2000/svg">
<path d="M55.9998 30.6666C55.9998 35.8213 51.8212 40 46.6665 40C41.5118 40 37.3332 35.8213 37.3332 30.6666C37.3332 25.512 41.5118 21.3333 46.6665 21.3333C51.8212 21.3333 55.9998 25.512 55.9998 30.6666ZM50.6665 30.6666C50.6665 28.4575 48.8756 26.6666 46.6665 26.6666C44.4574 26.6666 42.6665 28.4575 42.6665 30.6666C42.6665 32.8758 44.4574 34.6666 46.6665 34.6666C48.8756 34.6666 50.6665 32.8758 50.6665 30.6666Z" fill="#FFC700"/>
<path d="M53.3332 53.3333C53.3332 54.8061 54.5271 56 55.9998 56C57.4726 56 58.6665 54.8061 58.6665 53.3333C58.6665 46.7059 53.2939 42.6666 46.6665 42.6666C40.0391 42.6666 34.6665 46.7059 34.6665 53.3333C34.6665 54.8061 35.8604 56 37.3332 56C38.8059 56 39.9998 54.8061 39.9998 53.3333C39.9998 49.6514 42.9846 48 46.6665 48C50.3484 48 53.3332 49.6514 53.3332 53.3333Z" fill="#FFC700"/>
<g opacity="0.4">
<path d="M29.3335 18.6667C29.3335 24.5577 24.5579 29.3333 18.6668 29.3333C12.7758 29.3333 8.00016 24.5577 8.00016 18.6667C8.00016 12.7756 12.7758 8 18.6668 8C24.5579 8 29.3335 12.7756 29.3335 18.6667ZM24.0002 18.6667C24.0002 15.7211 21.6123 13.3333 18.6668 13.3333C15.7213 13.3333 13.3335 15.7211 13.3335 18.6667C13.3335 21.6122 15.7213 24 18.6668 24C21.6123 24 24.0002 21.6122 24.0002 18.6667Z" fill="white"/>
<path d="M29.3335 56C27.8607 56 26.6668 54.8061 26.6668 53.3333V45.3333C26.6668 40.9151 23.0851 37.3333 18.6668 37.3333C14.2486 37.3333 10.6668 40.9151 10.6668 45.3333V53.3333C10.6668 54.8061 9.47292 56 8.00016 56C6.5274 56 5.3335 54.8061 5.3335 53.3333V45.3333C5.3335 37.9695 11.303 32 18.6668 32C26.0306 32 32.0002 37.9695 32.0002 45.3333V53.3333C32.0002 54.8061 30.8063 56 29.3335 56Z" fill="white"/>
</g>
</svg>
