<svg width="73" height="61" viewBox="0 0 73 61" fill="none" xmlns="http://www.w3.org/2000/svg">
<path d="M17.8356 17.5001C18.0591 17.3213 18.0889 16.9786 17.8952 16.77C17.7164 16.5466 17.3738 16.5168 17.1652 16.7105C13.8429 19.5262 11.5188 23.2358 10.461 27.4669V27.4818L10.0737 29.359C10.0588 29.4334 10.0588 29.5079 10.0737 29.5675C10.4461 29.359 10.8335 29.1504 11.2208 28.9418L11.4741 27.7202C12.4872 23.6977 14.6772 20.1668 17.8356 17.5001Z" fill="white"/>
<path d="M54.1133 23.2061L56.3033 31.4C56.3927 31.3553 56.4821 31.2957 56.5864 31.2361L54.5006 23.221C54.3516 23.221 54.2325 23.2061 54.1133 23.2061Z" fill="#FCFCFC"/>
<path d="M23.3189 37.7915L25.777 37.136L23.2891 32.6367L23.3189 37.7915Z" fill="#FCFCFC"/>
<path d="M59.4456 26.2897C58.8944 24.2188 56.7789 23.5335 55.2891 23.3101L57.2407 30.8038C58.4624 29.9248 59.9969 28.3009 59.4456 26.2897Z" fill="#FCFCFC"/>
<path d="M62.3506 18.2889L62.2461 18.2441C62.2461 18.2591 62.2461 18.274 62.2461 18.2889H62.4103C62.3954 18.3039 62.3805 18.2889 62.3506 18.2889Z" fill="#FCFCFC"/>
<path d="M30.0832 11.5266C30.2619 11.467 31.0217 11.5713 32.3924 12.7334C32.9585 13.2101 33.4501 13.3442 33.8077 13.3442C34.1057 13.3442 34.3291 13.2548 34.4632 13.1803C35.0442 12.8674 35.3273 12.1672 35.223 11.3031C35.1932 11.0201 35.2975 10.9307 35.3273 10.9009C35.4465 10.7966 35.6551 10.7668 35.8338 10.8264C36.1169 10.9009 36.4 10.7519 36.4745 10.4688C36.5489 10.1858 36.4 9.90271 36.1169 9.82822C35.6104 9.67924 35.0293 9.78353 34.642 10.1113C34.2695 10.4241 34.1057 10.9009 34.1801 11.4372C34.2397 11.8991 34.1057 12.1821 33.9567 12.2715C33.7779 12.3758 33.4203 12.2417 33.0628 11.9289C30.7685 9.97721 29.7554 10.4688 29.5021 10.6476C29.2787 10.8264 29.2191 11.1542 29.3979 11.3776C29.5617 11.6011 29.8448 11.6607 30.0832 11.5266Z" fill="white"/>
<path d="M40.3175 10.1547C40.3175 10.1547 40.7644 10.3782 41.7328 11.1529C41.9116 11.2869 43.4461 12.5086 44.2059 12.7917C44.7422 12.9853 45.3084 12.9406 45.7404 12.6427C46.1129 12.3745 46.3363 11.9574 46.3363 11.4955C46.3363 11.2572 46.4108 11.138 46.4406 11.1231C46.4555 11.1231 46.5598 11.1231 46.7386 11.2572C46.977 11.4359 47.1408 11.5998 47.3047 11.7488C47.5878 12.0319 47.8857 12.3149 48.5711 12.7172C49.0329 12.9853 49.4202 13.0896 49.748 13.0896C50.329 13.0896 50.6866 12.7619 50.8356 12.5682C51.3123 11.9723 51.2676 11.1976 50.6717 10.2739C50.3141 9.72265 50.2247 9.54387 50.2098 9.49917C50.1354 9.2757 49.897 9.12672 49.6586 9.15652C49.3755 9.18631 49.167 9.45448 49.1968 9.73754C49.2117 9.84183 49.2266 9.94612 49.7927 10.84C50.2843 11.5998 50.0907 11.8382 50.0311 11.9127C49.9715 11.9872 49.7778 12.2255 49.1074 11.8233C48.5413 11.4955 48.3029 11.2572 48.0347 11.0039C47.8559 10.84 47.6623 10.6463 47.3792 10.4229C46.9025 10.0653 46.3959 9.97591 45.9788 10.1845C45.5467 10.3931 45.2935 10.8847 45.2935 11.4806C45.2935 11.6147 45.2488 11.7041 45.1445 11.7786C44.9955 11.8829 44.7869 11.8829 44.5784 11.8084C44.1165 11.6296 42.9992 10.8102 42.3883 10.3335C41.3306 9.46938 40.824 9.21611 40.7644 9.20121C40.5112 9.08203 40.1983 9.18631 40.0791 9.45448C39.945 9.72265 40.0642 10.0355 40.3175 10.1547Z" fill="white"/>
<path d="M43.7443 45.2548C43.5059 45.0909 43.1782 45.1654 43.0292 45.4038C42.8653 45.6421 42.9398 45.9699 43.1782 46.1189C43.2825 46.1934 45.845 47.862 49.4503 48.592C49.4801 48.592 49.5248 48.6069 49.5546 48.6069C49.793 48.6069 50.0164 48.443 50.0611 48.1897C50.1207 47.9067 49.9419 47.6385 49.6589 47.5789C46.2621 46.8787 43.7741 45.2697 43.7443 45.2548Z" fill="white"/>
<path d="M32.7499 59.5715C29.4425 58.4691 26.9695 56.7707 26.9397 56.7409C26.7013 56.577 26.3735 56.6366 26.2097 56.875C26.0458 57.1134 26.1054 57.4411 26.3437 57.605C26.448 57.6795 28.9658 59.4077 32.4222 60.5697C32.4818 60.5846 32.5265 60.5995 32.586 60.5995C32.8095 60.5995 33.0032 60.4654 33.0777 60.242C33.1671 59.9589 33.0181 59.6609 32.7499 59.5715Z" fill="white"/>
<path d="M46.4264 57.9633C39.7968 56.4586 34.2696 53.5981 29.9789 49.4564C29.7703 49.2628 29.4426 49.2628 29.2489 49.4713C29.0552 49.6799 29.0552 50.0077 29.2638 50.2013C33.6886 54.4771 39.3945 57.4269 46.203 58.9614C46.2477 58.9763 46.2775 58.9763 46.3222 58.9763C46.5605 58.9763 46.7691 58.8125 46.8287 58.5741C46.8734 58.3059 46.6946 58.0229 46.4264 57.9633Z" fill="white"/>
<path d="M72.1253 23.2207L60.6687 26.2897C61.3689 29.8206 57.5103 32.2043 56.4823 32.6214C56.4078 32.6512 56.3333 32.6661 56.2588 32.6661C56.0205 32.6661 55.797 32.532 55.7076 32.2936C55.6629 32.1894 55.6629 32.0702 55.6778 31.9659L53.2792 22.9823C53.2047 22.8929 53.1451 22.7589 53.1451 22.6248C53.1302 22.297 53.3835 22.0139 53.7113 21.999C53.9347 21.9842 59.1044 21.8054 60.475 25.5597L71.9317 22.4907C69.0563 20.6433 66.1661 19.3472 63.0226 18.4533C63.0375 18.3937 63.0524 18.349 63.0375 18.2894C62.9481 16.8294 62.2777 15.6524 62.1883 15.5035C57.2123 6.23684 47.6626 0.813924 35.9676 0.605351C27.7438 0.456369 20.0415 3.48069 14.2908 9.12707C8.62956 14.6841 5.21789 22.3864 4.71135 30.7889C4.68155 31.1316 4.59217 32.2936 4.60706 32.5618C4.60706 32.6214 4.62196 32.6661 4.65176 32.7257C1.89561 34.4241 0.316406 35.5563 0.316406 35.5563L1.9552 41.6497L3.59399 47.743C3.59399 47.743 6.00749 47.9814 9.95549 48.0708C10.7749 49.0242 15.5125 54.4174 18.8199 56.6372C18.9093 56.6968 19.0135 56.7266 19.1029 56.7266C19.2668 56.7266 19.4307 56.6521 19.535 56.4882C19.6989 56.2498 19.6244 55.9221 19.386 55.7582C16.7043 53.9704 12.9202 49.8436 11.3559 48.0857C13.8737 48.1154 16.898 48.0708 20.2352 47.8771C22.6189 50.8716 25.5836 52.9424 27.0287 53.9555L27.3118 54.1492C27.4012 54.2088 27.5055 54.2386 27.6098 54.2386C27.7736 54.2386 27.9375 54.1641 28.0418 54.0151C28.2057 53.7767 28.1461 53.449 27.9226 53.2851L27.6396 53.0914C26.3285 52.1826 23.7362 50.3651 21.5313 47.7877C25.7326 47.5046 30.3957 46.9832 35.1631 46.0893C35.4611 46.3873 37.2935 48.1303 40.3774 49.9479C43.4167 51.7506 48.3032 53.9555 54.2774 54.2386C54.2923 54.2386 54.2923 54.2386 54.3072 54.2386C54.5902 54.2386 54.8137 54.0151 54.8286 53.7469C54.8435 53.4639 54.62 53.2106 54.337 53.1957C45.0853 52.7637 38.396 47.5344 36.4592 45.836C40.2881 45.0613 44.1616 44.0185 47.9308 42.6478C47.9606 42.6776 48.0053 42.6925 48.05 42.7074C49.3461 43.2587 54.039 45.0464 60.2515 45.2997H60.2664C60.5495 45.2997 60.773 45.0762 60.7879 44.7932C60.8028 44.5101 60.5793 44.2568 60.2813 44.2568C55.2607 44.0632 51.268 42.8266 49.3461 42.1115C51.0147 41.456 52.6535 40.7409 54.2476 39.9513C54.2923 39.9811 54.3519 40.0109 54.4115 40.0258C56.2141 40.4578 58.285 40.8899 60.8177 40.8899C61.7711 40.8899 62.7842 40.8303 63.8718 40.6813C64.1548 40.6366 64.3634 40.3833 64.3187 40.1003C64.274 39.8172 64.0208 39.6086 63.7377 39.6533C60.4154 40.1003 57.8827 39.7427 55.6331 39.2362C56.5866 38.7296 57.5103 38.1933 58.4191 37.6272C58.4489 37.6421 58.4787 37.657 58.5085 37.657C58.568 37.6719 59.0299 37.7613 60.6538 37.7613C61.2646 37.7613 62.0393 37.7464 63.0226 37.7166C63.3056 37.7017 63.5291 37.4633 63.5291 37.1802C63.5142 36.8972 63.2759 36.6737 62.9928 36.6737C61.4881 36.7333 60.475 36.7333 59.8344 36.7184C64.8551 33.3067 69.1755 28.9118 72.1253 23.2207ZM7.82506 40.3684L3.96645 41.3964C3.93665 41.4113 3.90685 41.4113 3.87706 41.4113C3.71318 41.4113 3.5642 41.307 3.5195 41.1282C3.45991 40.9346 3.57909 40.726 3.78767 40.6664L7.64628 39.6384C7.83996 39.5788 8.04853 39.698 8.10812 39.9066C8.16771 40.1152 8.01873 40.3237 7.82506 40.3684ZM19.6691 42.0221C19.4158 42.0966 19.1476 42.0072 18.9986 41.7986L15.7211 37.2398L15.5423 42.186C15.5274 42.4393 15.3784 42.6478 15.14 42.7223C15.0804 42.7372 15.0209 42.7521 14.9464 42.7521C14.7676 42.7521 14.6037 42.6776 14.4845 42.5287L9.13609 35.9586C8.92752 35.7053 8.97221 35.3329 9.22548 35.1243C9.47875 34.9157 9.8512 34.9604 10.0598 35.2137L14.41 40.5621L14.5888 35.452C14.6037 35.1988 14.7676 34.9753 15.0059 34.9008C15.2443 34.8263 15.5125 34.9157 15.6615 35.1243L18.8646 39.5788L18.805 31.1018C18.805 30.774 19.0731 30.5059 19.4009 30.5059C19.7287 30.5059 19.9968 30.774 19.9968 31.1018L20.0713 41.456C20.0862 41.7093 19.9074 41.9327 19.6691 42.0221ZM28.4441 40.726C28.161 40.8899 27.7885 40.7856 27.6396 40.4876L26.3732 38.2082L23.334 39.0127L23.3489 41.2623C23.3489 41.5901 23.0807 41.8582 22.753 41.8582C22.4252 41.8582 22.157 41.5901 22.157 41.2623L22.0826 30.2675C22.0826 29.9993 22.2613 29.761 22.5295 29.6865C22.7977 29.612 23.0658 29.7312 23.1999 29.9695L28.6824 39.8917C28.8314 40.2045 28.7271 40.577 28.4441 40.726ZM36.4145 39.1468C36.2954 39.2511 36.1613 39.2958 36.0123 39.2958C35.8484 39.2958 35.6845 39.2362 35.5654 39.1021L31.1704 34.2006L30.3957 36.5098C30.3808 36.5396 30.3659 36.5694 30.351 36.6141L31.1704 39.6831C31.2598 39.996 31.0661 40.3237 30.7533 40.4131C30.7086 40.428 30.649 40.428 30.6043 40.428C30.3361 40.428 30.0977 40.2492 30.0233 39.9811L27.0138 28.8075C26.9244 28.4946 27.1181 28.1669 27.431 28.0775C27.7438 27.9881 28.0716 28.1818 28.161 28.4946L29.7998 34.5582L32.3027 27.1687C32.407 26.8558 32.7496 26.692 33.0625 26.7962C33.3753 26.9005 33.5392 27.2432 33.4349 27.556L31.6322 32.9045L36.4741 38.3125C36.6827 38.5509 36.6529 38.9233 36.4145 39.1468ZM42.6271 37.3441L38.6344 38.4764C38.5748 38.4913 38.5301 38.5062 38.4705 38.5062C38.3662 38.5062 38.2619 38.4764 38.1725 38.4317C38.0384 38.3572 37.9342 38.2231 37.8895 38.0741L34.88 26.7664C34.7907 26.4536 34.9843 26.1258 35.2972 26.0364L39.6176 24.8744C39.9305 24.785 40.2583 24.9787 40.3476 25.2915C40.437 25.6044 40.2434 25.9322 39.9305 26.0215L36.1911 27.0197L37.3829 31.504L40.4817 30.64C40.7946 30.5506 41.1224 30.7293 41.2117 31.0571C41.3011 31.37 41.1223 31.6977 40.7946 31.7871L37.6809 32.6661L38.8727 37.1653L42.2844 36.197C42.5973 36.1076 42.925 36.2863 43.0144 36.6141C43.1336 36.927 42.9399 37.2547 42.6271 37.3441ZM42.4185 16.0398C41.6289 15.2949 40.6754 14.5798 39.6921 14.3563C39.4091 14.2818 39.126 14.4606 39.0664 14.7437C38.9919 15.0267 39.1707 15.3098 39.4538 15.3694C40.8989 15.7269 42.4483 17.5147 43.1187 18.3639C43.0889 18.6321 42.9548 18.8555 42.7313 19.0045C42.2695 19.2876 41.4054 19.228 40.735 18.5278C39.4091 17.1572 38.3066 17.0678 37.7107 17.4402C37.2041 17.7531 37.0403 18.3937 37.2935 19.0939C37.5021 19.6898 37.3978 20.1815 37.0105 20.4347C36.5635 20.7178 35.7292 20.6731 34.9098 19.8835C34.7907 19.7643 34.6864 19.66 34.5821 19.5409L33.6435 18.2894C32.8241 17.2317 32.3623 16.7698 32.3474 16.7549C30.9618 15.3694 30.0679 15.6078 29.7402 15.7865C29.2634 16.0398 29.04 16.591 29.1592 17.2465C29.2337 17.6488 29.2039 17.9319 29.0847 18.0808C28.9655 18.2298 28.742 18.3192 28.3994 18.349C27.4459 18.4235 26.8649 17.6488 25.822 16.159C25.3005 15.4141 24.7195 14.5649 23.9448 13.7306C21.5313 11.1085 18.0601 12.36 17.9111 12.4047C17.6429 12.5089 17.5088 12.8069 17.5982 13.0751C17.7025 13.3432 18.0005 13.4773 18.2686 13.3879C18.3878 13.3432 21.2334 12.3302 23.1701 14.4308C23.8852 15.2204 24.4514 16.0249 24.9579 16.74C25.0473 16.8741 25.1367 16.9933 25.2261 17.1274C21.2483 16.6059 19.1029 19.4515 19.0731 19.4813C18.9093 19.7196 18.954 20.0325 19.1774 20.2113C19.2668 20.2858 19.386 20.3156 19.4903 20.3156C19.6542 20.3156 19.8031 20.2411 19.9074 20.107C19.9968 19.9878 22.1422 17.2019 26.2391 18.4235C26.85 19.0641 27.5353 19.4664 28.4738 19.3919C29.1294 19.3472 29.6061 19.1237 29.9041 18.7215C30.2169 18.3192 30.3063 17.768 30.1871 17.0529C30.1573 16.8443 30.1871 16.7251 30.2318 16.7102C30.3063 16.6655 30.7831 16.6804 31.6173 17.4998C31.6173 17.4998 32.0643 17.9468 32.8241 18.93L33.3604 19.6451C24.9281 22.0884 17.1364 25.7534 11.2367 28.9416C10.8494 29.1501 10.462 29.3587 10.0896 29.5673C8.43588 30.4761 6.96097 31.3402 5.67973 32.1149C5.69463 31.7871 5.73932 31.3104 5.76912 30.8783C6.26076 22.4907 9.70222 15.1757 15.0059 9.96137C18.507 7.50318 21.5909 8.41196 21.725 8.45666C21.9932 8.54605 22.2911 8.39707 22.3805 8.114C22.4699 7.84584 22.3209 7.54787 22.0379 7.45848C21.9336 7.42869 20.2203 6.90725 17.8664 7.48828C19.5499 6.20704 21.3674 5.11948 23.3042 4.24049C31.5727 2.5868 38.2619 6.11765 38.3513 6.16235C38.4258 6.20704 38.5152 6.22194 38.6046 6.22194C38.7833 6.22194 38.9621 6.11765 39.0664 5.95378C39.2005 5.70051 39.1111 5.38765 38.8578 5.25356C38.6195 5.11948 33.8968 2.6166 27.3565 2.76558C29.9041 2.03557 32.6155 1.64822 35.4164 1.64822C35.5951 1.64822 35.7739 1.64822 35.9676 1.64822C47.2753 1.85679 56.5121 7.08603 61.2944 16.01C61.2944 16.0249 61.3093 16.0249 61.3093 16.0398C61.3093 16.0547 61.9499 17.0976 62.0244 18.3639C62.0244 18.3788 62.0244 18.3937 62.0244 18.4086C61.9648 18.6321 61.786 18.8258 61.5924 19.0045C61.3987 19.1833 61.205 19.2578 60.9666 19.2578C60.5495 19.2429 59.8046 18.9449 58.5829 17.6339C58.3893 17.4253 58.1956 17.2614 58.0019 17.1125C56.4078 15.1608 54.5158 14.1477 54.4264 14.103C54.1731 13.969 53.8602 14.0732 53.7262 14.3265C53.5921 14.5798 53.6964 14.8926 53.9496 15.0267C53.9645 15.0416 55.0372 15.6078 56.1993 16.7102C56.1844 16.7251 56.1545 16.7251 56.1396 16.74C55.5288 17.0082 55.1862 17.6935 55.2458 18.5725C55.2607 18.9151 55.1117 19.1684 54.8286 19.2578C54.337 19.4217 53.5027 19.1386 52.8174 18.1255C51.8788 16.7102 50.5231 16.3974 49.6739 16.8145C48.9141 17.187 48.631 18.0361 48.9439 18.9896C49.1822 19.7047 48.9588 20.3752 48.4075 20.6731C47.7669 21.0158 46.59 20.837 45.3832 19.228L44.2212 17.917L43.3273 16.9784C43.0591 16.6804 42.7611 16.3676 42.4185 16.0398ZM45.5024 36.629C45.3683 36.7631 45.2044 36.8376 45.0257 36.8376H45.0108C44.6383 36.8376 44.3254 36.5396 44.3254 36.1672C44.3254 35.9884 44.385 35.8096 44.5191 35.6904C44.6532 35.5563 44.8171 35.4818 45.0108 35.4818H45.0257C45.3981 35.4818 45.711 35.7798 45.711 36.1523C45.6961 36.331 45.6365 36.4949 45.5024 36.629ZM53.5921 33.992C53.2792 34.0814 52.9515 33.8877 52.8621 33.5749L50.7763 25.7683L49.8526 29.8504C49.808 30.0589 49.6441 30.2377 49.4206 30.2973C49.212 30.3569 48.9737 30.2824 48.8247 30.1334L45.711 26.7664L48.0351 35.4074C48.1245 35.7202 47.9308 36.048 47.6179 36.1374C47.5732 36.1523 47.5136 36.1523 47.4689 36.1523C47.2008 36.1523 46.9624 35.9735 46.8879 35.7053L43.9381 24.7403C43.8636 24.4721 43.9828 24.1891 44.2212 24.0699C44.4595 23.9358 44.7575 23.9805 44.9512 24.1891L48.9439 28.4946L50.1506 23.176C50.2102 22.9078 50.4486 22.7142 50.7167 22.7142C50.9849 22.7142 51.2382 22.8929 51.2978 23.1611L54.0092 33.2918C54.0986 33.5749 53.9198 33.9026 53.5921 33.992Z" fill="white"/>
</svg>
