<svg width="375" height="593" viewBox="0 0 375 593" fill="none" xmlns="http://www.w3.org/2000/svg">
<path d="M205.294 445.97C205.058 445.802 204.755 445.869 204.587 446.104C204.419 446.34 204.486 446.642 204.722 446.811C204.957 446.979 210.68 450.679 218.726 452.327C218.76 452.327 218.794 452.327 218.827 452.327C219.063 452.327 219.265 452.159 219.332 451.923C219.4 451.654 219.198 451.385 218.928 451.318C211.084 449.737 205.328 446.003 205.294 445.97Z" fill="url(#paint0_radial)"/>
<path d="M197.787 477.89C190.178 475.367 184.455 471.432 184.421 471.398C184.186 471.23 183.883 471.297 183.714 471.532C183.546 471.768 183.613 472.071 183.849 472.239C183.916 472.272 189.707 476.275 197.484 478.865C197.551 478.899 197.585 478.899 197.652 478.899C197.854 478.899 198.056 478.764 198.123 478.562C198.191 478.293 198.056 477.99 197.787 477.89Z" fill="url(#paint1_radial)"/>
<path d="M242.124 449.67C231.284 449.031 225.998 446.945 220.915 444.927L220.814 444.893C220.544 444.792 220.241 444.927 220.14 445.196C220.039 445.465 220.174 445.768 220.443 445.869L220.544 445.902C225.493 447.853 231.082 450.04 242.09 450.712H242.124C242.393 450.712 242.629 450.51 242.629 450.241C242.595 449.939 242.393 449.703 242.124 449.67Z" fill="url(#paint2_radial)"/>
<path d="M211.589 474.896C196.406 471.465 183.714 464.906 173.884 455.421C173.682 455.219 173.346 455.219 173.177 455.421C172.975 455.623 172.975 455.959 173.177 456.128C183.142 465.747 196.002 472.373 211.354 475.871C211.387 475.871 211.421 475.871 211.455 475.871C211.69 475.871 211.892 475.703 211.96 475.468C212.027 475.232 211.859 474.963 211.589 474.896Z" fill="url(#paint3_radial)"/>
<path d="M168.094 476.914C163.482 475.131 158.432 471.129 158.398 471.095C158.196 470.927 157.859 470.961 157.691 471.163C157.523 471.398 157.556 471.701 157.758 471.869C157.96 472.037 162.943 476.006 167.723 477.856C167.791 477.89 167.858 477.89 167.892 477.89C168.094 477.89 168.296 477.755 168.363 477.553C168.498 477.284 168.363 477.015 168.094 476.914Z" fill="url(#paint4_radial)"/>
<path d="M231.385 394.979L236.165 413.344C239.161 411.325 243.201 407.356 241.821 402.21C240.44 396.963 234.919 395.416 231.385 394.979Z" fill="url(#paint5_radial)"/>
<path d="M158.701 429.118L165.569 427.302L158.6 414.723L158.701 429.118Z" fill="url(#paint6_radial)"/>
<path d="M228.725 394.81L234.01 414.588C234.347 414.453 234.785 414.218 235.29 413.915L230.307 394.878C229.6 394.81 229.062 394.81 228.725 394.81Z" fill="url(#paint7_radial)"/>
<path d="M259.832 387.781C256.129 386.133 252.291 384.787 248.217 383.677C248.184 383.173 248.116 382.668 248.049 382.231C252.021 383.543 255.96 385.494 259.832 387.781ZM190.818 414.823L198.359 412.704C198.797 412.57 199.268 412.839 199.402 413.276C199.537 413.713 199.268 414.184 198.83 414.319L191.255 416.438L194.252 427.638L202.5 425.284C202.937 425.149 203.409 425.419 203.543 425.856C203.678 426.293 203.409 426.764 202.971 426.898L193.881 429.488C193.814 429.522 193.713 429.522 193.646 429.522C193.511 429.522 193.343 429.488 193.242 429.421C193.04 429.32 192.905 429.118 192.838 428.917L186.004 403.253C185.869 402.816 186.138 402.345 186.61 402.21L196.406 399.587C196.844 399.452 197.315 399.721 197.45 400.192C197.585 400.629 197.315 401.1 196.844 401.235L187.855 403.657L190.818 414.823ZM158.768 436.35C158.768 436.821 158.398 437.191 157.927 437.191C157.455 437.191 157.085 436.821 157.085 436.35L156.917 411.393C156.917 410.989 157.186 410.653 157.556 410.552C157.927 410.451 158.331 410.619 158.499 410.955L170.955 433.491C171.191 433.895 171.023 434.399 170.619 434.635C170.215 434.87 169.71 434.702 169.474 434.298L166.41 428.782L158.735 430.834L158.768 436.35ZM114.499 435.98C114.431 435.711 114.6 435.442 114.869 435.375L123.655 433.02C123.925 432.953 124.194 433.121 124.295 433.39C124.362 433.659 124.194 433.928 123.925 433.996L115.138 436.35C115.105 436.35 115.037 436.384 115.004 436.384C114.768 436.35 114.566 436.215 114.499 435.98ZM127.493 422.761C127.864 422.459 128.402 422.526 128.672 422.896L139.411 436.081L139.882 423.131C139.882 422.761 140.151 422.459 140.488 422.358C140.825 422.257 141.195 422.391 141.431 422.66L149.612 434.096L149.477 413.243C149.477 412.772 149.847 412.402 150.318 412.402C150.79 412.402 151.16 412.772 151.16 413.243L151.328 436.754C151.328 437.124 151.093 437.46 150.756 437.561C150.419 437.662 150.015 437.561 149.813 437.258L141.498 425.688L141.027 438.402C141.027 438.738 140.791 439.074 140.454 439.175C140.353 439.209 140.286 439.209 140.185 439.209C139.95 439.209 139.68 439.108 139.512 438.906L127.325 423.972C127.056 423.602 127.123 423.064 127.493 422.761ZM176.577 432.852C176.712 433.289 176.443 433.76 175.971 433.895C175.904 433.928 175.837 433.928 175.736 433.928C175.365 433.928 175.029 433.693 174.928 433.289L168.094 407.895C167.959 407.457 168.228 406.986 168.7 406.852C169.137 406.717 169.609 406.986 169.743 407.457L173.884 422.829L180.079 404.464C180.213 404.027 180.718 403.791 181.156 403.926C181.594 404.06 181.829 404.565 181.694 405.002L177.486 417.447L188.697 429.959C189 430.296 188.966 430.834 188.63 431.17C188.461 431.305 188.259 431.372 188.057 431.372C187.822 431.372 187.586 431.271 187.418 431.103L176.847 419.297L174.793 425.385C174.759 425.486 174.692 425.587 174.625 425.688L176.577 432.852ZM207.112 424.78C207.112 424.41 207.246 424.073 207.482 423.804C207.751 423.535 208.088 423.367 208.458 423.367H208.492C209.266 423.367 209.872 423.972 209.906 424.712C209.906 425.082 209.771 425.419 209.502 425.688C209.233 425.957 208.896 426.091 208.526 426.125H208.492C207.751 426.125 207.146 425.52 207.112 424.78ZM227.917 419.331C227.479 419.465 227.008 419.196 226.873 418.725L221.588 399.015L219.029 410.283C218.962 410.585 218.726 410.821 218.423 410.922C218.12 410.989 217.784 410.922 217.582 410.686L209.098 401.538L214.922 423.131C215.057 423.569 214.788 424.04 214.316 424.174C214.249 424.208 214.182 424.208 214.081 424.208C213.71 424.208 213.374 423.972 213.273 423.569L206.573 398.645C206.472 398.275 206.641 397.871 206.977 397.669C207.314 397.468 207.751 397.535 208.021 397.838L217.75 408.332L220.713 395.315C220.814 394.945 221.117 394.676 221.521 394.642C221.891 394.642 222.261 394.878 222.362 395.281L228.523 418.288C228.624 418.759 228.355 419.196 227.917 419.331ZM139.849 364.741C148.13 358.888 155.705 361.142 155.772 361.175C156.042 361.276 156.311 361.108 156.412 360.839C156.513 360.57 156.345 360.301 156.075 360.2C155.806 360.099 150.251 358.417 143.282 361.579C147.996 357.543 153.247 354.179 158.937 351.623C178.059 347.788 193.511 355.962 193.679 356.029C193.747 356.063 193.848 356.096 193.915 356.096C194.083 356.096 194.285 355.995 194.353 355.827C194.487 355.592 194.386 355.289 194.151 355.155C194.016 355.087 180.449 347.889 162.943 349.975C170.316 347.217 178.294 345.703 186.677 345.703C187.081 345.703 187.519 345.703 187.923 345.703C213.037 346.14 234.886 359.123 246.298 380.448C246.298 380.448 247.14 381.962 247.14 384.014C247.106 384.888 246.837 385.594 246.366 386.032C245.861 386.503 245.322 386.704 244.682 386.704C243.201 386.671 241.316 385.393 239.027 382.904C238.959 382.836 238.926 382.803 238.858 382.735C238.858 382.735 238.858 382.702 238.825 382.702C235.155 377.825 229.701 375.336 229.466 375.235C229.196 375.134 228.893 375.235 228.792 375.504C228.691 375.773 228.792 376.076 229.062 376.177C229.095 376.21 232.563 377.791 235.761 380.818C235.088 380.65 234.414 380.684 233.808 380.953C232.563 381.491 231.856 382.904 231.991 384.787C232.058 385.729 231.62 386.435 230.812 386.704C229.567 387.108 227.479 386.435 225.863 383.98C223.844 380.953 220.948 380.246 219.13 381.121C217.548 381.895 216.976 383.677 217.649 385.662C218.255 387.444 217.683 389.126 216.269 389.9C214.687 390.741 211.825 390.337 208.963 386.536L206.338 383.543C205.765 382.836 200.917 377.085 196.171 375.907C195.901 375.84 195.632 376.008 195.565 376.277C195.497 376.547 195.666 376.816 195.935 376.883C199.032 377.623 202.331 380.684 204.149 382.601L204.183 382.668C204.722 384.182 204.419 385.393 203.375 386.065C202.163 386.805 200.076 386.671 198.392 384.922C195.531 381.962 193.141 381.794 191.929 382.5C190.919 383.139 190.582 384.417 191.121 385.863C191.659 387.343 191.39 388.554 190.448 389.16C189.37 389.832 187.317 389.698 185.33 387.747C184.792 387.209 184.421 386.805 184.051 386.334L183.782 386.032L182.267 384.316C180.382 382.265 179.439 381.155 179.439 381.155C179.439 381.155 179.439 381.121 179.405 381.121C177.385 379.103 175.365 378.329 174.019 379.036C173.177 379.473 172.773 380.415 172.975 381.592C173.177 382.702 173.076 383.509 172.672 384.047C172.302 384.552 171.595 384.821 170.619 384.888C167.959 385.09 166.377 382.803 164.155 379.607C162.977 377.926 161.664 376.042 159.947 374.158C154.762 368.541 147.053 371.299 146.986 371.333C146.716 371.434 146.582 371.737 146.683 371.972C146.784 372.241 147.087 372.376 147.322 372.275C147.39 372.241 154.459 369.719 159.206 374.831C160.182 375.874 161.024 376.95 161.765 377.993C155.974 375.168 149.241 378.666 149.174 378.733C148.938 378.867 148.837 379.17 148.972 379.406C149.106 379.641 149.409 379.742 149.645 379.607C149.712 379.574 157.792 375.369 163.381 380.28C163.953 381.121 164.525 381.895 165.064 382.601C158.061 382.332 152.709 389.597 152.473 389.933C152.305 390.169 152.372 390.472 152.574 390.64C152.675 390.707 152.776 390.741 152.877 390.741C153.045 390.741 153.18 390.673 153.281 390.539C153.348 390.472 159.071 382.635 166.007 383.711C167.319 385.124 168.733 385.998 170.652 385.83C171.932 385.729 172.874 385.325 173.447 384.585C174.052 383.812 174.221 382.769 173.951 381.356C173.817 380.65 174.019 380.112 174.456 379.876C175.163 379.506 176.645 379.776 178.631 381.76C178.732 381.861 179.473 382.702 180.853 384.215C165.266 388.521 150.554 394.743 138.199 400.898C139.916 397.602 141.868 394.844 144.124 392.523C144.326 392.322 144.326 391.985 144.124 391.817C143.922 391.615 143.585 391.615 143.417 391.817C140.825 394.474 138.637 397.703 136.718 401.638V401.672C135.034 402.513 133.385 403.388 131.803 404.228C134.226 395.416 139.175 387.646 146.178 381.76C146.38 381.592 146.413 381.255 146.245 381.054C146.077 380.852 145.74 380.818 145.538 380.986C138.132 387.243 132.947 395.483 130.591 404.901C126.113 407.289 122.073 409.576 118.538 411.695C120.053 392.927 127.864 376.513 139.849 364.741ZM111.368 450.41L103.86 422.425C107.328 419.97 141.7 396.122 181.762 385.157L182.873 386.402C141.936 398.039 106.924 422.694 106.554 422.93L106.251 423.131L113.59 450.477L111.368 450.41ZM270.908 393.902C263.602 388.723 255.725 383.543 247.712 381.087C247.477 380.381 247.241 379.977 247.207 379.944C241.551 369.382 233.101 360.57 222.8 354.415C212.465 348.259 200.412 344.896 187.956 344.66C187.519 344.66 187.115 344.66 186.677 344.66C168.632 344.66 151.8 351.455 139.175 363.832C126.483 376.277 118.808 393.532 117.596 412.402C108.573 417.817 103.12 421.719 102.985 421.82C102.817 421.954 102.749 422.156 102.783 422.358L110.459 451.049C110.526 451.25 110.694 451.419 110.93 451.419L114.263 451.553C114.835 451.62 120.861 452.159 130.254 452.293C131.331 453.773 140.421 465.848 149.309 470.692C149.376 470.725 149.477 470.759 149.544 470.759C149.712 470.759 149.914 470.658 149.982 470.49C150.116 470.254 150.015 469.952 149.78 469.817C141.969 465.545 133.721 455.186 131.533 452.327C132.678 452.327 133.856 452.36 135.068 452.36C138.064 452.36 141.363 452.327 144.831 452.192C146.481 454.648 149.477 458.347 154.392 462.215C154.493 462.283 154.594 462.316 154.695 462.316C154.83 462.316 154.998 462.249 155.099 462.115C155.267 461.879 155.234 461.576 154.998 461.408C150.52 457.91 147.659 454.513 146.009 452.125C148.467 452.024 151.059 451.923 153.685 451.755C159.105 458.751 166.04 463.561 169.373 465.882L170.013 466.319C170.114 466.386 170.215 466.42 170.316 466.42C170.484 466.42 170.619 466.353 170.72 466.218C170.888 465.983 170.821 465.68 170.585 465.512L169.945 465.075C166.747 462.855 160.182 458.247 154.931 451.688C162.64 451.183 171.023 450.342 179.641 448.93C182.132 448.526 184.556 448.089 186.98 447.618C187.014 447.651 187.014 447.685 187.047 447.719C187.216 447.887 203.779 463.931 229.466 465.108C229.466 465.108 229.466 465.108 229.499 465.108C229.769 465.108 230.004 464.906 230.004 464.637C230.004 464.368 229.802 464.133 229.533 464.099C206.472 463.023 190.885 449.804 188.192 447.382C198.561 445.297 208.155 442.606 216.908 439.31C222.295 441.563 231.183 444.355 243.033 444.826C243.033 444.826 243.033 444.826 243.066 444.826C243.336 444.826 243.571 444.624 243.571 444.355C243.571 444.086 243.369 443.851 243.1 443.817C232.091 443.38 223.709 440.924 218.322 438.772C222.935 436.989 227.277 435.038 231.385 432.919C231.418 432.953 231.452 432.953 231.486 432.953L231.654 432.987C235.525 433.928 239.262 434.803 244.346 434.803C246.399 434.803 248.655 434.668 251.213 434.332C251.483 434.298 251.685 434.029 251.651 433.76C251.617 433.491 251.348 433.289 251.079 433.323C242.73 434.433 237.747 433.39 232.731 432.213C235.593 430.699 238.32 429.085 240.945 427.369C241.114 427.538 241.551 427.706 244.211 427.706C245.423 427.706 247.073 427.672 249.362 427.605C249.631 427.605 249.867 427.369 249.867 427.067C249.867 426.798 249.631 426.562 249.328 426.562C244.75 426.73 242.831 426.663 242.056 426.629C254.984 417.985 264.713 407.289 271.076 394.676C271.076 394.676 270.975 394.743 270.807 394.81C270.504 394.911 269.696 395.113 269.696 395.113L243.571 402.109C245.356 409.946 236.737 415.294 234.448 416.203C234.347 416.236 234.246 416.27 234.145 416.27C233.808 416.27 233.505 416.068 233.371 415.732V415.698C233.337 415.631 233.303 415.597 233.27 415.53L227.547 394.037C227.479 393.835 227.58 393.633 227.715 393.532C227.85 393.297 228.119 393.129 228.422 393.129C228.927 393.095 240.542 392.691 243.369 401.168L269.527 394.171C269.527 394.171 270.335 393.936 270.638 393.869C270.706 393.835 270.908 393.902 270.908 393.902Z" fill="url(#paint8_radial)"/>
<path d="M174.254 368.171C174.254 368.171 175.87 367.263 180.281 370.997C181.257 371.804 182.233 372.241 183.075 372.241C183.479 372.241 183.849 372.14 184.219 371.972C185.297 371.4 185.802 370.055 185.6 368.373C185.532 367.7 185.667 367.196 186.071 366.86C186.509 366.49 187.216 366.355 187.855 366.557C188.125 366.624 188.394 366.49 188.495 366.221C188.562 365.951 188.428 365.682 188.158 365.581C187.216 365.312 186.138 365.514 185.431 366.086C184.792 366.658 184.489 367.499 184.623 368.508C184.792 369.719 184.455 370.694 183.782 371.064C183.075 371.434 182.065 371.131 180.988 370.223C175.938 365.918 173.918 367.196 173.716 367.364C173.48 367.532 173.447 367.869 173.615 368.07C173.716 368.306 174.019 368.34 174.254 368.171Z" fill="url(#paint9_radial)"/>
<path d="M198.157 365.077C198.157 365.077 199.234 365.581 201.49 367.431C201.658 367.566 205.26 370.425 206.91 371.064C207.92 371.434 208.997 371.333 209.771 370.795C210.445 370.324 210.849 369.584 210.849 368.743C210.849 368.037 211.084 367.499 211.455 367.297C211.791 367.129 212.296 367.263 212.869 367.667C213.441 368.104 213.845 368.474 214.215 368.844C214.855 369.483 215.495 370.089 216.976 370.963C217.918 371.501 218.659 371.703 219.299 371.703C220.309 371.703 220.915 371.199 221.251 370.761C222.16 369.651 222.026 368.205 220.814 366.321C219.905 364.875 219.703 364.505 219.703 364.438C219.635 364.202 219.4 364.034 219.164 364.068C218.895 364.102 218.693 364.371 218.726 364.64C218.726 364.741 218.76 364.942 219.972 366.86C221.352 369.012 220.713 369.786 220.477 370.089C219.871 370.862 218.861 370.829 217.481 370.055C216.1 369.248 215.528 368.676 214.922 368.104C214.518 367.734 214.114 367.33 213.475 366.826C212.296 365.918 211.421 366.12 211.017 366.355C210.276 366.725 209.839 367.566 209.839 368.71C209.839 369.214 209.603 369.651 209.199 369.954C208.694 370.324 207.953 370.358 207.28 370.089C205.765 369.517 202.163 366.658 202.129 366.624C199.739 364.673 198.628 364.169 198.595 364.135C198.359 364.034 198.056 364.135 197.921 364.371C197.787 364.673 197.888 364.976 198.157 365.077Z" fill="url(#paint10_radial)"/>
<path d="M182.873 2.08539C182.637 2.08539 182.401 1.91721 182.368 1.64813C182.334 1.37905 182.536 1.10996 182.805 1.07633C188.226 0.336352 193.747 0 199.234 0C199.503 0 199.739 0.235447 199.739 0.504529C199.739 0.773611 199.503 1.00906 199.234 1.00906C193.78 1.00906 188.293 1.37904 182.94 2.08539C182.906 2.08539 182.873 2.08539 182.873 2.08539Z" fill="url(#paint11_radial)"/>
<path d="M-37.8034 121.39C-37.938 121.39 -38.039 121.356 -38.14 121.255C-38.342 121.053 -38.342 120.751 -38.1737 120.549C-32.8546 114.965 -26.9968 109.853 -20.7351 105.379C-20.4994 105.211 -20.1964 105.278 -20.0281 105.48C-19.8598 105.716 -19.9271 106.018 -20.1291 106.186C-26.3235 110.626 -32.1476 115.705 -37.4331 121.255C-37.534 121.322 -37.6687 121.39 -37.8034 121.39Z" fill="url(#paint12_radial)"/>
<path d="M64.9095 416.404C64.6402 416.404 64.4046 416.169 64.4046 415.9C64.4046 406.684 65.4145 397.501 67.4681 388.622C67.5354 388.353 67.8047 388.184 68.0741 388.252C68.3434 388.319 68.5117 388.588 68.4444 388.857C66.4245 397.669 65.4145 406.785 65.4145 415.933C65.4145 416.169 65.1788 416.404 64.9095 416.404Z" fill="url(#paint13_radial)"/>
<path d="M113.893 523.802C113.792 523.802 113.691 523.768 113.623 523.701C106.722 519.059 100.292 513.711 94.434 507.758C94.232 507.556 94.232 507.253 94.434 507.051C94.636 506.849 94.939 506.849 95.141 507.051C100.931 512.937 107.328 518.252 114.162 522.86C114.398 523.028 114.465 523.331 114.297 523.566C114.229 523.734 114.061 523.802 113.893 523.802Z" fill="url(#paint14_radial)"/>
<path d="M282.724 817C282.455 817 282.219 816.765 282.219 816.496C282.219 816.226 282.455 815.991 282.724 815.991C288.043 815.991 293.396 815.655 298.648 814.948C298.917 814.915 299.186 815.117 299.22 815.386C299.254 815.655 299.052 815.924 298.783 815.957C293.497 816.664 288.077 817 282.724 817Z" fill="url(#paint15_radial)"/>
<path d="M276.934 527.199C276.765 527.199 276.631 527.132 276.53 526.997C276.361 526.762 276.429 526.459 276.631 526.291C284.475 520.573 291.646 513.913 297.907 506.48C298.076 506.278 298.412 506.244 298.614 506.412C298.816 506.58 298.85 506.917 298.682 507.119C292.352 514.586 285.114 521.313 277.203 527.098C277.136 527.165 277.035 527.199 276.934 527.199Z" fill="url(#paint16_radial)"/>
<path d="M327.162 398.241C326.893 398.241 326.657 398.006 326.657 397.737C326.657 393.23 326.422 388.655 325.917 384.215C325.883 383.946 326.085 383.677 326.354 383.644C326.624 383.61 326.893 383.812 326.927 384.081C327.432 388.588 327.667 393.162 327.667 397.737C327.667 398.006 327.432 398.241 327.162 398.241Z" fill="url(#paint17_radial)"/>
<path d="M290.602 320.88C290.467 320.88 290.333 320.813 290.232 320.712C284.374 314.691 277.607 309.209 270.167 304.433C269.931 304.298 269.864 303.962 269.999 303.726C270.133 303.491 270.47 303.424 270.706 303.558C278.213 308.368 285.013 313.884 290.938 319.972C291.141 320.174 291.141 320.477 290.938 320.678C290.871 320.847 290.737 320.88 290.602 320.88Z" fill="url(#paint18_radial)"/>
<path d="M124.699 270.326C124.497 270.326 124.329 270.226 124.261 270.057C124.127 269.822 124.228 269.519 124.497 269.385C130.557 266.391 136.886 263.768 143.316 261.615C143.585 261.514 143.855 261.682 143.956 261.918C144.057 262.187 143.888 262.456 143.653 262.557C137.29 264.676 130.995 267.266 124.968 270.259C124.834 270.293 124.766 270.326 124.699 270.326Z" fill="url(#paint19_radial)"/>
<path d="M-151.054 253.845C-151.121 253.845 -151.155 253.845 -151.222 253.812C-151.491 253.711 -151.626 253.442 -151.525 253.172C-148.764 245.066 -145.229 237.128 -141.089 229.628C-140.954 229.392 -140.651 229.291 -140.415 229.426C-140.18 229.561 -140.079 229.863 -140.213 230.099C-144.32 237.566 -147.822 245.436 -150.582 253.509C-150.65 253.711 -150.852 253.845 -151.054 253.845Z" fill="url(#paint20_radial)"/>
<path d="M-183.406 615.693C-183.574 615.693 -183.743 615.592 -183.844 615.424C-187.244 609.437 -190.274 603.147 -192.832 596.756C-192.933 596.487 -192.799 596.218 -192.563 596.117C-192.294 596.016 -192.024 596.151 -191.923 596.387C-189.398 602.744 -186.402 608.966 -183.002 614.919C-182.867 615.155 -182.935 615.458 -183.204 615.592C-183.238 615.693 -183.305 615.693 -183.406 615.693Z" fill="url(#paint21_radial)"/>
<path d="M202.601 569.445C193.578 569.445 184.522 568.637 175.702 567.023C175.433 566.989 175.231 566.72 175.298 566.451C175.332 566.182 175.601 565.98 175.87 566.048C184.623 567.662 193.612 568.469 202.567 568.469C202.836 568.469 203.072 568.705 203.072 568.974C203.106 569.209 202.87 569.445 202.601 569.445Z" fill="url(#paint22_radial)"/>
<path d="M448.223 656.089C448.122 656.089 447.987 656.055 447.92 655.988C447.718 655.82 447.651 655.484 447.853 655.282C451.219 651.077 454.35 646.638 457.211 642.097C457.346 641.861 457.683 641.794 457.918 641.929C458.154 642.063 458.221 642.399 458.087 642.635C455.192 647.209 452.027 651.683 448.661 655.921C448.526 656.022 448.358 656.089 448.223 656.089Z" fill="url(#paint23_radial)"/>
<path d="M392.103 401.302C391.833 401.302 391.598 401.067 391.598 400.798C391.631 392.658 390.958 384.417 389.645 376.311C389.612 376.042 389.78 375.773 390.049 375.739C390.319 375.706 390.588 375.874 390.622 376.143C391.968 384.316 392.641 392.591 392.608 400.798C392.608 401.067 392.372 401.302 392.103 401.302Z" fill="url(#paint24_radial)"/>
<path d="M530.097 178.233C529.929 178.233 529.76 178.166 529.659 177.998C524.677 170.531 519.021 163.467 512.759 157.009C512.557 156.808 512.557 156.505 512.759 156.303C512.961 156.101 513.264 156.101 513.466 156.303C519.762 162.795 525.485 169.925 530.501 177.46C530.669 177.695 530.602 177.998 530.366 178.166C530.299 178.233 530.198 178.233 530.097 178.233Z" fill="url(#paint25_radial)"/>
<path d="M172.975 517.983C169.104 517.983 165.232 517.781 161.428 517.344C161.159 517.31 160.957 517.075 160.99 516.772C161.024 516.503 161.26 516.301 161.563 516.335C165.333 516.738 169.171 516.94 173.009 516.94C173.278 516.94 173.514 517.175 173.514 517.445C173.48 517.747 173.245 517.983 172.975 517.983Z" fill="url(#paint26_radial)"/>
<path d="M287.673 470.725C287.572 470.725 287.471 470.692 287.37 470.624C287.134 470.456 287.101 470.153 287.269 469.918C289.491 466.824 291.544 463.595 293.43 460.265C293.564 460.029 293.867 459.928 294.103 460.063C294.339 460.197 294.44 460.5 294.305 460.736C292.42 464.099 290.333 467.362 288.111 470.49C288.01 470.658 287.841 470.725 287.673 470.725Z" fill="url(#paint27_radial)"/>
<path d="M187.047 311.092C186.778 311.092 186.576 310.891 186.542 310.655C186.509 310.386 186.711 310.117 186.98 310.117C190.818 309.713 194.689 309.512 198.527 309.545C198.797 309.545 199.032 309.781 199.032 310.05C199.032 310.319 198.797 310.554 198.527 310.554C194.723 310.521 190.885 310.722 187.081 311.126C187.081 311.092 187.081 311.092 187.047 311.092Z" fill="url(#paint28_radial)"/>
<path d="M111.603 336.016C111.502 336.016 111.401 335.982 111.3 335.915C111.065 335.747 111.031 335.411 111.199 335.209C113.556 332.182 116.115 329.222 118.774 326.497C118.976 326.296 119.279 326.296 119.481 326.497C119.683 326.699 119.683 327.002 119.481 327.204C116.855 329.928 114.33 332.821 111.974 335.848C111.906 335.949 111.772 336.016 111.603 336.016Z" fill="url(#paint29_radial)"/>
<path d="M364.464 495.514C364.396 495.514 364.329 495.514 364.262 495.481C363.992 495.38 363.891 495.077 364.026 494.808C369.109 483.776 373.149 472.205 375.977 460.399C376.044 460.13 376.314 459.962 376.583 460.029C376.852 460.096 377.021 460.366 376.953 460.635C374.092 472.508 370.052 484.146 364.935 495.212C364.834 495.414 364.666 495.514 364.464 495.514Z" fill="url(#paint30_radial)"/>
<path d="M540.937 415.395C540.668 415.395 540.432 415.16 540.432 414.891C540.432 408.736 540.129 402.547 539.523 396.459C539.49 396.19 539.692 395.92 539.961 395.92C540.23 395.887 540.5 396.089 540.5 396.358C541.106 402.479 541.409 408.702 541.409 414.891C541.442 415.16 541.207 415.395 540.937 415.395Z" fill="url(#paint31_radial)"/>
<path d="M302.115 251.02C302.014 251.02 301.913 250.986 301.812 250.919C290.938 242.544 279.122 235.346 266.699 229.527C266.43 229.392 266.329 229.123 266.464 228.854C266.598 228.585 266.868 228.484 267.137 228.619C279.627 234.438 291.511 241.703 302.452 250.112C302.688 250.28 302.721 250.583 302.553 250.818C302.418 250.953 302.284 251.02 302.115 251.02Z" fill="url(#paint32_radial)"/>
<path d="M150.251 230.301C150.015 230.301 149.813 230.132 149.746 229.897C149.679 229.628 149.881 229.359 150.15 229.291C162.236 226.903 174.658 225.692 187.115 225.692C187.384 225.692 187.62 225.928 187.62 226.197C187.62 226.466 187.384 226.702 187.115 226.702C174.759 226.702 162.371 227.912 150.352 230.301C150.318 230.301 150.285 230.301 150.251 230.301Z" fill="url(#paint33_radial)"/>
<path d="M39.8289 297.436C39.7279 297.436 39.5932 297.403 39.5259 297.336C39.3239 297.167 39.2566 296.831 39.4586 296.629C47.4036 286.74 56.3586 277.592 66.1215 269.452C66.3235 269.284 66.6601 269.317 66.8285 269.519C66.9968 269.721 66.9631 270.057 66.7611 270.226C57.0655 278.298 48.1442 287.413 40.2665 297.268C40.1318 297.369 39.9972 297.436 39.8289 297.436Z" fill="url(#paint34_radial)"/>
<path d="M2.76334 454.715C2.52768 454.715 2.32568 454.547 2.25835 454.311C-0.535873 441.328 -1.94981 427.941 -1.94981 414.554C-1.94981 414.285 -1.71416 414.05 -1.44484 414.05C-1.17551 414.05 -0.93985 414.285 -0.93985 414.554C-0.93985 427.874 0.474091 441.193 3.23465 454.109C3.30199 454.378 3.13367 454.648 2.83067 454.715C2.83067 454.715 2.797 454.715 2.76334 454.715Z" fill="url(#paint35_radial)"/>
<path d="M60.8697 562.011C60.735 562.011 60.634 561.978 60.533 561.877C54.3723 556.327 48.5482 550.34 43.1954 544.05C43.0271 543.848 43.0271 543.512 43.2628 543.344C43.4648 543.176 43.8014 543.176 43.9697 543.411C49.3225 549.667 55.1129 555.654 61.24 561.137C61.442 561.339 61.4757 561.641 61.2737 561.843C61.139 561.944 61.0044 562.011 60.8697 562.011Z" fill="url(#paint36_radial)"/>
<path d="M187.115 603.416C169.003 603.416 151.093 600.86 133.856 595.815C133.587 595.747 133.418 595.445 133.519 595.176C133.587 594.907 133.89 594.772 134.159 594.839C151.295 599.851 169.104 602.407 187.148 602.407C187.418 602.407 187.653 602.643 187.653 602.912C187.62 603.181 187.384 603.416 187.115 603.416Z" fill="url(#paint37_radial)"/>
<path d="M280.469 578.728C280.3 578.728 280.132 578.627 280.031 578.459C279.896 578.224 279.964 577.921 280.233 577.786C287.269 573.75 294.137 569.243 300.6 564.332C300.836 564.164 301.139 564.198 301.307 564.433C301.476 564.668 301.442 564.971 301.206 565.139C294.709 570.084 287.808 574.625 280.738 578.661C280.637 578.694 280.57 578.728 280.469 578.728Z" fill="url(#paint38_radial)"/>
<path d="M239.801 186.743C239.767 186.743 239.7 186.743 239.666 186.709C219.265 181.092 198.056 178.233 176.678 178.233C176.409 178.233 176.173 177.998 176.173 177.729C176.173 177.46 176.409 177.224 176.678 177.224C198.157 177.224 219.433 180.083 239.936 185.734C240.205 185.801 240.373 186.07 240.272 186.339C240.205 186.608 240.003 186.743 239.801 186.743Z" fill="url(#paint39_radial)"/>
<path d="M49.3225 226.601C49.1542 226.601 48.9858 226.533 48.8848 226.365C48.7165 226.13 48.7838 225.827 49.0195 225.659C62.2836 217.082 76.4231 209.817 91.0675 204.031C91.3368 203.93 91.6061 204.065 91.7071 204.3C91.8081 204.57 91.6735 204.839 91.4378 204.94C76.8271 210.691 62.7549 217.923 49.5581 226.466C49.5245 226.601 49.4235 226.601 49.3225 226.601Z" fill="url(#paint40_radial)"/>
<path d="M-48.5426 304.534C-48.6099 304.534 -48.7109 304.5 -48.7783 304.466C-49.0139 304.332 -49.1149 304.029 -49.0139 303.794C-41.7422 289.229 -32.8882 275.372 -22.755 262.59C-22.5867 262.389 -22.25 262.321 -22.048 262.523C-21.8123 262.691 -21.7787 263.028 -21.9807 263.229C-32.0803 275.977 -40.8669 289.768 -48.1386 304.264C-48.1723 304.433 -48.3406 304.534 -48.5426 304.534Z" fill="url(#paint41_radial)"/>
<path d="M-39.1163 417.077C-39.3856 417.077 -39.6213 416.842 -39.6213 416.573C-39.6213 393.129 -36.2211 369.954 -29.4544 347.721C-29.387 347.452 -29.0841 347.318 -28.8147 347.385C-28.5454 347.452 -28.4108 347.755 -28.4781 348.024C-35.1775 370.156 -38.5777 393.23 -38.5777 416.573C-38.6113 416.842 -38.847 417.077 -39.1163 417.077Z" fill="url(#paint42_radial)"/>
<path d="M-42.6849 528.847C-42.8869 528.847 -43.0552 528.746 -43.1225 528.578C-51.0339 512.601 -57.0936 495.716 -61.2008 478.394C-61.2681 478.125 -61.0998 477.856 -60.8305 477.789C-60.5611 477.721 -60.2918 477.89 -60.2245 478.159C-56.151 495.413 -50.0912 512.231 -42.2472 528.141C-42.1125 528.376 -42.2135 528.679 -42.4828 528.813C-42.5502 528.813 -42.6175 528.847 -42.6849 528.847Z" fill="url(#paint43_radial)"/>
<path d="M30.7392 632.544C30.6382 632.544 30.5036 632.511 30.4362 632.444C9.79939 616.063 -7.87491 596.521 -22.0817 574.389C-22.2163 574.154 -22.149 573.851 -21.9133 573.683C-21.6777 573.548 -21.3747 573.615 -21.2064 573.851C-7.06693 595.916 10.54 615.357 31.1095 631.67C31.3115 631.838 31.3789 632.174 31.1769 632.376C31.0422 632.477 30.9076 632.544 30.7392 632.544Z" fill="url(#paint44_radial)"/>
<path d="M96.1509 700.185C96.1173 700.185 96.0499 700.185 96.0163 700.151C81.8095 695.981 67.9058 690.464 54.709 683.704C54.4733 683.569 54.3723 683.266 54.4733 683.031C54.608 682.795 54.9109 682.695 55.1466 682.829C68.3097 689.556 82.1462 695.072 96.2856 699.209C96.555 699.277 96.7233 699.579 96.6223 699.848C96.5549 700.05 96.3529 700.185 96.1509 700.185Z" fill="url(#paint45_radial)"/>
<path d="M178.025 662.278C170.316 662.278 162.539 661.908 154.897 661.168C154.628 661.134 154.426 660.899 154.459 660.63C154.493 660.361 154.729 660.159 154.998 660.193C162.606 660.933 170.349 661.303 178.025 661.303C178.294 661.303 178.53 661.538 178.53 661.807C178.53 662.076 178.294 662.278 178.025 662.278Z" fill="url(#paint46_radial)"/>
<path d="M234.01 655.618C233.775 655.618 233.573 655.45 233.505 655.248C233.438 654.979 233.606 654.71 233.876 654.643C246.601 651.548 259.158 647.378 271.177 642.231C271.446 642.13 271.716 642.231 271.85 642.5C271.951 642.769 271.85 643.039 271.581 643.173C259.495 648.353 246.904 652.557 234.111 655.652C234.078 655.618 234.044 655.618 234.01 655.618Z" fill="url(#paint47_radial)"/>
<path d="M331.101 606.275C330.967 606.275 330.832 606.208 330.731 606.107C330.563 605.905 330.563 605.569 330.798 605.401C342.413 595.579 353.152 584.547 362.679 572.674C362.848 572.472 363.184 572.405 363.386 572.606C363.588 572.775 363.656 573.111 363.454 573.313C353.893 585.22 343.12 596.286 331.438 606.174C331.337 606.242 331.202 606.275 331.101 606.275Z" fill="url(#paint48_radial)"/>
<path d="M400.788 549.499C400.721 549.499 400.62 549.465 400.553 549.432C400.317 549.297 400.216 548.994 400.351 548.759C407.555 535.708 413.548 521.884 418.16 507.724C418.261 507.455 418.53 507.32 418.799 507.388C419.069 507.489 419.203 507.758 419.136 508.027C414.524 522.254 408.498 536.112 401.26 549.23C401.159 549.432 400.99 549.499 400.788 549.499Z" fill="url(#paint49_radial)"/>
<path d="M417.183 453.134C417.15 453.134 417.15 453.134 417.116 453.134C416.847 453.1 416.645 452.865 416.678 452.562C417.722 443.582 418.227 434.399 418.227 425.318C418.227 425.049 418.463 424.813 418.732 424.813C419.001 424.813 419.237 425.049 419.237 425.318C419.237 434.466 418.698 443.682 417.688 452.697C417.655 452.932 417.419 453.134 417.183 453.134Z" fill="url(#paint50_radial)"/>
<path d="M457.784 383.307C457.515 383.307 457.313 383.105 457.279 382.836C455.966 365.38 452.734 348.091 447.617 331.475C447.55 331.206 447.684 330.937 447.954 330.836C448.223 330.769 448.492 330.904 448.593 331.173C453.71 347.889 456.976 365.245 458.289 382.769C458.322 383.038 458.087 383.274 457.818 383.307H457.784Z" fill="url(#paint51_radial)"/>
<path d="M385.673 311.227C385.504 311.227 385.336 311.126 385.235 310.958C381.027 303.323 376.347 295.856 371.298 288.759C371.129 288.523 371.197 288.22 371.432 288.052C371.668 287.884 371.971 287.951 372.139 288.187C377.189 295.351 381.902 302.852 386.144 310.487C386.279 310.722 386.178 311.025 385.942 311.16C385.841 311.227 385.74 311.227 385.673 311.227Z" fill="url(#paint52_radial)"/>
<path d="M366.585 253.004C366.45 253.004 366.315 252.937 366.214 252.836C353.186 238.777 338.474 226.298 322.517 215.77C322.281 215.602 322.214 215.299 322.382 215.064C322.55 214.828 322.853 214.761 323.089 214.929C339.147 225.491 353.926 238.037 366.988 252.163C367.19 252.365 367.157 252.702 366.955 252.87C366.82 252.971 366.685 253.004 366.585 253.004Z" fill="url(#paint53_radial)"/>
<path d="M-30.397 655.484C-30.498 655.484 -30.6327 655.45 -30.7337 655.349C-40.16 647.277 -49.1823 638.498 -57.5649 629.315C-57.7669 629.114 -57.7333 628.777 -57.5313 628.609C-57.3293 628.407 -56.9926 628.441 -56.8243 628.643C-48.4753 637.792 -39.4867 646.537 -30.094 654.576C-29.892 654.744 -29.8584 655.08 -30.0267 655.282C-30.1277 655.45 -30.2624 655.484 -30.397 655.484Z" fill="url(#paint54_radial)"/>
<path d="M191.154 729.548C190.885 729.548 190.649 729.313 190.649 729.044C190.649 728.775 190.885 728.539 191.154 728.539C211.556 728.539 231.957 726.488 251.752 722.418C252.021 722.351 252.291 722.552 252.358 722.821C252.425 723.09 252.223 723.36 251.954 723.427C232.058 727.463 211.623 729.548 191.154 729.548Z" fill="url(#paint55_radial)"/>
<path d="M276.462 700.891C276.26 700.891 276.058 700.757 275.991 700.521C275.924 700.252 276.058 699.983 276.328 699.882C303.024 691.574 328.442 679.499 351.839 664.027C352.075 663.859 352.378 663.926 352.546 664.161C352.714 664.397 352.647 664.7 352.411 664.868C328.913 680.374 303.428 692.482 276.631 700.824C276.563 700.858 276.496 700.891 276.462 700.891Z" fill="url(#paint56_radial)"/>
<path d="M426.004 630.795C425.869 630.795 425.768 630.762 425.667 630.661C425.465 630.459 425.431 630.156 425.633 629.954C442.735 611.051 457.346 590.029 469.095 567.494C469.23 567.258 469.533 567.157 469.769 567.292C470.004 567.427 470.105 567.729 469.971 567.965C458.188 590.568 443.51 611.657 426.374 630.661C426.273 630.728 426.138 630.795 426.004 630.795Z" fill="url(#paint57_radial)"/>
<path d="M466.402 523.667C466.335 523.667 466.268 523.667 466.234 523.633C465.965 523.533 465.83 523.23 465.931 522.994C479.397 488.451 486.231 451.957 486.231 414.554C486.231 414.285 486.467 414.05 486.736 414.05C487.005 414.05 487.241 414.285 487.241 414.554C487.241 452.091 480.373 488.686 466.873 523.364C466.806 523.566 466.604 523.667 466.402 523.667Z" fill="url(#paint58_radial)"/>
<path d="M489.194 321.183C488.992 321.183 488.79 321.048 488.722 320.847C474.246 277.02 449.267 236.456 416.443 203.594C416.241 203.392 416.241 203.09 416.443 202.888C416.645 202.686 416.948 202.686 417.15 202.888C433.477 219.268 447.92 237.532 460.073 257.175C472.395 277.087 482.326 298.412 489.665 320.577C489.766 320.847 489.598 321.116 489.328 321.217C489.328 321.183 489.261 321.183 489.194 321.183Z" fill="url(#paint59_radial)"/>
<path d="M354.128 150.114C354.027 150.114 353.926 150.08 353.859 150.047C339.248 140.797 323.729 132.792 307.771 126.233C307.502 126.132 307.401 125.829 307.502 125.56C307.603 125.291 307.906 125.19 308.175 125.291C324.2 131.85 339.753 139.889 354.431 149.172C354.667 149.307 354.734 149.643 354.6 149.879C354.465 150.047 354.297 150.114 354.128 150.114Z" fill="url(#paint60_radial)"/>
<path d="M237.646 127.175C237.613 127.175 237.579 127.175 237.545 127.175C220.679 124.249 203.341 122.769 186.071 122.769C185.802 122.769 185.566 122.533 185.566 122.264C185.566 121.995 185.802 121.76 186.071 121.76C203.409 121.76 220.78 123.24 237.714 126.166C237.983 126.199 238.185 126.469 238.118 126.738C238.084 127.007 237.882 127.175 237.646 127.175Z" fill="url(#paint61_radial)"/>
<path d="M54.8099 124.854C54.6079 124.854 54.4396 124.753 54.3386 124.551C54.2376 124.282 54.3386 124.013 54.6079 123.879C72.4169 115.941 91.0675 109.685 110.055 105.379C110.324 105.312 110.593 105.48 110.661 105.749C110.728 106.018 110.56 106.287 110.29 106.355C91.3368 110.66 72.7535 116.882 55.0119 124.787C54.9446 124.82 54.8773 124.854 54.8099 124.854Z" fill="url(#paint62_radial)"/>
<path d="M-18.3448 197.17C-18.4795 197.17 -18.6141 197.103 -18.7151 197.002C-18.9171 196.8 -18.8835 196.463 -18.6815 196.295C-13.2277 191.149 -7.53825 186.171 -1.71416 181.462C-1.51216 181.294 -1.17549 181.328 -1.00716 181.529C-0.838837 181.731 -0.872513 182.068 -1.07449 182.236C-6.86493 186.911 -12.5544 191.889 -17.9745 197.002C-18.1092 197.136 -18.2438 197.17 -18.3448 197.17Z" fill="url(#paint63_radial)"/>
<path d="M-121.798 336.655C-121.832 336.655 -121.866 336.655 -121.933 336.655C-122.202 336.588 -122.371 336.319 -122.303 336.05C-114.897 305.845 -102.845 277.053 -86.4834 250.482C-86.3488 250.246 -86.0121 250.179 -85.7765 250.313C-85.5408 250.448 -85.4735 250.784 -85.6082 251.02C-101.936 277.491 -113.921 306.182 -121.293 336.285C-121.361 336.487 -121.563 336.655 -121.798 336.655Z" fill="url(#paint64_radial)"/>
<path d="M-105.673 478.932C-105.908 478.932 -106.11 478.764 -106.178 478.529C-110.722 457.641 -113.012 436.115 -113.012 414.554C-113.012 414.285 -112.776 414.05 -112.507 414.05C-112.237 414.05 -112.002 414.285 -112.002 414.554C-112.002 436.047 -109.713 457.507 -105.168 478.327C-105.1 478.596 -105.269 478.865 -105.538 478.932C-105.605 478.932 -105.639 478.932 -105.673 478.932Z" fill="url(#paint65_radial)"/>
<path d="M-85.9448 562.348C-86.1131 562.348 -86.3151 562.247 -86.3824 562.078C-89.547 556.091 -92.5432 549.936 -95.3038 543.747C-95.4048 543.478 -95.3038 543.209 -95.0344 543.075C-94.7651 542.974 -94.4958 543.075 -94.3611 543.344C-91.6006 549.499 -88.638 555.654 -85.4735 561.608C-85.3388 561.843 -85.4398 562.146 -85.6755 562.28C-85.7765 562.314 -85.8438 562.348 -85.9448 562.348Z" fill="url(#paint66_radial)"/>
<path d="M48.0432 504.831C47.8749 504.831 47.6729 504.73 47.6056 504.562C44.441 498.575 41.4448 492.42 38.6842 486.231C38.5832 485.962 38.6842 485.693 38.9536 485.558C39.2229 485.457 39.4922 485.558 39.6269 485.827C42.3874 491.983 45.35 498.138 48.5145 504.091C48.6492 504.327 48.5482 504.63 48.3125 504.764C48.2115 504.798 48.1442 504.831 48.0432 504.831Z" fill="url(#paint67_radial)"/>
<path d="M-27.9394 779.127C-28.0404 779.127 -28.1078 779.093 -28.1751 779.059C-51.2695 765.874 -73.0173 750.201 -92.8799 732.441C-112.675 714.749 -130.619 694.904 -146.273 673.445C-146.441 673.209 -146.374 672.907 -146.172 672.739C-145.936 672.57 -145.633 672.638 -145.465 672.839C-114.291 715.556 -73.5896 751.983 -27.7038 778.151C-27.4681 778.286 -27.3671 778.589 -27.5018 778.824C-27.6028 779.06 -27.7711 779.127 -27.9394 779.127Z" fill="url(#paint68_radial)"/>
<path d="M158.533 774.552H158.499C130.624 772.467 103.019 767.287 76.4568 759.114C76.1874 759.047 76.0527 758.744 76.1201 758.475C76.1874 758.206 76.4904 758.071 76.7597 758.138C103.254 766.245 130.793 771.424 158.6 773.51C158.869 773.543 159.071 773.779 159.071 774.048C159.004 774.351 158.802 774.552 158.533 774.552Z" fill="url(#paint69_radial)"/>
<path d="M187.115 791.101C186.845 791.101 186.61 790.865 186.61 790.596C186.61 790.327 186.845 790.092 187.115 790.092C207.347 790.092 227.648 788.477 247.477 785.282C247.746 785.248 248.015 785.417 248.049 785.686C248.083 785.955 247.914 786.224 247.645 786.257C227.782 789.486 207.415 791.101 187.115 791.101Z" fill="url(#paint70_radial)"/>
<path d="M456.942 733.854C456.808 733.854 456.673 733.786 456.572 733.686C456.404 733.484 456.404 733.147 456.639 732.979C482.663 710.746 505.521 685.049 524.609 656.695C524.778 656.459 525.081 656.392 525.316 656.56C525.552 656.728 525.619 657.031 525.451 657.266C506.329 685.722 483.403 711.453 457.313 733.753C457.178 733.82 457.077 733.854 456.942 733.854Z" fill="url(#paint71_radial)"/>
<path d="M526.697 577.416C526.629 577.416 526.562 577.416 526.495 577.383C526.259 577.248 526.125 576.945 526.259 576.71C538.311 551.618 547.536 525.147 553.696 498.037C553.764 497.768 554.033 497.6 554.302 497.667C554.572 497.734 554.74 498.003 554.673 498.272C548.512 525.45 539.254 551.988 527.168 577.147C527.067 577.315 526.899 577.416 526.697 577.416Z" fill="url(#paint72_radial)"/>
<path d="M597.495 406.314C597.226 406.314 596.99 406.078 596.99 405.809C596.99 394.239 596.451 382.567 595.408 371.098C591.536 328.751 580.595 287.783 562.887 249.237C562.786 248.968 562.887 248.699 563.123 248.564C563.392 248.464 563.661 248.564 563.796 248.8C581.538 287.413 592.513 328.515 596.418 370.963C597.461 382.433 598 394.138 598 405.742C598 406.078 597.764 406.314 597.495 406.314Z" fill="url(#paint73_radial)"/>
<path d="M490.843 192.932C490.675 192.932 490.54 192.864 490.439 192.73C469.735 164.51 445.193 139.284 417.486 117.791C417.251 117.622 417.217 117.286 417.385 117.084C417.554 116.849 417.89 116.815 418.092 116.983C445.833 138.51 470.442 163.804 491.247 192.125C491.416 192.36 491.348 192.663 491.146 192.831C491.045 192.898 490.944 192.932 490.843 192.932Z" fill="url(#paint74_radial)"/>
<path d="M344.5 73.3921C344.433 73.3921 344.365 73.3921 344.298 73.3585C326.96 65.3869 308.882 58.6935 290.568 53.4464C290.299 53.3791 290.131 53.0764 290.232 52.8073C290.299 52.5382 290.602 52.3701 290.871 52.471C309.252 57.7181 327.364 64.4451 344.769 72.4503C345.039 72.5512 345.14 72.8539 345.005 73.123C344.87 73.2576 344.702 73.3921 344.5 73.3921Z" fill="url(#paint75_radial)"/>
<path d="M57.7388 61.8216C57.5368 61.8216 57.3348 61.687 57.2675 61.4852C57.1665 61.2161 57.3012 60.9471 57.5705 60.8462C99.0125 45.7103 142.575 38.0078 187.115 38.0078C187.384 38.0078 187.62 38.2433 187.62 38.5124C187.62 38.7814 187.384 39.0169 187.115 39.0169C142.71 39.0169 99.2482 46.6857 57.9071 61.7879C57.8398 61.8216 57.8062 61.8216 57.7388 61.8216Z" fill="url(#paint76_radial)"/>
<path d="M-129.575 142.075C-129.676 142.075 -129.811 142.042 -129.878 141.974C-130.08 141.806 -130.114 141.47 -129.945 141.268C-105.1 110.593 -75.7442 84.0881 -42.7185 62.4943C-42.4829 62.3261 -42.1799 62.3934 -42.0116 62.6288C-41.8432 62.8643 -41.9106 63.167 -42.1462 63.3352C-75.0709 84.8617 -104.36 111.265 -129.137 141.873C-129.272 142.008 -129.44 142.075 -129.575 142.075Z" fill="url(#paint77_radial)"/>
<path d="M-222.491 367.465C-222.525 367.465 -222.525 367.465 -222.559 367.465C-222.828 367.431 -223.03 367.196 -222.996 366.893C-218.855 327.944 -208.689 290.07 -192.799 254.35C-192.698 254.081 -192.395 253.98 -192.125 254.081C-191.856 254.182 -191.755 254.484 -191.856 254.753C-207.712 290.373 -217.846 328.145 -221.986 366.994C-222.02 367.263 -222.222 367.465 -222.491 367.465Z" fill="url(#paint78_radial)"/>
<path d="M-150.212 582.058C-150.414 582.058 -150.582 581.957 -150.65 581.789C-165.429 552.022 -176.202 520.404 -182.632 487.846C-187.378 463.864 -189.769 439.243 -189.769 414.588C-189.769 414.319 -189.533 414.083 -189.264 414.083C-188.994 414.083 -188.759 414.319 -188.759 414.588C-188.759 439.175 -186.368 463.763 -181.655 487.644C-175.259 520.135 -164.52 551.652 -149.774 581.352C-149.64 581.587 -149.741 581.89 -150.01 582.024C-150.044 582.024 -150.145 582.058 -150.212 582.058Z" fill="url(#paint79_radial)"/>
<defs>
<radialGradient id="paint0_radial" cx="0" cy="0" r="1" gradientUnits="userSpaceOnUse" gradientTransform="translate(187.5 408.5) rotate(90) scale(408.5 410.5)">
<stop stop-color="white"/>
<stop offset="1" stop-color="white" stop-opacity="0"/>
</radialGradient>
<radialGradient id="paint1_radial" cx="0" cy="0" r="1" gradientUnits="userSpaceOnUse" gradientTransform="translate(187.5 408.5) rotate(90) scale(408.5 410.5)">
<stop stop-color="white"/>
<stop offset="1" stop-color="white" stop-opacity="0"/>
</radialGradient>
<radialGradient id="paint2_radial" cx="0" cy="0" r="1" gradientUnits="userSpaceOnUse" gradientTransform="translate(187.5 408.5) rotate(90) scale(408.5 410.5)">
<stop stop-color="white"/>
<stop offset="1" stop-color="white" stop-opacity="0"/>
</radialGradient>
<radialGradient id="paint3_radial" cx="0" cy="0" r="1" gradientUnits="userSpaceOnUse" gradientTransform="translate(187.5 408.5) rotate(90) scale(408.5 410.5)">
<stop stop-color="white"/>
<stop offset="1" stop-color="white" stop-opacity="0"/>
</radialGradient>
<radialGradient id="paint4_radial" cx="0" cy="0" r="1" gradientUnits="userSpaceOnUse" gradientTransform="translate(187.5 408.5) rotate(90) scale(408.5 410.5)">
<stop stop-color="white"/>
<stop offset="1" stop-color="white" stop-opacity="0"/>
</radialGradient>
<radialGradient id="paint5_radial" cx="0" cy="0" r="1" gradientUnits="userSpaceOnUse" gradientTransform="translate(187.5 408.5) rotate(90) scale(408.5 410.5)">
<stop stop-color="white"/>
<stop offset="1" stop-color="white" stop-opacity="0"/>
</radialGradient>
<radialGradient id="paint6_radial" cx="0" cy="0" r="1" gradientUnits="userSpaceOnUse" gradientTransform="translate(187.5 408.5) rotate(90) scale(408.5 410.5)">
<stop stop-color="white"/>
<stop offset="1" stop-color="white" stop-opacity="0"/>
</radialGradient>
<radialGradient id="paint7_radial" cx="0" cy="0" r="1" gradientUnits="userSpaceOnUse" gradientTransform="translate(187.5 408.5) rotate(90) scale(408.5 410.5)">
<stop stop-color="white"/>
<stop offset="1" stop-color="white" stop-opacity="0"/>
</radialGradient>
<radialGradient id="paint8_radial" cx="0" cy="0" r="1" gradientUnits="userSpaceOnUse" gradientTransform="translate(187.5 408.5) rotate(90) scale(408.5 410.5)">
<stop stop-color="white"/>
<stop offset="1" stop-color="white" stop-opacity="0"/>
</radialGradient>
<radialGradient id="paint9_radial" cx="0" cy="0" r="1" gradientUnits="userSpaceOnUse" gradientTransform="translate(187.5 408.5) rotate(90) scale(408.5 410.5)">
<stop stop-color="white"/>
<stop offset="1" stop-color="white" stop-opacity="0"/>
</radialGradient>
<radialGradient id="paint10_radial" cx="0" cy="0" r="1" gradientUnits="userSpaceOnUse" gradientTransform="translate(187.5 408.5) rotate(90) scale(408.5 410.5)">
<stop stop-color="white"/>
<stop offset="1" stop-color="white" stop-opacity="0"/>
</radialGradient>
<radialGradient id="paint11_radial" cx="0" cy="0" r="1" gradientUnits="userSpaceOnUse" gradientTransform="translate(187.5 408.5) rotate(90) scale(408.5 410.5)">
<stop stop-color="white"/>
<stop offset="1" stop-color="white" stop-opacity="0"/>
</radialGradient>
<radialGradient id="paint12_radial" cx="0" cy="0" r="1" gradientUnits="userSpaceOnUse" gradientTransform="translate(187.5 408.5) rotate(90) scale(408.5 410.5)">
<stop stop-color="white"/>
<stop offset="1" stop-color="white" stop-opacity="0"/>
</radialGradient>
<radialGradient id="paint13_radial" cx="0" cy="0" r="1" gradientUnits="userSpaceOnUse" gradientTransform="translate(187.5 408.5) rotate(90) scale(408.5 410.5)">
<stop stop-color="white"/>
<stop offset="1" stop-color="white" stop-opacity="0"/>
</radialGradient>
<radialGradient id="paint14_radial" cx="0" cy="0" r="1" gradientUnits="userSpaceOnUse" gradientTransform="translate(187.5 408.5) rotate(90) scale(408.5 410.5)">
<stop stop-color="white"/>
<stop offset="1" stop-color="white" stop-opacity="0"/>
</radialGradient>
<radialGradient id="paint15_radial" cx="0" cy="0" r="1" gradientUnits="userSpaceOnUse" gradientTransform="translate(187.5 408.5) rotate(90) scale(408.5 410.5)">
<stop stop-color="white"/>
<stop offset="1" stop-color="white" stop-opacity="0"/>
</radialGradient>
<radialGradient id="paint16_radial" cx="0" cy="0" r="1" gradientUnits="userSpaceOnUse" gradientTransform="translate(187.5 408.5) rotate(90) scale(408.5 410.5)">
<stop stop-color="white"/>
<stop offset="1" stop-color="white" stop-opacity="0"/>
</radialGradient>
<radialGradient id="paint17_radial" cx="0" cy="0" r="1" gradientUnits="userSpaceOnUse" gradientTransform="translate(187.5 408.5) rotate(90) scale(408.5 410.5)">
<stop stop-color="white"/>
<stop offset="1" stop-color="white" stop-opacity="0"/>
</radialGradient>
<radialGradient id="paint18_radial" cx="0" cy="0" r="1" gradientUnits="userSpaceOnUse" gradientTransform="translate(187.5 408.5) rotate(90) scale(408.5 410.5)">
<stop stop-color="white"/>
<stop offset="1" stop-color="white" stop-opacity="0"/>
</radialGradient>
<radialGradient id="paint19_radial" cx="0" cy="0" r="1" gradientUnits="userSpaceOnUse" gradientTransform="translate(187.5 408.5) rotate(90) scale(408.5 410.5)">
<stop stop-color="white"/>
<stop offset="1" stop-color="white" stop-opacity="0"/>
</radialGradient>
<radialGradient id="paint20_radial" cx="0" cy="0" r="1" gradientUnits="userSpaceOnUse" gradientTransform="translate(187.5 408.5) rotate(90) scale(408.5 410.5)">
<stop stop-color="white"/>
<stop offset="1" stop-color="white" stop-opacity="0"/>
</radialGradient>
<radialGradient id="paint21_radial" cx="0" cy="0" r="1" gradientUnits="userSpaceOnUse" gradientTransform="translate(187.5 408.5) rotate(90) scale(408.5 410.5)">
<stop stop-color="white"/>
<stop offset="1" stop-color="white" stop-opacity="0"/>
</radialGradient>
<radialGradient id="paint22_radial" cx="0" cy="0" r="1" gradientUnits="userSpaceOnUse" gradientTransform="translate(187.5 408.5) rotate(90) scale(408.5 410.5)">
<stop stop-color="white"/>
<stop offset="1" stop-color="white" stop-opacity="0"/>
</radialGradient>
<radialGradient id="paint23_radial" cx="0" cy="0" r="1" gradientUnits="userSpaceOnUse" gradientTransform="translate(187.5 408.5) rotate(90) scale(408.5 410.5)">
<stop stop-color="white"/>
<stop offset="1" stop-color="white" stop-opacity="0"/>
</radialGradient>
<radialGradient id="paint24_radial" cx="0" cy="0" r="1" gradientUnits="userSpaceOnUse" gradientTransform="translate(187.5 408.5) rotate(90) scale(408.5 410.5)">
<stop stop-color="white"/>
<stop offset="1" stop-color="white" stop-opacity="0"/>
</radialGradient>
<radialGradient id="paint25_radial" cx="0" cy="0" r="1" gradientUnits="userSpaceOnUse" gradientTransform="translate(187.5 408.5) rotate(90) scale(408.5 410.5)">
<stop stop-color="white"/>
<stop offset="1" stop-color="white" stop-opacity="0"/>
</radialGradient>
<radialGradient id="paint26_radial" cx="0" cy="0" r="1" gradientUnits="userSpaceOnUse" gradientTransform="translate(187.5 408.5) rotate(90) scale(408.5 410.5)">
<stop stop-color="white"/>
<stop offset="1" stop-color="white" stop-opacity="0"/>
</radialGradient>
<radialGradient id="paint27_radial" cx="0" cy="0" r="1" gradientUnits="userSpaceOnUse" gradientTransform="translate(187.5 408.5) rotate(90) scale(408.5 410.5)">
<stop stop-color="white"/>
<stop offset="1" stop-color="white" stop-opacity="0"/>
</radialGradient>
<radialGradient id="paint28_radial" cx="0" cy="0" r="1" gradientUnits="userSpaceOnUse" gradientTransform="translate(187.5 408.5) rotate(90) scale(408.5 410.5)">
<stop stop-color="white"/>
<stop offset="1" stop-color="white" stop-opacity="0"/>
</radialGradient>
<radialGradient id="paint29_radial" cx="0" cy="0" r="1" gradientUnits="userSpaceOnUse" gradientTransform="translate(187.5 408.5) rotate(90) scale(408.5 410.5)">
<stop stop-color="white"/>
<stop offset="1" stop-color="white" stop-opacity="0"/>
</radialGradient>
<radialGradient id="paint30_radial" cx="0" cy="0" r="1" gradientUnits="userSpaceOnUse" gradientTransform="translate(187.5 408.5) rotate(90) scale(408.5 410.5)">
<stop stop-color="white"/>
<stop offset="1" stop-color="white" stop-opacity="0"/>
</radialGradient>
<radialGradient id="paint31_radial" cx="0" cy="0" r="1" gradientUnits="userSpaceOnUse" gradientTransform="translate(187.5 408.5) rotate(90) scale(408.5 410.5)">
<stop stop-color="white"/>
<stop offset="1" stop-color="white" stop-opacity="0"/>
</radialGradient>
<radialGradient id="paint32_radial" cx="0" cy="0" r="1" gradientUnits="userSpaceOnUse" gradientTransform="translate(187.5 408.5) rotate(90) scale(408.5 410.5)">
<stop stop-color="white"/>
<stop offset="1" stop-color="white" stop-opacity="0"/>
</radialGradient>
<radialGradient id="paint33_radial" cx="0" cy="0" r="1" gradientUnits="userSpaceOnUse" gradientTransform="translate(187.5 408.5) rotate(90) scale(408.5 410.5)">
<stop stop-color="white"/>
<stop offset="1" stop-color="white" stop-opacity="0"/>
</radialGradient>
<radialGradient id="paint34_radial" cx="0" cy="0" r="1" gradientUnits="userSpaceOnUse" gradientTransform="translate(187.5 408.5) rotate(90) scale(408.5 410.5)">
<stop stop-color="white"/>
<stop offset="1" stop-color="white" stop-opacity="0"/>
</radialGradient>
<radialGradient id="paint35_radial" cx="0" cy="0" r="1" gradientUnits="userSpaceOnUse" gradientTransform="translate(187.5 408.5) rotate(90) scale(408.5 410.5)">
<stop stop-color="white"/>
<stop offset="1" stop-color="white" stop-opacity="0"/>
</radialGradient>
<radialGradient id="paint36_radial" cx="0" cy="0" r="1" gradientUnits="userSpaceOnUse" gradientTransform="translate(187.5 408.5) rotate(90) scale(408.5 410.5)">
<stop stop-color="white"/>
<stop offset="1" stop-color="white" stop-opacity="0"/>
</radialGradient>
<radialGradient id="paint37_radial" cx="0" cy="0" r="1" gradientUnits="userSpaceOnUse" gradientTransform="translate(187.5 408.5) rotate(90) scale(408.5 410.5)">
<stop stop-color="white"/>
<stop offset="1" stop-color="white" stop-opacity="0"/>
</radialGradient>
<radialGradient id="paint38_radial" cx="0" cy="0" r="1" gradientUnits="userSpaceOnUse" gradientTransform="translate(187.5 408.5) rotate(90) scale(408.5 410.5)">
<stop stop-color="white"/>
<stop offset="1" stop-color="white" stop-opacity="0"/>
</radialGradient>
<radialGradient id="paint39_radial" cx="0" cy="0" r="1" gradientUnits="userSpaceOnUse" gradientTransform="translate(187.5 408.5) rotate(90) scale(408.5 410.5)">
<stop stop-color="white"/>
<stop offset="1" stop-color="white" stop-opacity="0"/>
</radialGradient>
<radialGradient id="paint40_radial" cx="0" cy="0" r="1" gradientUnits="userSpaceOnUse" gradientTransform="translate(187.5 408.5) rotate(90) scale(408.5 410.5)">
<stop stop-color="white"/>
<stop offset="1" stop-color="white" stop-opacity="0"/>
</radialGradient>
<radialGradient id="paint41_radial" cx="0" cy="0" r="1" gradientUnits="userSpaceOnUse" gradientTransform="translate(187.5 408.5) rotate(90) scale(408.5 410.5)">
<stop stop-color="white"/>
<stop offset="1" stop-color="white" stop-opacity="0"/>
</radialGradient>
<radialGradient id="paint42_radial" cx="0" cy="0" r="1" gradientUnits="userSpaceOnUse" gradientTransform="translate(187.5 408.5) rotate(90) scale(408.5 410.5)">
<stop stop-color="white"/>
<stop offset="1" stop-color="white" stop-opacity="0"/>
</radialGradient>
<radialGradient id="paint43_radial" cx="0" cy="0" r="1" gradientUnits="userSpaceOnUse" gradientTransform="translate(187.5 408.5) rotate(90) scale(408.5 410.5)">
<stop stop-color="white"/>
<stop offset="1" stop-color="white" stop-opacity="0"/>
</radialGradient>
<radialGradient id="paint44_radial" cx="0" cy="0" r="1" gradientUnits="userSpaceOnUse" gradientTransform="translate(187.5 408.5) rotate(90) scale(408.5 410.5)">
<stop stop-color="white"/>
<stop offset="1" stop-color="white" stop-opacity="0"/>
</radialGradient>
<radialGradient id="paint45_radial" cx="0" cy="0" r="1" gradientUnits="userSpaceOnUse" gradientTransform="translate(187.5 408.5) rotate(90) scale(408.5 410.5)">
<stop stop-color="white"/>
<stop offset="1" stop-color="white" stop-opacity="0"/>
</radialGradient>
<radialGradient id="paint46_radial" cx="0" cy="0" r="1" gradientUnits="userSpaceOnUse" gradientTransform="translate(187.5 408.5) rotate(90) scale(408.5 410.5)">
<stop stop-color="white"/>
<stop offset="1" stop-color="white" stop-opacity="0"/>
</radialGradient>
<radialGradient id="paint47_radial" cx="0" cy="0" r="1" gradientUnits="userSpaceOnUse" gradientTransform="translate(187.5 408.5) rotate(90) scale(408.5 410.5)">
<stop stop-color="white"/>
<stop offset="1" stop-color="white" stop-opacity="0"/>
</radialGradient>
<radialGradient id="paint48_radial" cx="0" cy="0" r="1" gradientUnits="userSpaceOnUse" gradientTransform="translate(187.5 408.5) rotate(90) scale(408.5 410.5)">
<stop stop-color="white"/>
<stop offset="1" stop-color="white" stop-opacity="0"/>
</radialGradient>
<radialGradient id="paint49_radial" cx="0" cy="0" r="1" gradientUnits="userSpaceOnUse" gradientTransform="translate(187.5 408.5) rotate(90) scale(408.5 410.5)">
<stop stop-color="white"/>
<stop offset="1" stop-color="white" stop-opacity="0"/>
</radialGradient>
<radialGradient id="paint50_radial" cx="0" cy="0" r="1" gradientUnits="userSpaceOnUse" gradientTransform="translate(187.5 408.5) rotate(90) scale(408.5 410.5)">
<stop stop-color="white"/>
<stop offset="1" stop-color="white" stop-opacity="0"/>
</radialGradient>
<radialGradient id="paint51_radial" cx="0" cy="0" r="1" gradientUnits="userSpaceOnUse" gradientTransform="translate(187.5 408.5) rotate(90) scale(408.5 410.5)">
<stop stop-color="white"/>
<stop offset="1" stop-color="white" stop-opacity="0"/>
</radialGradient>
<radialGradient id="paint52_radial" cx="0" cy="0" r="1" gradientUnits="userSpaceOnUse" gradientTransform="translate(187.5 408.5) rotate(90) scale(408.5 410.5)">
<stop stop-color="white"/>
<stop offset="1" stop-color="white" stop-opacity="0"/>
</radialGradient>
<radialGradient id="paint53_radial" cx="0" cy="0" r="1" gradientUnits="userSpaceOnUse" gradientTransform="translate(187.5 408.5) rotate(90) scale(408.5 410.5)">
<stop stop-color="white"/>
<stop offset="1" stop-color="white" stop-opacity="0"/>
</radialGradient>
<radialGradient id="paint54_radial" cx="0" cy="0" r="1" gradientUnits="userSpaceOnUse" gradientTransform="translate(187.5 408.5) rotate(90) scale(408.5 410.5)">
<stop stop-color="white"/>
<stop offset="1" stop-color="white" stop-opacity="0"/>
</radialGradient>
<radialGradient id="paint55_radial" cx="0" cy="0" r="1" gradientUnits="userSpaceOnUse" gradientTransform="translate(187.5 408.5) rotate(90) scale(408.5 410.5)">
<stop stop-color="white"/>
<stop offset="1" stop-color="white" stop-opacity="0"/>
</radialGradient>
<radialGradient id="paint56_radial" cx="0" cy="0" r="1" gradientUnits="userSpaceOnUse" gradientTransform="translate(187.5 408.5) rotate(90) scale(408.5 410.5)">
<stop stop-color="white"/>
<stop offset="1" stop-color="white" stop-opacity="0"/>
</radialGradient>
<radialGradient id="paint57_radial" cx="0" cy="0" r="1" gradientUnits="userSpaceOnUse" gradientTransform="translate(187.5 408.5) rotate(90) scale(408.5 410.5)">
<stop stop-color="white"/>
<stop offset="1" stop-color="white" stop-opacity="0"/>
</radialGradient>
<radialGradient id="paint58_radial" cx="0" cy="0" r="1" gradientUnits="userSpaceOnUse" gradientTransform="translate(187.5 408.5) rotate(90) scale(408.5 410.5)">
<stop stop-color="white"/>
<stop offset="1" stop-color="white" stop-opacity="0"/>
</radialGradient>
<radialGradient id="paint59_radial" cx="0" cy="0" r="1" gradientUnits="userSpaceOnUse" gradientTransform="translate(187.5 408.5) rotate(90) scale(408.5 410.5)">
<stop stop-color="white"/>
<stop offset="1" stop-color="white" stop-opacity="0"/>
</radialGradient>
<radialGradient id="paint60_radial" cx="0" cy="0" r="1" gradientUnits="userSpaceOnUse" gradientTransform="translate(187.5 408.5) rotate(90) scale(408.5 410.5)">
<stop stop-color="white"/>
<stop offset="1" stop-color="white" stop-opacity="0"/>
</radialGradient>
<radialGradient id="paint61_radial" cx="0" cy="0" r="1" gradientUnits="userSpaceOnUse" gradientTransform="translate(187.5 408.5) rotate(90) scale(408.5 410.5)">
<stop stop-color="white"/>
<stop offset="1" stop-color="white" stop-opacity="0"/>
</radialGradient>
<radialGradient id="paint62_radial" cx="0" cy="0" r="1" gradientUnits="userSpaceOnUse" gradientTransform="translate(187.5 408.5) rotate(90) scale(408.5 410.5)">
<stop stop-color="white"/>
<stop offset="1" stop-color="white" stop-opacity="0"/>
</radialGradient>
<radialGradient id="paint63_radial" cx="0" cy="0" r="1" gradientUnits="userSpaceOnUse" gradientTransform="translate(187.5 408.5) rotate(90) scale(408.5 410.5)">
<stop stop-color="white"/>
<stop offset="1" stop-color="white" stop-opacity="0"/>
</radialGradient>
<radialGradient id="paint64_radial" cx="0" cy="0" r="1" gradientUnits="userSpaceOnUse" gradientTransform="translate(187.5 408.5) rotate(90) scale(408.5 410.5)">
<stop stop-color="white"/>
<stop offset="1" stop-color="white" stop-opacity="0"/>
</radialGradient>
<radialGradient id="paint65_radial" cx="0" cy="0" r="1" gradientUnits="userSpaceOnUse" gradientTransform="translate(187.5 408.5) rotate(90) scale(408.5 410.5)">
<stop stop-color="white"/>
<stop offset="1" stop-color="white" stop-opacity="0"/>
</radialGradient>
<radialGradient id="paint66_radial" cx="0" cy="0" r="1" gradientUnits="userSpaceOnUse" gradientTransform="translate(187.5 408.5) rotate(90) scale(408.5 410.5)">
<stop stop-color="white"/>
<stop offset="1" stop-color="white" stop-opacity="0"/>
</radialGradient>
<radialGradient id="paint67_radial" cx="0" cy="0" r="1" gradientUnits="userSpaceOnUse" gradientTransform="translate(187.5 408.5) rotate(90) scale(408.5 410.5)">
<stop stop-color="white"/>
<stop offset="1" stop-color="white" stop-opacity="0"/>
</radialGradient>
<radialGradient id="paint68_radial" cx="0" cy="0" r="1" gradientUnits="userSpaceOnUse" gradientTransform="translate(187.5 408.5) rotate(90) scale(408.5 410.5)">
<stop stop-color="white"/>
<stop offset="1" stop-color="white" stop-opacity="0"/>
</radialGradient>
<radialGradient id="paint69_radial" cx="0" cy="0" r="1" gradientUnits="userSpaceOnUse" gradientTransform="translate(187.5 408.5) rotate(90) scale(408.5 410.5)">
<stop stop-color="white"/>
<stop offset="1" stop-color="white" stop-opacity="0"/>
</radialGradient>
<radialGradient id="paint70_radial" cx="0" cy="0" r="1" gradientUnits="userSpaceOnUse" gradientTransform="translate(187.5 408.5) rotate(90) scale(408.5 410.5)">
<stop stop-color="white"/>
<stop offset="1" stop-color="white" stop-opacity="0"/>
</radialGradient>
<radialGradient id="paint71_radial" cx="0" cy="0" r="1" gradientUnits="userSpaceOnUse" gradientTransform="translate(187.5 408.5) rotate(90) scale(408.5 410.5)">
<stop stop-color="white"/>
<stop offset="1" stop-color="white" stop-opacity="0"/>
</radialGradient>
<radialGradient id="paint72_radial" cx="0" cy="0" r="1" gradientUnits="userSpaceOnUse" gradientTransform="translate(187.5 408.5) rotate(90) scale(408.5 410.5)">
<stop stop-color="white"/>
<stop offset="1" stop-color="white" stop-opacity="0"/>
</radialGradient>
<radialGradient id="paint73_radial" cx="0" cy="0" r="1" gradientUnits="userSpaceOnUse" gradientTransform="translate(187.5 408.5) rotate(90) scale(408.5 410.5)">
<stop stop-color="white"/>
<stop offset="1" stop-color="white" stop-opacity="0"/>
</radialGradient>
<radialGradient id="paint74_radial" cx="0" cy="0" r="1" gradientUnits="userSpaceOnUse" gradientTransform="translate(187.5 408.5) rotate(90) scale(408.5 410.5)">
<stop stop-color="white"/>
<stop offset="1" stop-color="white" stop-opacity="0"/>
</radialGradient>
<radialGradient id="paint75_radial" cx="0" cy="0" r="1" gradientUnits="userSpaceOnUse" gradientTransform="translate(187.5 408.5) rotate(90) scale(408.5 410.5)">
<stop stop-color="white"/>
<stop offset="1" stop-color="white" stop-opacity="0"/>
</radialGradient>
<radialGradient id="paint76_radial" cx="0" cy="0" r="1" gradientUnits="userSpaceOnUse" gradientTransform="translate(187.5 408.5) rotate(90) scale(408.5 410.5)">
<stop stop-color="white"/>
<stop offset="1" stop-color="white" stop-opacity="0"/>
</radialGradient>
<radialGradient id="paint77_radial" cx="0" cy="0" r="1" gradientUnits="userSpaceOnUse" gradientTransform="translate(187.5 408.5) rotate(90) scale(408.5 410.5)">
<stop stop-color="white"/>
<stop offset="1" stop-color="white" stop-opacity="0"/>
</radialGradient>
<radialGradient id="paint78_radial" cx="0" cy="0" r="1" gradientUnits="userSpaceOnUse" gradientTransform="translate(187.5 408.5) rotate(90) scale(408.5 410.5)">
<stop stop-color="white"/>
<stop offset="1" stop-color="white" stop-opacity="0"/>
</radialGradient>
<radialGradient id="paint79_radial" cx="0" cy="0" r="1" gradientUnits="userSpaceOnUse" gradientTransform="translate(187.5 408.5) rotate(90) scale(408.5 410.5)">
<stop stop-color="white"/>
<stop offset="1" stop-color="white" stop-opacity="0"/>
</radialGradient>
</defs>
</svg>
