<svg width="64" height="64" viewBox="0 0 64 64" fill="none" xmlns="http://www.w3.org/2000/svg">
<path opacity="0.4" d="M31.9999 5.33334C26.7258 5.33334 21.57 6.89732 17.1847 9.82749C12.7994 12.7577 9.38148 16.9224 7.36314 21.7951C5.34481 26.6678 4.81672 32.0296 5.84566 37.2024C6.8746 42.3752 9.41435 47.1268 13.1438 50.8562C16.8732 54.5856 21.6247 57.1253 26.7975 58.1543C31.9704 59.1832 37.3321 58.6551 42.2048 56.6368C47.0775 54.6185 51.2423 51.2005 54.1725 46.8152C57.1026 42.4299 58.6666 37.2742 58.6666 32C58.6666 28.4981 57.9768 25.0305 56.6367 21.7951C55.2966 18.5598 53.3323 15.6201 50.8561 13.1438C48.3799 10.6676 45.4402 8.70335 42.2048 7.36322C38.9695 6.0231 35.5018 5.33334 31.9999 5.33334ZM31.9999 53.3333C27.7806 53.3333 23.656 52.0822 20.1478 49.738C16.6395 47.3939 13.9052 44.0621 12.2905 40.1639C10.6758 36.2658 10.2534 31.9763 11.0765 27.8381C11.8997 23.6998 13.9315 19.8986 16.915 16.9151C19.8985 13.9315 23.6997 11.8997 27.838 11.0766C31.9763 10.2534 36.2657 10.6759 40.1638 12.2906C44.062 13.9053 47.3938 16.6396 49.7379 20.1478C52.0821 23.6561 53.3333 27.7807 53.3333 32C53.3333 37.658 51.0857 43.0842 47.0849 47.085C43.0841 51.0857 37.6579 53.3333 31.9999 53.3333Z" fill="white"/>
<path d="M39.9999 29.3333H34.6666V18.6667C34.6666 17.9594 34.3856 17.2811 33.8855 16.781C33.3854 16.281 32.7072 16 31.9999 16C31.2927 16 30.6144 16.281 30.1143 16.781C29.6142 17.2811 29.3333 17.9594 29.3333 18.6667V32C29.3333 32.7072 29.6142 33.3855 30.1143 33.8856C30.6144 34.3857 31.2927 34.6667 31.9999 34.6667H39.9999C40.7072 34.6667 41.3854 34.3857 41.8855 33.8856C42.3856 33.3855 42.6666 32.7072 42.6666 32C42.6666 31.2928 42.3856 30.6145 41.8855 30.1144C41.3854 29.6143 40.7072 29.3333 39.9999 29.3333Z" fill="#FFC700"/>
</svg>
