<svg width="64" height="64" viewBox="0 0 64 64" fill="none" xmlns="http://www.w3.org/2000/svg">
<path opacity="0.4" d="M31.9999 5.33331C26.7258 5.33331 21.57 6.89729 17.1847 9.82746C12.7994 12.7576 9.38148 16.9224 7.36314 21.7951C5.34481 26.6678 4.81672 32.0296 5.84566 37.2024C6.8746 42.3752 9.41435 47.1268 13.1438 50.8562C16.8732 54.5856 21.6247 57.1253 26.7975 58.1543C31.9704 59.1832 37.3321 58.6551 42.2048 56.6368C47.0775 54.6184 51.2423 51.2005 54.1725 46.8152C57.1026 42.4299 58.6666 37.2741 58.6666 32C58.6666 28.4981 57.9768 25.0304 56.6367 21.7951C55.2966 18.5597 53.3323 15.62 50.8561 13.1438C48.3799 10.6676 45.4402 8.70332 42.2048 7.36319C38.9695 6.02307 35.5018 5.33331 31.9999 5.33331ZM31.9999 53.3333C27.7806 53.3333 23.656 52.0821 20.1478 49.738C16.6395 47.3939 13.9052 44.062 12.2905 40.1639C10.6758 36.2657 10.2534 31.9763 11.0765 27.8381C11.8997 23.6998 13.9315 19.8986 16.915 16.915C19.8985 13.9315 23.6997 11.8997 27.838 11.0766C31.9763 10.2534 36.2657 10.6759 40.1638 12.2906C44.062 13.9052 47.3938 16.6396 49.7379 20.1478C52.0821 23.6561 53.3333 27.7806 53.3333 32C53.3333 37.6579 51.0857 43.0842 47.0849 47.0849C43.0841 51.0857 37.6579 53.3333 31.9999 53.3333Z" fill="white"/>
<path opacity="0.4" d="M37.7777 23.3408C38.4355 22.9013 39.2089 22.6667 40 22.6667C41.0609 22.6667 42.0783 23.0881 42.8284 23.8383C43.5786 24.5884 44 25.6058 44 26.6667C44 27.4578 43.7654 28.2312 43.3259 28.889C42.8864 29.5468 42.2616 30.0595 41.5307 30.3622C40.7998 30.665 39.9956 30.7442 39.2196 30.5898C38.4437 30.4355 37.731 30.0545 37.1716 29.4951C36.6122 28.9357 36.2312 28.223 36.0769 27.447C35.9225 26.6711 36.0017 25.8669 36.3045 25.136C36.6072 24.405 37.1199 23.7803 37.7777 23.3408Z" fill="white"/>
<path opacity="0.4" d="M21.7777 23.3408C22.4355 22.9013 23.2089 22.6667 24 22.6667C25.0609 22.6667 26.0783 23.0881 26.8284 23.8383C27.5786 24.5884 28 25.6058 28 26.6667C28 27.4578 27.7654 28.2312 27.3259 28.889C26.8864 29.5468 26.2616 30.0595 25.5307 30.3622C24.7998 30.665 23.9956 30.7442 23.2196 30.5898C22.4437 30.4355 21.731 30.0545 21.1716 29.4951C20.6122 28.9357 20.2312 28.223 20.0769 27.447C19.9225 26.6711 20.0017 25.8669 20.3045 25.136C20.6072 24.405 21.1199 23.7803 21.7777 23.3408Z" fill="white"/>
<path d="M31.9994 40.1678C34.2892 40.1678 36.5101 39.384 38.2927 37.9467C38.8373 37.4941 39.5393 37.2763 40.2445 37.3414C40.5936 37.3736 40.933 37.4742 41.2433 37.6376C41.5535 37.8009 41.8286 38.0238 42.0527 38.2934C42.5053 38.838 42.7231 39.5401 42.6581 40.2452C42.5931 40.9504 42.2506 41.6008 41.706 42.0534C38.9825 44.327 35.5472 45.5724 31.9994 45.5724C28.4515 45.5724 25.0163 44.327 22.2927 42.0534C21.7481 41.6008 21.4056 40.9504 21.3406 40.2452C21.2756 39.5401 21.4934 38.838 21.946 38.2934C22.3987 37.7488 23.0491 37.4064 23.7542 37.3414C24.4594 37.2763 25.1614 37.4941 25.706 37.9467C27.4886 39.384 29.7095 40.1678 31.9994 40.1678Z" fill="#FFC700"/>
</svg>
