<svg width="80" height="80" fill="none" xmlns="http://www.w3.org/2000/svg"><g opacity=".3" filter="url(#filter0_f_2139_5969)"><path d="M7.515 54.4l-1.913-7.25 16.07-9.156 26.016-6.868L60.316 29.6l15.304 1.526.383 1.145-15.687 12.21-26.783 8.774L7.515 54.4z" fill="#111B2D"/></g><path d="M21.836 26.5a.506.506 0 00.06-.73.506.506 0 00-.73-.06 20.554 20.554 0 00-6.705 10.757v.015l-.387 1.877a.49.49 0 000 .209c.372-.209.76-.418 1.147-.626l.253-1.222c1.013-4.022 3.203-7.553 6.362-10.22z" fill="#fff"/><path d="M58.113 32.206l2.19 8.194c.09-.045.18-.104.283-.164l-2.085-8.015c-.15 0-.268-.015-.388-.015zM27.319 46.791l2.458-.655-2.488-4.5.03 5.155zM63.446 35.29c-.552-2.071-2.667-2.757-4.157-2.98l1.952 7.494c1.221-.88 2.756-2.503 2.205-4.514zm2.904-8.001l-.104-.045v.045h.164c-.015.015-.03 0-.06 0z" fill="#FCFCFC"/><path d="M34.083 20.527c.179-.06.939.044 2.31 1.206.566.477 1.057.611 1.415.611.298 0 .521-.09.655-.164.581-.313.864-1.013.76-1.877-.03-.283.075-.372.104-.402.12-.104.328-.134.507-.075a.511.511 0 00.64-.357.511.511 0 00-.357-.64c-.507-.15-1.088-.046-1.475.282-.373.313-.536.79-.462 1.326.06.462-.074.745-.223.834-.18.105-.537-.03-.894-.342-2.294-1.952-3.308-1.46-3.56-1.281-.224.178-.284.506-.105.73a.517.517 0 00.685.149zm10.235-1.372s.446.223 1.415.998c.179.134 1.713 1.356 2.473 1.639.536.193 1.102.149 1.534-.15.373-.267.596-.685.596-1.146 0-.239.075-.358.105-.373.014 0 .119 0 .298.134.238.179.402.343.566.492.283.283.58.566 1.266.968.462.268.85.373 1.177.373.581 0 .939-.328 1.088-.522.476-.596.432-1.37-.164-2.294-.358-.551-.447-.73-.462-.775a.522.522 0 00-.551-.342.532.532 0 00-.462.58c.015.105.03.21.596 1.103.491.76.298.998.238 1.073-.06.074-.253.313-.924-.09-.566-.328-.804-.566-1.072-.82-.18-.163-.373-.357-.656-.58-.476-.358-.983-.447-1.4-.238-.432.208-.685.7-.685 1.296a.33.33 0 01-.15.298c-.148.104-.357.104-.566.03-.462-.18-1.579-.999-2.19-1.476-1.057-.864-1.564-1.117-1.624-1.132a.511.511 0 00-.685.253.517.517 0 00.239.7zm3.426 35.1a.509.509 0 00-.715.149.509.509 0 00.15.715c.103.074 2.666 1.743 6.271 2.473.03 0 .075.015.105.015a.51.51 0 00.506-.417.513.513 0 00-.402-.611c-3.397-.7-5.885-2.31-5.915-2.324zM36.75 68.572c-3.307-1.103-5.78-2.801-5.81-2.831a.526.526 0 00-.596.864c.104.075 2.622 1.803 6.078 2.965.06.015.105.03.164.03a.51.51 0 00.492-.358.533.533 0 00-.328-.67zm13.676-1.609c-6.63-1.504-12.156-4.365-16.447-8.507a.517.517 0 00-.715.745c4.425 4.276 10.13 7.226 16.939 8.76a.524.524 0 00.626-.387.545.545 0 00-.403-.61z" fill="#fff"/><path d="M76.125 32.22L64.67 35.29c.7 3.53-3.159 5.914-4.187 6.331a.598.598 0 01-.223.045.578.578 0 01-.551-.372.619.619 0 01-.03-.328l-2.399-8.984a.584.584 0 01-.134-.357.599.599 0 01.566-.626c.224-.015 5.393-.194 6.764 3.56l11.457-3.068c-2.876-1.848-5.766-3.144-8.91-4.038.015-.06.03-.104.015-.164-.089-1.46-.76-2.637-.849-2.786-4.976-9.266-14.525-14.69-26.22-14.898-8.224-.149-15.927 2.876-21.677 8.522-5.661 5.557-9.073 13.26-9.58 21.662-.03.343-.119 1.505-.104 1.773 0 .06.015.104.045.164-2.756 1.698-4.336 2.83-4.336 2.83l1.64 6.094 1.638 6.093s2.413.238 6.362.328c.819.953 5.556 6.346 8.864 8.566a.503.503 0 00.715-.149.529.529 0 00-.149-.73c-2.682-1.788-6.466-5.914-8.03-7.672 2.518.03 5.542-.015 8.88-.209 2.383 2.995 5.348 5.065 6.793 6.078l.283.194a.537.537 0 00.73-.134.536.536 0 00-.12-.73l-.282-.194c-1.312-.908-3.904-2.726-6.109-5.303 4.202-.283 8.865-.805 13.632-1.699.298.298 2.13 2.041 5.214 3.859 3.04 1.803 7.926 4.008 13.9 4.29h.03a.523.523 0 00.522-.491.529.529 0 00-.492-.551c-9.252-.432-15.941-5.662-17.878-7.36 3.83-.775 7.703-1.817 11.472-3.188a.3.3 0 00.119.06c1.296.55 5.989 2.338 12.201 2.592h.015a.525.525 0 00.522-.507.51.51 0 00-.507-.536c-5.02-.194-9.013-1.43-10.935-2.145a62.636 62.636 0 004.902-2.16.55.55 0 00.163.074c1.803.432 3.874.864 6.407.864a22.4 22.4 0 003.054-.209c.283-.044.491-.298.447-.58-.045-.284-.298-.492-.581-.448-3.323.447-5.855.09-8.105-.417a46.714 46.714 0 002.786-1.609c.03.015.06.03.09.03.059.015.52.104 2.145.104.61 0 1.385-.015 2.369-.044a.538.538 0 00.506-.537.538.538 0 00-.536-.506c-1.505.06-2.518.06-3.159.044 5.021-3.411 9.341-7.806 12.291-13.497zm-64.3 17.148l-3.859 1.028c-.03.015-.06.015-.089.015a.364.364 0 01-.357-.283.374.374 0 01.268-.462l3.858-1.028c.194-.06.402.06.462.269.06.208-.09.417-.283.461zm11.844 1.654A.609.609 0 0123 50.8l-3.278-4.56-.179 4.947a.577.577 0 01-.402.536c-.06.015-.12.03-.194.03a.578.578 0 01-.462-.223l-5.348-6.57a.593.593 0 11.924-.745l4.35 5.348.179-5.11a.61.61 0 01.417-.551.594.594 0 01.655.223l3.204 4.455-.06-8.477c0-.328.268-.596.596-.596.328 0 .596.268.596.596l.074 10.354c.015.253-.164.477-.402.566zm8.775-1.296a.578.578 0 01-.804-.238l-1.267-2.28-3.039.805.015 2.25a.598.598 0 01-.596.595.598.598 0 01-.596-.596l-.074-10.995c0-.268.178-.506.447-.58a.582.582 0 01.67.282l5.482 9.923c.15.313.045.685-.238.834zm7.97-1.58a.587.587 0 01-.402.15.588.588 0 01-.447-.194l-4.395-4.901-.774 2.309a.765.765 0 00-.045.104l.82 3.07a.598.598 0 01-.418.73c-.044.014-.104.014-.149.014a.604.604 0 01-.58-.447l-3.01-11.174a.598.598 0 01.417-.73.6.6 0 01.73.418l1.639 6.063 2.503-7.39a.6.6 0 011.132.388l-1.803 5.349 4.842 5.407c.209.239.179.611-.06.835zm6.213-1.802l-3.993 1.132c-.06.015-.104.03-.163.03a.678.678 0 01-.298-.074.618.618 0 01-.284-.358L38.88 35.766a.598.598 0 01.417-.73l4.32-1.162a.599.599 0 01.73.417.598.598 0 01-.416.73l-3.74.999 1.192 4.484 3.099-.864c.313-.09.64.09.73.417.09.313-.09.64-.417.73l-3.114.88 1.192 4.498 3.411-.968c.313-.09.641.09.73.417.12.313-.074.64-.387.73zm-.209-21.304c-.79-.745-1.743-1.46-2.726-1.684a.507.507 0 00-.626.388.507.507 0 00.388.625c1.445.358 2.994 2.146 3.665 2.995a.864.864 0 01-.388.64c-.462.284-1.326.224-1.996-.476-1.326-1.37-2.428-1.46-3.024-1.088-.507.313-.67.954-.417 1.654.208.596.104 1.087-.283 1.34-.448.284-1.282.24-2.101-.55a6.905 6.905 0 01-.328-.343l-.938-1.252c-.82-1.057-1.282-1.52-1.297-1.534-1.385-1.386-2.28-1.147-2.607-.968-.477.253-.7.804-.58 1.46.074.402.044.685-.075.834-.12.149-.343.238-.686.268-.953.075-1.534-.7-2.577-2.19-.521-.745-1.102-1.594-1.877-2.428-2.414-2.623-5.885-1.371-6.034-1.326a.538.538 0 00-.313.67.538.538 0 00.67.313c.12-.045 2.965-1.058 4.902 1.043.715.79 1.281 1.594 1.788 2.309.09.134.179.253.268.387-3.978-.521-6.123 2.325-6.153 2.354a.536.536 0 00.104.73.522.522 0 00.73-.104c.09-.12 2.235-2.905 6.332-1.683.611.64 1.296 1.042 2.235.968.655-.045 1.132-.268 1.43-.67.313-.403.402-.954.283-1.67-.03-.208 0-.327.045-.342.074-.044.551-.03 1.385.79 0 0 .447.447 1.207 1.43l.536.715c-8.432 2.443-16.224 6.108-22.123 9.297a122.794 122.794 0 00-5.557 3.173c.015-.328.06-.805.09-1.237.49-8.387 3.932-15.702 9.236-20.917 3.501-2.458 6.585-1.549 6.719-1.504a.52.52 0 00.655-.343.519.519 0 00-.342-.655c-.104-.03-1.818-.552-4.172.03a28.226 28.226 0 015.438-3.248c8.269-1.654 14.958 1.877 15.047 1.921a.49.49 0 00.254.06.564.564 0 00.461-.268.515.515 0 00-.208-.7c-.238-.134-4.961-2.637-11.501-2.488a29.258 29.258 0 018.06-1.118h.55c11.308.209 20.545 5.438 25.327 14.362 0 .015.015.015.015.03s.64 1.058.715 2.324v.045c-.06.223-.238.417-.432.596a.866.866 0 01-.625.253c-.418-.015-1.162-.313-2.384-1.624a4.567 4.567 0 00-.581-.521c-1.594-1.952-3.486-2.965-3.576-3.01a.52.52 0 00-.476.924c.014.015 1.087.58 2.25 1.683-.016.015-.046.015-.06.03-.611.268-.954.954-.894 1.833.015.342-.134.595-.417.685-.492.164-1.326-.12-2.012-1.133-.938-1.415-2.294-1.728-3.143-1.31-.76.372-1.043 1.221-.73 2.175.238.715.015 1.385-.537 1.683-.64.343-1.817.164-3.024-1.445l-1.162-1.311-.894-.939c-.268-.298-.566-.61-.908-.938zm3.084 20.589a.667.667 0 01-.476.209h-.015a.68.68 0 01-.686-.67.63.63 0 01.194-.478.676.676 0 01.492-.208h.015a.68.68 0 01.685.67.734.734 0 01-.209.477zm8.09-2.637a.598.598 0 01-.73-.417l-2.086-7.807-.923 4.082a.598.598 0 01-.432.447.628.628 0 01-.596-.164l-3.114-3.367 2.324 8.641a.598.598 0 01-.417.73c-.045.015-.104.015-.15.015a.604.604 0 01-.58-.447l-2.95-10.965a.575.575 0 01.283-.67.593.593 0 01.73.12l3.993 4.305 1.207-5.319a.588.588 0 01.566-.462.59.59 0 01.58.447l2.712 10.13c.09.284-.09.612-.417.701z" fill="#fff"/><defs><filter id="filter0_f_2139_5969" x="1.602" y="25.6" width="78.398" height="32.8" filterUnits="userSpaceOnUse" color-interpolation-filters="sRGB"><feFlood flood-opacity="0" result="BackgroundImageFix"/><feBlend in="SourceGraphic" in2="BackgroundImageFix" result="shape"/><feGaussianBlur stdDeviation="2" result="effect1_foregroundBlur_2139_5969"/></filter></defs></svg>