<svg xmlns="http://www.w3.org/2000/svg" xmlns:xlink="http://www.w3.org/1999/xlink"><defs>
<clipPath id="clip0">
<rect width="64" height="64" fill="white"/>
</clipPath>

<clipPath id="clip0">
<rect width="64" height="64" fill="white"/>
</clipPath>
</defs><symbol id="fi_close" viewBox="0 0 16 16">
<g>
<path d="M12 4L4 12" stroke-width="1.5" stroke-linecap="round" stroke-linejoin="round"/>
<path d="M4 4L12 12" stroke-width="1.5" stroke-linecap="round" stroke-linejoin="round"/>
</g>
</symbol><symbol id="fi_facebook" viewBox="0 0 24 24">
<path d="M18 2H15C13.6739 2 12.4021 2.52678 11.4645 3.46447C10.5268 4.40215 10 5.67392 10 7V10H7V14H10V22H14V14H17L18 10H14V7C14 6.73478 14.1054 6.48043 14.2929 6.29289C14.4804 6.10536 14.7348 6 15 6H18V2Z" stroke="white" stroke-width="2" stroke-linecap="round" stroke-linejoin="round"/>
</symbol><symbol id="fi_instagram" viewBox="0 0 24 24">
<path d="M17 2H7C4.23858 2 2 4.23858 2 7V17C2 19.7614 4.23858 22 7 22H17C19.7614 22 22 19.7614 22 17V7C22 4.23858 19.7614 2 17 2Z" stroke="white" stroke-width="2" stroke-linecap="round" stroke-linejoin="round"/>
<path d="M16.0002 11.37C16.1236 12.2022 15.9815 13.0522 15.594 13.799C15.2065 14.5458 14.5933 15.1514 13.8418 15.5297C13.0903 15.9079 12.2386 16.0396 11.408 15.9059C10.5773 15.7723 9.80996 15.3801 9.21503 14.7852C8.62011 14.1902 8.22793 13.4229 8.09426 12.5922C7.9606 11.7615 8.09226 10.9099 8.47052 10.1584C8.84878 9.40685 9.45438 8.79374 10.2012 8.40624C10.948 8.01874 11.7979 7.87658 12.6302 8C13.4791 8.12588 14.265 8.52146 14.8719 9.1283C15.4787 9.73515 15.8743 10.5211 16.0002 11.37Z" stroke="white" stroke-width="2" stroke-linecap="round" stroke-linejoin="round"/>
<path d="M17.5 6.5H17.51" stroke="white" stroke-width="2" stroke-linecap="round" stroke-linejoin="round"/>
</symbol><symbol id="fi_life-buoy" viewBox="0 0 64 64">
<g opacity="0.4">
<path fill-rule="evenodd" clip-rule="evenodd" d="M32.0002 8.33331C18.9294 8.33331 8.3335 18.9292 8.3335 32C8.3335 45.0707 18.9294 55.6666 32.0002 55.6666C45.0709 55.6666 55.6668 45.0707 55.6668 32C55.6668 18.9292 45.0709 8.33331 32.0002 8.33331ZM2.3335 32C2.3335 15.6155 15.6157 2.33331 32.0002 2.33331C48.3846 2.33331 61.6668 15.6155 61.6668 32C61.6668 48.3844 48.3846 61.6666 32.0002 61.6666C15.6157 61.6666 2.3335 48.3844 2.3335 32Z" fill="white"/>
<path fill-rule="evenodd" clip-rule="evenodd" d="M37.4256 37.4253C38.5972 36.2537 40.4967 36.2537 41.6683 37.4253L52.9749 48.732C54.1465 49.9035 54.1465 51.803 52.9749 52.9746C51.8034 54.1462 49.9039 54.1462 48.7323 52.9746L37.4256 41.6679C36.2541 40.4964 36.2541 38.5969 37.4256 37.4253Z" fill="white"/>
<path fill-rule="evenodd" clip-rule="evenodd" d="M26.5747 37.4253C27.7463 38.5969 27.7463 40.4964 26.5747 41.6679L15.268 52.9746C14.0965 54.1462 12.197 54.1462 11.0254 52.9746C9.85382 51.803 9.85382 49.9035 11.0254 48.732L22.3321 37.4253C23.5036 36.2537 25.4031 36.2537 26.5747 37.4253Z" fill="white"/>
<path fill-rule="evenodd" clip-rule="evenodd" d="M51.0816 12.9187C52.2532 14.0903 52.2532 15.9897 51.0816 17.1613L41.6683 26.5747C40.4967 27.7462 38.5972 27.7462 37.4256 26.5747C36.2541 25.4031 36.2541 23.5036 37.4256 22.332L46.839 12.9187C48.0105 11.7471 49.91 11.7471 51.0816 12.9187Z" fill="white"/>
<path fill-rule="evenodd" clip-rule="evenodd" d="M11.0254 11.0253C12.197 9.85374 14.0965 9.85374 15.268 11.0253L26.5747 22.332C27.7463 23.5036 27.7463 25.403 26.5747 26.5746C25.4031 27.7462 23.5036 27.7462 22.3321 26.5746L11.0254 15.268C9.85382 14.0964 9.85382 12.1969 11.0254 11.0253Z" fill="white"/>
</g>
<path fill-rule="evenodd" clip-rule="evenodd" d="M32.0002 24.3333C27.766 24.3333 24.3335 27.7658 24.3335 32C24.3335 36.2342 27.766 39.6666 32.0002 39.6666C36.2343 39.6666 39.6668 36.2342 39.6668 32C39.6668 27.7658 36.2343 24.3333 32.0002 24.3333ZM18.3335 32C18.3335 24.4521 24.4523 18.3333 32.0002 18.3333C39.5481 18.3333 45.6668 24.4521 45.6668 32C45.6668 39.5479 39.5481 45.6666 32.0002 45.6666C24.4523 45.6666 18.3335 39.5479 18.3335 32Z" fill="#FFC700"/>
</symbol><symbol id="fi_map-pin" viewBox="0 0 64 64">
<g clip-path="url(#clip0)">
<path opacity="0.4" fill-rule="evenodd" clip-rule="evenodd" d="M31.7217 5.93814C26.2095 5.93814 20.9232 8.12783 17.0255 12.0255C13.1278 15.9232 10.9381 21.2095 10.9381 26.7216C10.9381 34.7654 16.1807 42.6188 22.0008 48.7622C24.8501 51.7698 27.7094 54.2331 29.8598 55.9454C30.569 56.5101 31.1984 56.991 31.7217 57.3808C32.2449 56.991 32.8743 56.5101 33.5835 55.9454C35.7339 54.2331 38.5932 51.7698 41.4425 48.7622C47.2626 42.6188 52.5052 34.7654 52.5052 26.7216C52.5052 21.2095 50.3155 15.9232 46.4178 12.0255C42.5201 8.12783 37.2338 5.93814 31.7217 5.93814ZM31.7217 61.0309C30.0747 63.5013 30.074 63.5009 30.0731 63.5003L30.0652 63.495L30.047 63.4828L29.9853 63.441C29.9331 63.4056 29.859 63.3549 29.7644 63.2894C29.5753 63.1584 29.3041 62.968 28.9627 62.7214C28.2801 62.2284 27.3148 61.5096 26.1608 60.5907C23.8576 58.7566 20.7788 56.1065 17.69 52.8461C11.6337 46.4534 5 37.1522 5 26.7216C5 19.6346 7.81531 12.8379 12.8266 7.82659C17.8379 2.81531 24.6346 0 31.7217 0C38.8087 0 45.6054 2.81531 50.6167 7.82659C55.628 12.8379 58.4433 19.6346 58.4433 26.7216C58.4433 37.1522 51.8096 46.4534 45.7533 52.8461C42.6645 56.1065 39.5857 58.7566 37.2825 60.5907C36.1285 61.5096 35.1632 62.2284 34.4806 62.7214C34.1392 62.968 33.868 63.1584 33.6789 63.2894C33.5843 63.3549 33.5102 63.4056 33.458 63.441L33.3963 63.4828L33.3781 63.495L33.3702 63.5003C33.3693 63.5009 33.3686 63.5013 31.7217 61.0309ZM31.7217 61.0309L33.3686 63.5013C32.3713 64.1662 31.072 64.1662 30.0747 63.5013L31.7217 61.0309Z" fill="white"/>
<path fill-rule="evenodd" clip-rule="evenodd" d="M31.7216 21.7732C28.9886 21.7732 26.7731 23.9887 26.7731 26.7217C26.7731 29.4546 28.9886 31.6701 31.7216 31.6701C34.4545 31.6701 36.67 29.4546 36.67 26.7217C36.67 23.9887 34.4545 21.7732 31.7216 21.7732ZM20.835 26.7217C20.835 20.7092 25.7091 15.8351 31.7216 15.8351C37.7341 15.8351 42.6082 20.7092 42.6082 26.7217C42.6082 32.7342 37.7341 37.6083 31.7216 37.6083C25.7091 37.6083 20.835 32.7342 20.835 26.7217Z" fill="#FFC700"/>
</g>

</symbol><symbol id="fi_sun" viewBox="0 0 64 64">
<g clip-path="url(#clip0)">
<path fill-rule="evenodd" clip-rule="evenodd" d="M46.686 46.6868C47.8456 45.5273 49.7255 45.5273 50.885 46.6868L54.6327 50.4345C55.7923 51.594 55.7923 53.474 54.6327 54.6335C53.4732 55.793 51.5933 55.793 50.4338 54.6335L46.686 50.8858C45.5265 49.7262 45.5265 47.8463 46.686 46.6868Z" fill="#FFC700"/>
<g opacity="0.4">
<path fill-rule="evenodd" clip-rule="evenodd" d="M32.0004 52.7847C33.6402 52.7847 34.9695 54.114 34.9695 55.7538V61.0323C34.9695 62.6721 33.6402 64.0014 32.0004 64.0014C30.3606 64.0014 29.0312 62.6721 29.0312 61.0323V55.7538C29.0312 54.114 30.3606 52.7847 32.0004 52.7847Z" fill="white"/>
<path fill-rule="evenodd" clip-rule="evenodd" d="M17.3124 46.6865C18.4719 47.8461 18.4719 49.726 17.3124 50.8855L13.5647 54.6332C12.4052 55.7927 10.5253 55.7927 9.36573 54.6332C8.20621 53.4737 8.20621 51.5938 9.36573 50.4342L13.1134 46.6865C14.273 45.527 16.1529 45.527 17.3124 46.6865Z" fill="white"/>
<path fill-rule="evenodd" clip-rule="evenodd" d="M52.7852 32.0009C52.7852 30.3611 54.1145 29.0317 55.7543 29.0317H61.0327C62.6726 29.0317 64.0019 30.3611 64.0019 32.0009C64.0019 33.6407 62.6726 34.97 61.0327 34.97H55.7543C54.1145 34.97 52.7852 33.6407 52.7852 32.0009Z" fill="white"/>
<path fill-rule="evenodd" clip-rule="evenodd" d="M0 32.0008C0 30.361 1.32933 29.0317 2.96913 29.0317H8.24759C9.8874 29.0317 11.2167 30.361 11.2167 32.0008C11.2167 33.6406 9.8874 34.9699 8.24759 34.9699H2.96913C1.32933 34.9699 0 33.6406 0 32.0008Z" fill="white"/>
<path fill-rule="evenodd" clip-rule="evenodd" d="M32.0006 21.7736C26.3524 21.7736 21.7736 26.3524 21.7736 32.0006C21.7736 37.6489 26.3524 42.2277 32.0006 42.2277C37.6489 42.2277 42.2277 37.6489 42.2277 32.0006C42.2277 26.3524 37.6489 21.7736 32.0006 21.7736ZM15.8354 32.0006C15.8354 23.0728 23.0728 15.8354 32.0006 15.8354C40.9285 15.8354 48.1659 23.0728 48.1659 32.0006C48.1659 40.9285 40.9285 48.1659 32.0006 48.1659C23.0728 48.1659 15.8354 40.9285 15.8354 32.0006Z" fill="white"/>
<path fill-rule="evenodd" clip-rule="evenodd" d="M54.633 9.3682C55.7925 10.5277 55.7925 12.4077 54.633 13.5672L50.8853 17.3149C49.7258 18.4744 47.8458 18.4744 46.6863 17.3149C45.5268 16.1554 45.5268 14.2754 46.6863 13.1159L50.434 9.3682C51.5935 8.20868 53.4735 8.20868 54.633 9.3682Z" fill="white"/>
<path fill-rule="evenodd" clip-rule="evenodd" d="M9.36573 9.36817C10.5253 8.20866 12.4052 8.20866 13.5647 9.36817L17.3124 13.1159C18.4719 14.2754 18.4719 16.1553 17.3124 17.3149C16.1529 18.4744 14.273 18.4744 13.1134 17.3149L9.36573 13.5672C8.20621 12.4076 8.20621 10.5277 9.36573 9.36817Z" fill="white"/>
<path fill-rule="evenodd" clip-rule="evenodd" d="M32.0004 0C33.6402 0 34.9695 1.32933 34.9695 2.96913V8.24759C34.9695 9.8874 33.6402 11.2167 32.0004 11.2167C30.3606 11.2167 29.0312 9.8874 29.0312 8.24759V2.96913C29.0312 1.32933 30.3606 0 32.0004 0Z" fill="white"/>
</g>
</g>

</symbol><symbol id="group_alt" viewBox="0 0 64 64">
<path d="M55.9998 30.6666C55.9998 35.8213 51.8212 40 46.6665 40C41.5118 40 37.3332 35.8213 37.3332 30.6666C37.3332 25.512 41.5118 21.3333 46.6665 21.3333C51.8212 21.3333 55.9998 25.512 55.9998 30.6666ZM50.6665 30.6666C50.6665 28.4575 48.8756 26.6666 46.6665 26.6666C44.4574 26.6666 42.6665 28.4575 42.6665 30.6666C42.6665 32.8758 44.4574 34.6666 46.6665 34.6666C48.8756 34.6666 50.6665 32.8758 50.6665 30.6666Z" fill="#FFC700"/>
<path d="M53.3332 53.3333C53.3332 54.8061 54.5271 56 55.9998 56C57.4726 56 58.6665 54.8061 58.6665 53.3333C58.6665 46.7059 53.2939 42.6666 46.6665 42.6666C40.0391 42.6666 34.6665 46.7059 34.6665 53.3333C34.6665 54.8061 35.8604 56 37.3332 56C38.8059 56 39.9998 54.8061 39.9998 53.3333C39.9998 49.6514 42.9846 48 46.6665 48C50.3484 48 53.3332 49.6514 53.3332 53.3333Z" fill="#FFC700"/>
<g opacity="0.4">
<path d="M29.3335 18.6667C29.3335 24.5577 24.5579 29.3333 18.6668 29.3333C12.7758 29.3333 8.00016 24.5577 8.00016 18.6667C8.00016 12.7756 12.7758 8 18.6668 8C24.5579 8 29.3335 12.7756 29.3335 18.6667ZM24.0002 18.6667C24.0002 15.7211 21.6123 13.3333 18.6668 13.3333C15.7213 13.3333 13.3335 15.7211 13.3335 18.6667C13.3335 21.6122 15.7213 24 18.6668 24C21.6123 24 24.0002 21.6122 24.0002 18.6667Z" fill="white"/>
<path d="M29.3335 56C27.8607 56 26.6668 54.8061 26.6668 53.3333V45.3333C26.6668 40.9151 23.0851 37.3333 18.6668 37.3333C14.2486 37.3333 10.6668 40.9151 10.6668 45.3333V53.3333C10.6668 54.8061 9.47292 56 8.00016 56C6.5274 56 5.3335 54.8061 5.3335 53.3333V45.3333C5.3335 37.9695 11.303 32 18.6668 32C26.0306 32 32.0002 37.9695 32.0002 45.3333V53.3333C32.0002 54.8061 30.8063 56 29.3335 56Z" fill="white"/>
</g>
</symbol><symbol id="logo" viewBox="0 0 126 100">
<path d="M76.5496 75.4879C76.4272 75.3659 76.1824 75.366 76.06 75.6099C75.9376 75.7318 75.9377 75.9757 76.1824 76.0976C76.3048 76.2196 80.5888 79.0245 86.5864 80.244C86.5864 80.244 86.5864 80.244 86.7088 80.244C86.8312 80.244 87.076 80.1221 87.076 80.0001C87.076 79.7562 86.9536 79.6342 86.8312 79.5123C80.956 78.2928 76.672 75.4879 76.5496 75.4879Z" fill="white"/>
<path d="M70.7972 100C71.042 100 71.1645 99.878 71.2868 99.7561C71.4092 99.5122 71.2868 99.3902 71.042 99.2683C65.2892 97.439 61.1276 94.5122 61.0052 94.3902C60.8828 94.2682 60.638 94.2683 60.5156 94.5122C60.3932 94.6342 60.3932 94.878 60.638 95C60.638 95 64.922 98.0488 70.7972 100Z" fill="white"/>
<path d="M88.3004 74.6339C88.0556 74.5119 87.8108 74.6339 87.6884 74.8778C87.566 75.1217 87.6884 75.2437 87.9332 75.3656H88.0556C91.7276 76.829 95.8892 78.4144 104.09 78.9022C104.335 78.9022 104.457 78.7803 104.457 78.5364C104.457 78.2925 104.335 78.1705 104.09 78.1705C96.0116 77.6827 92.0948 76.2193 88.3004 74.6339Z" fill="white"/>
<path d="M81.2006 97.8048C81.323 97.8048 81.5679 97.6829 81.5679 97.561C81.5679 97.3171 81.4454 97.1951 81.323 97.0732C69.9398 94.5122 60.5151 89.6341 53.1711 82.5609C53.0487 82.439 52.8039 82.439 52.6815 82.5609C52.5591 82.6829 52.5591 82.9268 52.6815 83.0488C60.0255 90.2439 69.6951 95.1219 81.2006 97.8048Z" fill="white"/>
<path d="M48.7648 98.5366C45.3376 97.1951 41.5432 94.2683 41.5432 94.1463C41.4208 94.0244 41.176 94.0244 41.0536 94.1463C40.9312 94.2683 40.9312 94.5122 41.0536 94.6342C41.176 94.7561 44.9704 97.6829 48.52 99.1463H48.6424C48.7648 99.1463 48.8872 99.0244 49.0096 98.9024C49.132 98.7805 49.0096 98.5366 48.7648 98.5366Z" fill="white"/>
<path d="M103.968 42.8045C102.866 38.9021 98.827 37.8045 96.1343 37.4386L99.6838 51.0972C101.887 49.6338 104.947 46.707 103.968 42.8045Z" fill="white"/>
<path d="M41.7885 62.9267L46.9293 61.5853L41.7885 52.195V62.9267Z" fill="white"/>
<path d="M94.1761 37.317L98.0929 52.0731C98.3378 51.9511 98.7049 51.8292 99.0721 51.5853L95.4001 37.4389C94.7881 37.317 94.4209 37.317 94.1761 37.317Z" fill="white"/>
<path d="M89.7697 7.31707C82.0585 2.68292 73.0009 0.243903 63.6986 0C63.3314 0 63.0866 0 62.7194 0C49.2554 0 36.6482 4.99999 27.2234 14.2683C17.6762 23.5366 12.0459 36.3415 11.0667 50.4879C4.33468 54.5123 0.295495 57.4391 0.173095 57.561C0.0506954 57.683 -0.071699 57.8049 0.0507007 57.9269L5.80347 79.2684C5.80347 79.3904 6.04828 79.5123 6.17068 79.5123L8.61867 79.6342C9.10827 79.6342 13.5147 80.122 20.6139 80.244C21.4706 81.3416 28.2026 90.366 34.8122 93.9025H34.9346C35.057 93.9025 35.1794 93.7806 35.3018 93.6586C35.4242 93.4147 35.3018 93.2928 35.1794 93.1708C29.3042 90.0001 23.1842 82.3172 21.5931 80.122C22.4498 80.122 23.3066 80.122 24.2858 80.122C26.489 80.122 28.937 80.1221 31.5074 80.0001C32.7314 81.8294 34.9346 84.6342 38.6066 87.4391C38.729 87.4391 38.729 87.5611 38.8514 87.5611C38.9738 87.5611 39.0962 87.5611 39.0962 87.4391C39.2186 87.3172 39.2186 87.0733 38.9738 86.9513C35.669 84.3903 33.4658 81.8294 32.2418 80.0001C34.0778 79.8782 36.0362 79.8781 37.9946 79.7562C42.0338 85.0001 47.1746 88.5367 49.745 90.244L50.2346 90.6098C50.357 90.6098 50.357 90.7318 50.4794 90.7318C50.6018 90.7318 50.7242 90.7318 50.8466 90.6098C50.969 90.4879 50.9689 90.244 50.7241 90.122L50.2346 89.7562C47.7866 88.0489 42.8906 84.6342 38.9738 79.7562C44.7266 79.3903 50.969 78.7806 57.4561 77.683C59.2921 77.4391 61.1281 77.0732 62.9641 76.7074C62.9641 76.7074 62.9641 76.7074 62.9641 76.8294C63.0865 76.9513 75.4489 88.9025 94.6657 89.7562C94.9105 89.7562 95.0329 89.6343 95.0329 89.3904C95.0329 89.1465 94.9105 89.0245 94.6657 89.0245C77.4073 88.1708 65.7794 78.4147 63.821 76.5854C71.5322 75.0001 78.7537 73.0489 85.2409 70.6098C89.2801 72.3172 95.8897 74.3903 104.702 74.7562C104.947 74.7562 105.07 74.6342 105.07 74.3903C105.07 74.1464 104.947 74.0245 104.702 74.0245C96.5017 73.6586 90.2593 71.8294 86.2201 70.244C89.6473 68.9025 92.9521 67.4391 96.0121 65.8537C96.0121 65.8537 96.0121 65.8537 96.1345 65.8537H96.2569C99.1945 66.5854 101.887 67.1952 105.804 67.1952C107.273 67.1952 108.986 67.0732 110.945 66.8293C111.19 66.8293 111.312 66.5854 111.312 66.4635C111.312 66.2196 111.067 66.0976 110.945 66.0976C104.702 66.9513 101.03 66.0976 97.2361 65.244C99.3169 64.1464 101.398 62.9269 103.356 61.5855C103.478 61.7074 103.846 61.8293 105.804 61.8293C106.661 61.8293 108.007 61.8294 109.721 61.7074C109.966 61.7074 110.088 61.4635 110.088 61.3415C110.088 61.0976 109.966 60.9757 109.721 60.9757C106.294 61.0976 104.825 61.0976 104.335 60.9757C114.005 54.5123 121.226 46.5854 126 37.1952C126 37.1952 125.878 37.1952 125.755 37.3171C125.51 37.4391 124.898 37.561 124.898 37.561L105.314 42.8049C106.661 48.6586 100.174 52.683 98.4601 53.2927C98.3376 53.2927 98.3377 53.2927 98.2153 53.2927C97.9705 53.2927 97.7257 53.1708 97.6033 52.9269C97.6033 52.9269 97.6033 52.8049 97.4809 52.8049L93.1969 36.8293C93.1969 36.7073 93.1969 36.5854 93.3193 36.4634C93.4417 36.3415 93.5641 36.2196 93.8089 36.0976C94.1761 36.0976 102.866 35.7317 104.947 42.0732L124.531 36.8293C124.531 36.8293 125.143 36.5854 125.388 36.5854C125.51 36.5854 125.633 36.5854 125.633 36.5854C120.125 32.683 114.25 28.9024 108.374 27.0732C108.252 26.5854 108.007 26.2196 108.007 26.2196C103.723 18.4147 97.3585 11.8293 89.7697 7.31707ZM117.31 32.0732C114.494 30.8537 111.679 29.8781 108.619 29.0244C108.619 28.6585 108.497 28.2927 108.497 27.9268C111.557 28.9025 114.494 30.3658 117.31 32.0732ZM15.8402 66.4635L9.23066 68.1708H9.10827C8.98587 68.1708 8.74106 68.0488 8.74106 67.9269C8.74106 67.683 8.86347 67.561 8.98587 67.4391L15.5954 65.7318C15.8402 65.7318 15.9627 65.8537 16.0851 65.9757C16.0851 66.2196 15.9626 66.4635 15.8402 66.4635ZM35.9138 69.1464C35.669 69.2683 35.4242 69.1464 35.1794 68.9025L28.937 60.244L28.5698 69.7561C28.5698 70.0001 28.4474 70.244 28.0802 70.3659C27.9578 70.3659 27.9578 70.3659 27.8354 70.3659C27.5906 70.3659 27.4682 70.244 27.3458 70.122L18.2882 59.0244C18.0434 58.7805 18.1658 58.4147 18.4106 58.1708C18.6554 57.9269 19.0226 58.0488 19.2675 58.2927L27.3458 68.1708L27.713 58.5366C27.713 58.2927 27.9578 58.0488 28.2026 57.9269C28.4474 57.8049 28.6922 57.9269 28.937 58.1708L35.057 66.7074L34.9346 51.0976C34.9346 50.7318 35.1794 50.4879 35.5466 50.4879C35.9138 50.4879 36.1586 50.7318 36.1586 51.0976L36.281 68.6586C36.281 68.9025 36.1586 69.1464 35.9138 69.1464ZM2.86588 58.2927L2.62109 58.4147L8.12907 78.7806L6.41546 78.6586L0.78511 57.8049C3.3555 55.9757 29.0594 38.1707 58.925 30L59.7817 30.9756C29.3042 39.7561 3.11068 58.1708 2.86588 58.2927ZM50.7241 67.0732C50.4794 67.1952 49.9898 67.0732 49.8674 66.8293L47.5418 62.683L41.789 64.1464V68.2928C41.789 68.6586 41.5442 68.9025 41.177 68.9025C40.8098 68.9025 40.565 68.6586 40.565 68.2928L40.4426 49.7561C40.4426 49.5122 40.6874 49.2683 40.9322 49.1464C41.177 49.0244 41.5442 49.1464 41.6666 49.3903L50.969 66.2196C51.0914 66.4635 50.9689 66.8293 50.7241 67.0732ZM64.1881 64.3903C64.0658 64.5122 63.9434 64.5122 63.821 64.5122C63.6986 64.5122 63.4538 64.3903 63.3314 64.2683L55.4978 55.4879L53.9066 60C53.9066 60.122 53.7841 60.122 53.7841 60.244L55.253 65.6098C55.3754 65.9757 55.1306 66.3416 54.7634 66.3416H54.641C54.3962 66.3416 54.1514 66.0976 54.029 65.8537L48.8882 46.9513C48.7658 46.5854 49.0106 46.2196 49.3778 46.2196C49.745 46.2196 50.1122 46.3415 50.1122 46.7074L53.1722 58.1708L57.8234 44.5123C57.9458 44.1464 58.3129 44.0244 58.6801 44.1464C59.0473 44.2683 59.1698 44.6342 59.0474 45L55.865 54.2684L64.1881 63.5367C64.433 63.7806 64.433 64.1464 64.1881 64.3903ZM74.8369 61.3415L68.1049 63.2927H67.9825C67.8601 63.2927 67.7377 63.2927 67.6153 63.1708C67.4929 63.0488 67.3706 62.9269 67.3706 62.805L62.2297 43.6586C62.1073 43.2927 62.3522 42.9268 62.7194 42.9268L70.0634 40.9756C70.4306 40.8537 70.7977 41.0976 70.7977 41.4634C70.9201 41.8293 70.6753 42.1952 70.3081 42.1952L63.5761 44.0245L65.7793 52.3171L71.4097 50.7318C71.7769 50.6098 72.1441 50.8537 72.1441 51.2196C72.2665 51.5854 72.0217 51.9513 71.6545 51.9513L66.0242 53.5366L68.2274 61.8293L74.3473 60.122C74.7145 60.0001 75.0817 60.2439 75.0817 60.6098C75.4489 60.8537 75.2041 61.2196 74.8369 61.3415ZM79.7329 60.3659C79.4881 60.6098 79.2433 60.7318 78.9985 60.7318C78.3865 60.7318 78.0193 60.244 77.8969 59.7562C77.8969 59.5123 78.0193 59.2683 78.1417 59.0244C78.3865 58.7805 78.6313 58.6586 78.8761 58.6586C79.4881 58.6586 79.8553 59.1464 79.9777 59.6342C80.1001 59.8781 79.9777 60.122 79.7329 60.3659ZM93.9313 54.8781C94.0537 55.244 93.8088 55.6098 93.4416 55.6098C93.0744 55.7318 92.7073 55.4879 92.7073 55.122L88.7905 40.4878L86.8321 48.9025C86.8321 49.1464 86.5873 49.2683 86.3425 49.3903C86.0977 49.3903 85.8529 49.3903 85.7305 49.2684L79.3657 42.439L83.7721 58.5366C83.8945 58.9025 83.6497 59.2684 83.2825 59.2684H83.1601C82.9153 59.2684 82.6705 59.0245 82.5481 58.7806L77.5297 40.2439C77.4073 40 77.5297 39.6342 77.7745 39.5122C78.0193 39.3903 78.3865 39.3903 78.5089 39.6342L85.7305 47.4391L87.9337 37.683C88.0561 37.4391 88.3009 37.1952 88.5457 37.1952C88.7905 37.1952 89.0353 37.4391 89.1577 37.683L93.9313 54.8781ZM107.885 29.2683C107.885 29.8781 107.64 30.4878 107.273 30.7317C106.906 31.0976 106.538 31.2195 106.049 31.2195C104.947 31.2195 103.478 30.2439 101.887 28.4146L101.765 28.2927C99.0721 24.6342 94.9104 22.8049 94.788 22.6829C94.5433 22.561 94.4209 22.6829 94.2985 22.9268C94.1761 23.1707 94.2985 23.2927 94.5433 23.4146C94.5433 23.4146 97.1137 24.6342 99.5617 26.8293C99.0721 26.7073 98.5825 26.7073 98.0929 26.9512C97.1137 27.3171 96.6241 28.4146 96.7465 29.7561C96.7465 30.4878 96.5017 30.9756 95.8897 31.2195C94.9105 31.5854 93.4417 30.9756 92.2177 29.1464C90.7489 26.8293 88.5457 26.3415 87.1993 27.0732C85.9753 27.6829 85.6081 29.0244 86.0977 30.4878C86.5873 31.8293 86.0977 33.0488 84.9961 33.6586C83.7721 34.2683 81.6913 34.0244 79.6105 31.0976L77.6521 28.9025C77.1625 28.4147 73.613 24.0244 70.0634 23.1707C69.8186 23.1707 69.6961 23.2927 69.5737 23.4146C69.5737 23.6585 69.6961 23.7805 69.8185 23.9024C72.1441 24.5122 74.5921 26.7073 75.9385 28.1707V28.2927C76.3057 29.3903 76.1833 30.3659 75.3265 30.8537C74.4697 31.4634 72.8785 31.3415 71.6545 30C69.5737 27.8049 67.7378 27.6829 66.881 28.1707C66.1466 28.6585 65.9017 29.6341 66.2689 30.6098C66.6361 31.7073 66.5137 32.683 65.7793 33.0488C65.0449 33.5366 63.4538 33.4147 61.985 31.9513C61.6178 31.5854 61.3729 31.2195 61.0057 30.8537L60.761 30.6098L59.6594 29.3902C58.313 27.8049 57.5786 27.0732 57.5786 27.0732C56.1098 25.6098 54.5186 25 53.5394 25.4878C52.9274 25.8537 52.5602 26.5854 52.805 27.4391C52.9274 28.2927 52.9273 28.9025 52.5602 29.2683C52.3153 29.6342 51.7034 29.8781 50.969 29.8781C49.0106 30 47.7866 28.2927 46.1954 25.9756C45.3386 24.7561 44.3594 23.2927 43.013 21.9512C39.0962 17.8049 33.3434 19.8781 33.3434 19.8781C33.0986 20 33.0986 20.122 33.0986 20.3659C33.221 20.6098 33.3434 20.6098 33.5882 20.6098C33.5882 20.6098 38.9738 18.6586 42.401 22.561C43.1354 23.2927 43.7474 24.1463 44.3594 24.878C40.0754 22.8049 35.057 25.3659 34.9346 25.3659C34.6898 25.4878 34.6898 25.7317 34.8122 25.8537C34.9346 26.0976 35.1794 26.0976 35.3018 25.9756C35.4242 25.9756 41.4218 22.8049 45.5834 26.4634C46.073 27.0732 46.4402 27.6829 46.8074 28.1707C41.5442 27.9268 37.6274 33.4147 37.3826 33.6586C37.2602 33.7805 37.2602 34.0244 37.505 34.1464C37.6274 34.1464 37.6274 34.2683 37.7498 34.2683C37.8722 34.2683 37.9946 34.2683 38.117 34.1464C38.117 34.1464 42.401 28.2927 47.6642 29.0244C48.6434 30.122 49.745 30.7317 51.0914 30.6098C52.0706 30.4878 52.805 30.2439 53.1722 29.6342C53.6618 29.0244 53.7842 28.2927 53.5394 27.1951C53.417 26.7073 53.5394 26.2195 53.9066 26.0976C54.3962 25.8537 55.4978 25.9756 57.089 27.4391C57.2114 27.561 57.701 28.1708 58.6801 29.2683C47.0522 32.4391 36.0362 37.0732 26.8562 41.7074C28.2026 39.2683 29.549 37.1952 31.2626 35.4878C31.385 35.3659 31.385 35.122 31.2626 35C31.1402 34.8781 30.8954 34.8781 30.773 35C28.8146 36.9513 27.2234 39.3903 25.7546 42.3171C24.5306 42.9269 23.3066 43.5366 22.0826 44.2683C23.9186 37.6829 27.5906 31.9512 32.8538 27.561C32.9762 27.439 32.9762 27.1951 32.8538 27.0732C32.7314 26.9512 32.4866 26.9512 32.3642 27.0732C26.8562 31.7073 22.9394 37.9268 21.2258 44.8781C17.9211 46.7074 14.861 48.4147 12.2907 49.8781C13.2698 35.8537 19.1451 23.6586 28.0802 14.8781C34.3226 10.4878 39.953 12.1951 39.953 12.1951C40.1978 12.3171 40.3202 12.1951 40.4426 11.9512C40.565 11.7073 40.4426 11.5854 40.1978 11.4634C39.953 11.3415 35.7914 10.1219 30.6506 12.439C34.2002 9.39024 38.117 6.95122 42.401 5C56.7218 2.07316 68.2273 8.17072 68.3497 8.29268H68.4721C68.5945 8.29268 68.7169 8.17072 68.8393 8.04876C68.9617 7.80486 68.8394 7.68294 68.717 7.56098C68.5946 7.56098 58.4353 2.19511 45.461 3.65853C50.969 1.58535 56.9666 0.487802 63.209 0.487802C63.5762 0.487802 63.8209 0.487802 64.1881 0.487802C82.9153 0.853656 98.7044 10.8535 107.15 26.7072C107.28 26.9512 107.885 27.8049 107.885 29.2683Z" fill="white"/>
<path d="M63.8205 15.6094C63.0861 15.3655 62.3517 15.6094 61.7397 15.9753C61.2501 16.3411 61.0053 17.0729 61.1277 17.8046C61.2501 18.6582 61.0053 19.3899 60.5157 19.7558C60.0261 19.9997 59.1693 19.7558 58.4349 19.146C54.6406 15.9753 53.1717 16.9509 53.0493 16.9509C52.9269 17.0728 52.8045 17.3167 52.9269 17.4387C53.0493 17.5606 53.2941 17.6826 53.4165 17.5607C53.4165 17.5607 54.6405 16.8289 57.9453 19.6338C58.6797 20.2436 59.4141 20.6094 60.0261 20.6094C60.2709 20.6094 60.6381 20.4875 60.8829 20.3655C61.7397 19.8777 62.1069 18.9021 61.8621 17.6826C61.7397 17.1948 61.8621 16.8289 62.2293 16.585C62.5965 16.3411 63.0861 16.2192 63.5757 16.3411C63.8205 16.3411 63.9429 16.3412 64.0653 16.0972C64.0653 15.8533 63.9429 15.6094 63.8205 15.6094Z" fill="white"/>
<path d="M87.3217 14.7558C87.3217 14.6339 87.077 14.512 86.9546 14.512C86.7098 14.512 86.5874 14.7558 86.5874 14.8778C86.5874 14.9998 86.5873 15.1217 87.5665 16.5851C88.5457 18.1705 88.1786 18.7802 87.9337 19.0241C87.4442 19.6339 86.7098 19.6339 85.7306 19.0241C84.7514 18.4144 84.2617 18.0485 83.7721 17.5607C83.5274 17.3168 83.1601 16.951 82.6705 16.5851C81.8137 15.9754 81.0793 16.0973 80.8345 16.2193C80.2225 16.4632 79.9777 17.0729 79.9777 17.9266C79.9777 18.2924 79.8553 18.6583 79.4881 18.9022C79.1209 19.1461 78.509 19.1461 78.0194 19.0241C76.9178 18.6583 74.225 16.4632 74.225 16.4632C72.389 14.9997 71.6546 14.6339 71.5322 14.6339C71.2874 14.5119 71.165 14.6339 71.0426 14.7558C70.9202 14.9997 71.0426 15.1217 71.165 15.2436C71.165 15.2436 72.0218 15.6095 73.613 16.951C73.7354 17.0729 76.4282 19.1461 77.6522 19.6339C78.3866 19.8778 79.2434 19.8778 79.733 19.39C80.2226 19.0241 80.4673 18.5363 80.5897 17.8046C80.5897 17.3168 80.7122 16.829 81.0794 16.7071C81.3242 16.5851 81.6914 16.7071 82.181 16.951C82.6706 17.3168 82.9153 17.5607 83.1601 17.8046C83.6497 18.2924 84.1394 18.7802 85.241 19.39C85.9754 19.7558 86.465 19.9998 86.9546 19.9998C87.6889 19.9998 88.1786 19.6339 88.4234 19.268C89.1578 18.4144 89.0353 17.3168 88.0561 15.9754C87.4441 15.1217 87.3217 14.7558 87.3217 14.7558Z" fill="white"/>
</symbol><symbol id="phone" viewBox="0 0 24 24">
<path d="M8.74214 8.68189C7.66901 9.59373 7.27576 11.2567 8.20237 12.5908C9.06948 13.8392 10.1618 14.9313 11.4099 15.798C12.7441 16.7244 14.407 16.3311 15.3187 15.2579L15.3289 15.2626C16.4934 15.8021 17.7304 16.1718 19 16.3603L19 19L18.9989 19L18.9961 19C11.0215 19.0113 4.99148 12.9111 5.00001 5.00359L5.00001 5L7.63937 5L7.63954 5.00117C7.828 6.27065 8.19761 7.50654 8.73714 8.67108L8.74214 8.68189ZM18.9989 21L20 21C20.5523 21 21 20.5523 21 20L21 15.4977C21 15.0021 20.637 14.5813 20.1468 14.5086L19.2926 14.3818C18.2123 14.2215 17.1605 13.9069 16.1695 13.4478L15.4166 13.0991C14.9804 12.897 14.462 13.034 14.1826 13.4253L13.8418 13.9024C13.5431 14.3206 12.9728 14.4484 12.5506 14.1552C11.4984 13.4245 10.5761 12.5024 9.84502 11.4499C9.55181 11.0277 9.67955 10.4574 10.0978 10.1587L10.5748 9.81807C10.9661 9.53861 11.1031 9.02021 10.901 8.5839L10.5518 7.83033C10.0927 6.8394 9.77823 5.78774 9.61786 4.70749L9.49104 3.85316C9.41827 3.36296 8.99745 3 8.50188 3L4.00001 3C3.44773 3 3.00001 3.44772 3.00001 4L3.00001 5.00143C2.99029 14.0079 9.91023 21.0129 18.9989 21Z" fill="#111B2D"/>
</symbol><symbol id="u_smile" viewBox="0 0 64 64">
<path opacity="0.4" d="M31.9999 5.33331C26.7258 5.33331 21.57 6.89729 17.1847 9.82746C12.7994 12.7576 9.38148 16.9224 7.36314 21.7951C5.34481 26.6678 4.81672 32.0296 5.84566 37.2024C6.8746 42.3752 9.41435 47.1268 13.1438 50.8562C16.8732 54.5856 21.6247 57.1253 26.7975 58.1543C31.9704 59.1832 37.3321 58.6551 42.2048 56.6368C47.0775 54.6184 51.2423 51.2005 54.1725 46.8152C57.1026 42.4299 58.6666 37.2741 58.6666 32C58.6666 28.4981 57.9768 25.0304 56.6367 21.7951C55.2966 18.5597 53.3323 15.62 50.8561 13.1438C48.3799 10.6676 45.4402 8.70332 42.2048 7.36319C38.9695 6.02307 35.5018 5.33331 31.9999 5.33331ZM31.9999 53.3333C27.7806 53.3333 23.656 52.0821 20.1478 49.738C16.6395 47.3939 13.9052 44.062 12.2905 40.1639C10.6758 36.2657 10.2534 31.9763 11.0765 27.8381C11.8997 23.6998 13.9315 19.8986 16.915 16.915C19.8985 13.9315 23.6997 11.8997 27.838 11.0766C31.9763 10.2534 36.2657 10.6759 40.1638 12.2906C44.062 13.9052 47.3938 16.6396 49.7379 20.1478C52.0821 23.6561 53.3333 27.7806 53.3333 32C53.3333 37.6579 51.0857 43.0842 47.0849 47.0849C43.0841 51.0857 37.6579 53.3333 31.9999 53.3333Z" fill="white"/>
<path opacity="0.4" d="M37.7777 23.3408C38.4355 22.9013 39.2089 22.6667 40 22.6667C41.0609 22.6667 42.0783 23.0881 42.8284 23.8383C43.5786 24.5884 44 25.6058 44 26.6667C44 27.4578 43.7654 28.2312 43.3259 28.889C42.8864 29.5468 42.2616 30.0595 41.5307 30.3622C40.7998 30.665 39.9956 30.7442 39.2196 30.5898C38.4437 30.4355 37.731 30.0545 37.1716 29.4951C36.6122 28.9357 36.2312 28.223 36.0769 27.447C35.9225 26.6711 36.0017 25.8669 36.3045 25.136C36.6072 24.405 37.1199 23.7803 37.7777 23.3408Z" fill="white"/>
<path opacity="0.4" d="M21.7777 23.3408C22.4355 22.9013 23.2089 22.6667 24 22.6667C25.0609 22.6667 26.0783 23.0881 26.8284 23.8383C27.5786 24.5884 28 25.6058 28 26.6667C28 27.4578 27.7654 28.2312 27.3259 28.889C26.8864 29.5468 26.2616 30.0595 25.5307 30.3622C24.7998 30.665 23.9956 30.7442 23.2196 30.5898C22.4437 30.4355 21.731 30.0545 21.1716 29.4951C20.6122 28.9357 20.2312 28.223 20.0769 27.447C19.9225 26.6711 20.0017 25.8669 20.3045 25.136C20.6072 24.405 21.1199 23.7803 21.7777 23.3408Z" fill="white"/>
<path d="M31.9994 40.1678C34.2892 40.1678 36.5101 39.384 38.2927 37.9467C38.8373 37.4941 39.5393 37.2763 40.2445 37.3414C40.5936 37.3736 40.933 37.4742 41.2433 37.6376C41.5535 37.8009 41.8286 38.0238 42.0527 38.2934C42.5053 38.838 42.7231 39.5401 42.6581 40.2452C42.5931 40.9504 42.2506 41.6008 41.706 42.0534C38.9825 44.327 35.5472 45.5724 31.9994 45.5724C28.4515 45.5724 25.0163 44.327 22.2927 42.0534C21.7481 41.6008 21.4056 40.9504 21.3406 40.2452C21.2756 39.5401 21.4934 38.838 21.946 38.2934C22.3987 37.7488 23.0491 37.4064 23.7542 37.3414C24.4594 37.2763 25.1614 37.4941 25.706 37.9467C27.4886 39.384 29.7095 40.1678 31.9994 40.1678Z" fill="#FFC700"/>
</symbol><symbol id="u_telegram" viewBox="0 0 24 24">
<path d="M22.2647 2.42772C21.98 2.19085 21.6364 2.03561 21.2704 1.97852C20.9045 1.92143 20.5299 1.96463 20.1866 2.10351L2.26566 9.33886C1.88241 9.49654 1.55618 9.76705 1.33026 10.1145C1.10434 10.4619 0.989427 10.8698 1.00076 11.2841C1.0121 11.6984 1.14916 12.0994 1.39374 12.4339C1.63832 12.7685 1.97886 13.0207 2.37016 13.1572L5.99516 14.418L8.01566 21.0996C8.04312 21.1889 8.08297 21.2738 8.13404 21.352C8.14179 21.364 8.15272 21.3729 8.16096 21.3846C8.21996 21.4669 8.29127 21.5397 8.37239 21.6003C8.39546 21.6179 8.41755 21.6344 8.44221 21.65C8.53714 21.713 8.64228 21.7591 8.75294 21.7861L8.76478 21.7871L8.77149 21.79C8.83802 21.8035 8.90574 21.8104 8.97364 21.8105C8.98017 21.8105 8.98597 21.8074 8.99244 21.8073C9.0949 21.8055 9.19647 21.7878 9.29353 21.755C9.31611 21.7473 9.33546 21.7344 9.35737 21.7251C9.42975 21.6951 9.49832 21.6567 9.56166 21.6106C9.61238 21.5678 9.66312 21.5251 9.71388 21.4824L12.416 18.499L16.4463 21.6211C16.8011 21.8973 17.2379 22.0474 17.6875 22.0478C18.1587 22.0472 18.6154 21.8846 18.9809 21.5874C19.3465 21.2901 19.5987 20.8762 19.6954 20.415L22.958 4.39843C23.032 4.03795 23.0065 3.66415 22.8844 3.31702C22.7623 2.96989 22.5481 2.66249 22.2647 2.42772ZM9.37016 14.7363C9.2315 14.8744 9.13672 15.0504 9.0977 15.2422L8.78819 16.7462L8.00413 14.1531L12.0694 12.0362L9.37016 14.7363ZM17.6719 20.04L12.9092 16.3505C12.71 16.1966 12.46 16.1233 12.2092 16.1454C11.9583 16.1675 11.725 16.2833 11.5557 16.4697L10.6903 17.4249L10.9961 15.9384L18.0791 8.85543C18.2482 8.68659 18.3512 8.46278 18.3695 8.22455C18.3878 7.98632 18.3201 7.74941 18.1788 7.55675C18.0375 7.36408 17.8319 7.22839 17.5992 7.17426C17.3664 7.12014 17.122 7.15115 16.9102 7.26168L6.74491 12.5543L3.02055 11.1914L20.999 3.99899L17.6719 20.04Z"/>
</symbol><symbol id="u_water" viewBox="0 0 64 64">
<path opacity="0.4" d="M55.2532 41.9469C54.3183 42.2354 53.4226 42.6384 52.5866 43.1469C51.737 43.6436 50.7707 43.9055 49.7866 43.9055C48.8025 43.9055 47.8361 43.6436 46.9866 43.1469C45.1376 42.1097 43.0532 41.565 40.9332 41.565C38.8133 41.565 36.7288 42.1097 34.8799 43.1469C34.0214 43.6457 33.0461 43.9084 32.0532 43.9084C31.0603 43.9084 30.0851 43.6457 29.2266 43.1469C27.3776 42.1097 25.2932 41.565 23.1732 41.565C21.0533 41.565 18.9688 42.1097 17.1199 43.1469C16.2704 43.6436 15.304 43.9055 14.3199 43.9055C13.3358 43.9055 12.3694 43.6436 11.5199 43.1469C10.6839 42.6384 9.78819 42.2354 8.85323 41.9469C8.51705 41.8488 8.16484 41.8179 7.81672 41.856C7.46861 41.894 7.13139 42.0003 6.82434 42.1687C6.51729 42.3371 6.24641 42.5643 6.02717 42.8374C5.80793 43.1104 5.64462 43.424 5.54656 43.7602C5.44851 44.0964 5.41763 44.4486 5.45569 44.7967C5.49376 45.1448 5.60001 45.482 5.7684 45.7891C5.93678 46.0961 6.16399 46.367 6.43706 46.5862C6.71013 46.8055 7.02371 46.9688 7.3599 47.0669C7.88138 47.22 8.3827 47.4348 8.85323 47.7069C10.5061 48.6933 12.395 49.2142 14.3199 49.2142C16.2447 49.2142 18.1337 48.6933 19.7866 47.7069C20.8278 47.1179 22.0037 46.8084 23.1999 46.8084C24.3961 46.8084 25.572 47.1179 26.6132 47.7069C28.286 48.6634 30.1796 49.1665 32.1066 49.1665C34.0335 49.1665 35.9271 48.6634 37.5999 47.7069C38.6411 47.1179 39.817 46.8084 41.0132 46.8084C42.2095 46.8084 43.3853 47.1179 44.4266 47.7069C46.1165 48.6727 48.0268 49.187 49.9732 49.2002C51.8537 49.1963 53.6975 48.68 55.3066 47.7069C55.7771 47.4348 56.2784 47.22 56.7999 47.0669C57.4788 46.8688 58.0513 46.4092 58.3914 45.7891C58.7315 45.169 58.8113 44.4391 58.6132 43.7602C58.4152 43.0812 57.9556 42.5088 57.3355 42.1687C56.7153 41.8286 55.9855 41.7488 55.3066 41.9469H55.2532ZM55.2532 28.6135C54.3183 28.902 53.4226 29.3051 52.5866 29.8135C51.737 30.3103 50.7707 30.5721 49.7866 30.5721C48.8025 30.5721 47.8361 30.3103 46.9866 29.8135C45.1376 28.7764 43.0532 28.2317 40.9332 28.2317C38.8133 28.2317 36.7288 28.7764 34.8799 29.8135C34.0214 30.3123 33.0461 30.5751 32.0532 30.5751C31.0603 30.5751 30.0851 30.3123 29.2266 29.8135C27.3776 28.7764 25.2932 28.2317 23.1732 28.2317C21.0533 28.2317 18.9688 28.7764 17.1199 29.8135C16.2704 30.3103 15.304 30.5721 14.3199 30.5721C13.3358 30.5721 12.3694 30.3103 11.5199 29.8135C10.6839 29.3051 9.78819 28.902 8.85323 28.6135C8.50406 28.4817 8.13111 28.4246 7.7585 28.446C7.38589 28.4674 7.02192 28.5668 6.69014 28.7377C6.35835 28.9086 6.06614 29.1473 5.8324 29.4383C5.59866 29.7292 5.42861 30.066 5.33323 30.4269C5.23518 30.763 5.2043 31.1152 5.24236 31.4634C5.28042 31.8115 5.38668 32.1487 5.55506 32.4557C5.72345 32.7628 5.95066 33.0337 6.22373 33.2529C6.4968 33.4722 6.81038 33.6355 7.14656 33.7335C7.66804 33.8866 8.16937 34.1015 8.6399 34.3735C10.2927 35.36 12.1817 35.8809 14.1066 35.8809C16.0314 35.8809 17.9204 35.36 19.5732 34.3735C20.6145 33.7846 21.7903 33.4751 22.9866 33.4751C24.1828 33.4751 25.3587 33.7846 26.3999 34.3735C28.0727 35.33 29.9663 35.8332 31.8932 35.8332C33.8202 35.8332 35.7138 35.33 37.3866 34.3735C38.4278 33.7846 39.6037 33.4751 40.7999 33.4751C41.9961 33.4751 43.172 33.7846 44.2132 34.3735C45.9032 35.3394 47.8134 35.8537 49.7599 35.8669C51.6403 35.863 53.4842 35.3467 55.0932 34.3735C55.5638 34.1015 56.0651 33.8866 56.5866 33.7335C57.2655 33.5355 57.838 33.0759 58.1781 32.4557C58.5181 31.8356 58.5979 31.1058 58.3999 30.4269C58.2019 29.7479 57.7422 29.1754 57.1221 28.8354C56.502 28.4953 55.7722 28.4155 55.0932 28.6135H55.2532Z" fill="white"/>
<path d="M7.25339 20.4003C7.77487 20.5534 8.2762 20.7683 8.74672 21.0403C10.3996 22.0268 12.2885 22.5476 14.2134 22.5476C16.1382 22.5476 18.0272 22.0268 19.6801 21.0403C20.7213 20.4514 21.8972 20.1419 23.0934 20.1419C24.2896 20.1419 25.4655 20.4514 26.5067 21.0403C28.1795 21.9968 30.0731 22.4999 32.0001 22.4999C33.927 22.4999 35.8206 21.9968 37.4934 21.0403C38.5346 20.4514 39.7105 20.1419 40.9067 20.1419C42.103 20.1419 43.2788 20.4514 44.3201 21.0403C46.01 22.0061 47.9203 22.5204 49.8667 22.5336C51.7472 22.5297 53.591 22.0135 55.2001 21.0403C55.6706 20.7683 56.1719 20.5534 56.6934 20.4003C57.3723 20.2022 57.9448 19.7426 58.2849 19.1225C58.625 18.5024 58.7048 17.7726 58.5067 17.0936C58.3087 16.4146 57.8491 15.8422 57.2289 15.5021C56.6088 15.162 55.879 15.0822 55.2001 15.2803C54.2651 15.5688 53.3694 15.9719 52.5334 16.4803C51.6839 16.9771 50.7175 17.2389 49.7334 17.2389C48.7493 17.2389 47.7829 16.9771 46.9334 16.4803C45.0844 15.4431 43 14.8984 40.8801 14.8984C38.7601 14.8984 36.6757 15.4431 34.8267 16.4803C33.9682 16.9791 32.993 17.2418 32.0001 17.2418C31.0071 17.2418 30.0319 16.9791 29.1734 16.4803C27.3244 15.4431 25.24 14.8984 23.1201 14.8984C21.0001 14.8984 18.9157 15.4431 17.0667 16.4803C16.2172 16.9771 15.2508 17.2389 14.2667 17.2389C13.2826 17.2389 12.3162 16.9771 11.4667 16.4803C10.6307 15.9719 9.73502 15.5688 8.80006 15.2803C8.1211 15.0822 7.39129 15.162 6.77117 15.5021C6.15105 15.8422 5.69142 16.4146 5.49339 17.0936C5.29536 17.7726 5.37516 18.5024 5.71522 19.1225C6.05529 19.7426 6.62777 20.2022 7.30672 20.4003H7.25339Z" fill="#FFC700"/>
</symbol></svg>