<svg width="80" height="80" viewBox="0 0 80 80" fill="none" xmlns="http://www.w3.org/2000/svg">
<g opacity="0.3" filter="url(#filter0_f_2139_5969)">
<path d="M7.51461 54.4001L5.60156 47.1509L21.6711 37.9939L47.6885 31.1263L60.3146 29.6001L75.619 31.1263L76.0016 32.2709L60.3146 44.4801L33.532 53.2555L7.51461 54.4001Z" fill="#111B2D"/>
</g>
<path d="M21.8356 26.5001C22.0591 26.3213 22.0889 25.9786 21.8952 25.77C21.7164 25.5466 21.3738 25.5168 21.1652 25.7105C17.8429 28.5262 15.5188 32.2358 14.461 36.4669V36.4818L14.0737 38.359C14.0588 38.4334 14.0588 38.5079 14.0737 38.5675C14.4461 38.359 14.8335 38.1504 15.2208 37.9418L15.4741 36.7202C16.4872 32.6977 18.6772 29.1668 21.8356 26.5001Z" fill="white"/>
<path d="M58.1133 32.2061L60.3033 40.4C60.3927 40.3553 60.4821 40.2957 60.5864 40.2361L58.5006 32.221C58.3516 32.221 58.2325 32.2061 58.1133 32.2061Z" fill="#FCFCFC"/>
<path d="M27.3189 46.7915L29.777 46.136L27.2891 41.6367L27.3189 46.7915Z" fill="#FCFCFC"/>
<path d="M63.4456 35.2897C62.8944 33.2188 60.7789 32.5335 59.2891 32.3101L61.2407 39.8038C62.4624 38.9248 63.9969 37.3009 63.4456 35.2897Z" fill="#FCFCFC"/>
<path d="M66.3506 27.2889L66.2461 27.2441C66.2461 27.2591 66.2461 27.274 66.2461 27.2889H66.4103C66.3954 27.3039 66.3805 27.2889 66.3506 27.2889Z" fill="#FCFCFC"/>
<path d="M34.0832 20.5266C34.2619 20.467 35.0217 20.5713 36.3924 21.7334C36.9585 22.2101 37.4501 22.3442 37.8077 22.3442C38.1057 22.3442 38.3291 22.2548 38.4632 22.1803C39.0442 21.8674 39.3273 21.1672 39.223 20.3031C39.1932 20.0201 39.2975 19.9307 39.3273 19.9009C39.4465 19.7966 39.6551 19.7668 39.8338 19.8264C40.1169 19.9009 40.4 19.7519 40.4745 19.4688C40.5489 19.1858 40.4 18.9027 40.1169 18.8282C39.6104 18.6792 39.0293 18.7835 38.642 19.1113C38.2695 19.4241 38.1057 19.9009 38.1801 20.4372C38.2397 20.8991 38.1057 21.1821 37.9567 21.2715C37.7779 21.3758 37.4203 21.2417 37.0628 20.9289C34.7685 18.9772 33.7554 19.4688 33.5021 19.6476C33.2787 19.8264 33.2191 20.1542 33.3979 20.3776C33.5617 20.6011 33.8448 20.6607 34.0832 20.5266Z" fill="white"/>
<path d="M44.3175 19.1547C44.3175 19.1547 44.7644 19.3782 45.7328 20.1529C45.9116 20.2869 47.4461 21.5086 48.2059 21.7917C48.7422 21.9853 49.3084 21.9406 49.7404 21.6427C50.1129 21.3745 50.3363 20.9574 50.3363 20.4955C50.3363 20.2572 50.4108 20.138 50.4406 20.1231C50.4555 20.1231 50.5598 20.1231 50.7386 20.2572C50.977 20.4359 51.1408 20.5998 51.3047 20.7488C51.5878 21.0319 51.8857 21.3149 52.5711 21.7172C53.0329 21.9853 53.4202 22.0896 53.748 22.0896C54.329 22.0896 54.6866 21.7619 54.8356 21.5682C55.3123 20.9723 55.2676 20.1976 54.6717 19.2739C54.3141 18.7226 54.2247 18.5439 54.2098 18.4992C54.1354 18.2757 53.897 18.1267 53.6586 18.1565C53.3755 18.1863 53.167 18.4545 53.1968 18.7375C53.2117 18.8418 53.2266 18.9461 53.7927 19.84C54.2843 20.5998 54.0907 20.8382 54.0311 20.9127C53.9715 20.9872 53.7778 21.2255 53.1074 20.8233C52.5413 20.4955 52.3029 20.2572 52.0347 20.0039C51.8559 19.84 51.6623 19.6463 51.3792 19.4229C50.9025 19.0653 50.3959 18.9759 49.9788 19.1845C49.5467 19.3931 49.2935 19.8847 49.2935 20.4806C49.2935 20.6147 49.2488 20.7041 49.1445 20.7786C48.9955 20.8829 48.7869 20.8829 48.5784 20.8084C48.1165 20.6296 46.9992 19.8102 46.3883 19.3335C45.3306 18.4694 44.824 18.2161 44.7644 18.2012C44.5112 18.082 44.1983 18.1863 44.0791 18.4545C43.945 18.7226 44.0642 19.0355 44.3175 19.1547Z" fill="white"/>
<path d="M47.7443 54.2548C47.5059 54.0909 47.1782 54.1654 47.0292 54.4038C46.8653 54.6421 46.9398 54.9699 47.1782 55.1189C47.2825 55.1934 49.845 56.862 53.4503 57.592C53.4801 57.592 53.5248 57.6069 53.5546 57.6069C53.793 57.6069 54.0164 57.443 54.0611 57.1897C54.1207 56.9067 53.9419 56.6385 53.6589 56.5789C50.2621 55.8787 47.7741 54.2697 47.7443 54.2548Z" fill="white"/>
<path d="M36.7499 68.5715C33.4425 67.4691 30.9695 65.7707 30.9397 65.7409C30.7013 65.577 30.3735 65.6366 30.2097 65.875C30.0458 66.1134 30.1054 66.4411 30.3437 66.605C30.448 66.6795 32.9658 68.4077 36.4222 69.5697C36.4818 69.5846 36.5265 69.5995 36.586 69.5995C36.8095 69.5995 37.0032 69.4654 37.0777 69.242C37.1671 68.9589 37.0181 68.6609 36.7499 68.5715Z" fill="white"/>
<path d="M50.4264 66.9633C43.7968 65.4586 38.2696 62.5981 33.9789 58.4564C33.7703 58.2628 33.4426 58.2628 33.2489 58.4713C33.0552 58.6799 33.0552 59.0077 33.2638 59.2013C37.6886 63.4771 43.3945 66.4269 50.203 67.9614C50.2477 67.9763 50.2775 67.9763 50.3222 67.9763C50.5605 67.9763 50.7691 67.8125 50.8287 67.5741C50.8734 67.3059 50.6946 67.0229 50.4264 66.9633Z" fill="white"/>
<path d="M76.1253 32.2207L64.6687 35.2897C65.3689 38.8206 61.5103 41.2043 60.4823 41.6214C60.4078 41.6512 60.3333 41.6661 60.2588 41.6661C60.0205 41.6661 59.797 41.532 59.7076 41.2936C59.6629 41.1894 59.6629 41.0702 59.6778 40.9659L57.2792 31.9823C57.2047 31.8929 57.1451 31.7589 57.1451 31.6248C57.1302 31.297 57.3835 31.0139 57.7113 30.999C57.9347 30.9842 63.1044 30.8054 64.475 34.5597L75.9317 31.4907C73.0563 29.6433 70.1661 28.3472 67.0226 27.4533C67.0375 27.3937 67.0524 27.349 67.0375 27.2894C66.9481 25.8294 66.2777 24.6524 66.1883 24.5035C61.2123 15.2368 51.6626 9.81392 39.9676 9.60535C31.7438 9.45637 24.0415 12.4807 18.2908 18.1271C12.6296 23.6841 9.21789 31.3864 8.71135 39.7889C8.68155 40.1316 8.59217 41.2936 8.60706 41.5618C8.60706 41.6214 8.62196 41.6661 8.65176 41.7257C5.89561 43.4241 4.31641 44.5563 4.31641 44.5563L5.9552 50.6497L7.59399 56.743C7.59399 56.743 10.0075 56.9814 13.9555 57.0708C14.7749 58.0242 19.5125 63.4174 22.8199 65.6372C22.9093 65.6968 23.0135 65.7266 23.1029 65.7266C23.2668 65.7266 23.4307 65.6521 23.535 65.4882C23.6989 65.2498 23.6244 64.9221 23.386 64.7582C20.7043 62.9704 16.9202 58.8436 15.3559 57.0857C17.8737 57.1154 20.898 57.0708 24.2352 56.8771C26.6189 59.8716 29.5836 61.9424 31.0287 62.9555L31.3118 63.1492C31.4012 63.2088 31.5055 63.2386 31.6098 63.2386C31.7736 63.2386 31.9375 63.1641 32.0418 63.0151C32.2057 62.7767 32.1461 62.449 31.9226 62.2851L31.6396 62.0914C30.3285 61.1826 27.7362 59.3651 25.5313 56.7877C29.7326 56.5046 34.3957 55.9832 39.1631 55.0893C39.4611 55.3873 41.2935 57.1303 44.3774 58.9479C47.4167 60.7506 52.3032 62.9555 58.2774 63.2386C58.2923 63.2386 58.2923 63.2386 58.3072 63.2386C58.5902 63.2386 58.8137 63.0151 58.8286 62.7469C58.8435 62.4639 58.62 62.2106 58.337 62.1957C49.0853 61.7637 42.396 56.5344 40.4592 54.836C44.2881 54.0613 48.1616 53.0185 51.9308 51.6478C51.9606 51.6776 52.0053 51.6925 52.05 51.7074C53.3461 52.2587 58.039 54.0464 64.2515 54.2997H64.2664C64.5495 54.2997 64.773 54.0762 64.7879 53.7932C64.8028 53.5101 64.5793 53.2568 64.2813 53.2568C59.2607 53.0632 55.268 51.8266 53.3461 51.1115C55.0147 50.456 56.6535 49.7409 58.2476 48.9513C58.2923 48.9811 58.3519 49.0109 58.4115 49.0258C60.2141 49.4578 62.285 49.8899 64.8177 49.8899C65.7711 49.8899 66.7842 49.8303 67.8718 49.6813C68.1548 49.6366 68.3634 49.3833 68.3187 49.1003C68.274 48.8172 68.0208 48.6086 67.7377 48.6533C64.4154 49.1003 61.8827 48.7427 59.6331 48.2362C60.5866 47.7296 61.5103 47.1933 62.4191 46.6272C62.4489 46.6421 62.4787 46.657 62.5085 46.657C62.568 46.6719 63.0299 46.7613 64.6538 46.7613C65.2646 46.7613 66.0393 46.7464 67.0226 46.7166C67.3056 46.7017 67.5291 46.4633 67.5291 46.1802C67.5142 45.8972 67.2759 45.6737 66.9928 45.6737C65.4881 45.7333 64.475 45.7333 63.8344 45.7184C68.8551 42.3067 73.1755 37.9118 76.1253 32.2207ZM11.8251 49.3684L7.96645 50.3964C7.93665 50.4113 7.90685 50.4113 7.87706 50.4113C7.71318 50.4113 7.5642 50.307 7.5195 50.1282C7.45991 49.9346 7.57909 49.726 7.78767 49.6664L11.6463 48.6384C11.84 48.5788 12.0485 48.698 12.1081 48.9066C12.1677 49.1152 12.0187 49.3237 11.8251 49.3684ZM23.6691 51.0221C23.4158 51.0966 23.1476 51.0072 22.9986 50.7986L19.7211 46.2398L19.5423 51.186C19.5274 51.4393 19.3784 51.6478 19.14 51.7223C19.0804 51.7372 19.0209 51.7521 18.9464 51.7521C18.7676 51.7521 18.6037 51.6776 18.4845 51.5287L13.1361 44.9586C12.9275 44.7053 12.9722 44.3329 13.2255 44.1243C13.4787 43.9157 13.8512 43.9604 14.0598 44.2137L18.41 49.5621L18.5888 44.452C18.6037 44.1988 18.7676 43.9753 19.0059 43.9008C19.2443 43.8263 19.5125 43.9157 19.6615 44.1243L22.8646 48.5788L22.805 40.1018C22.805 39.774 23.0731 39.5059 23.4009 39.5059C23.7287 39.5059 23.9968 39.774 23.9968 40.1018L24.0713 50.456C24.0862 50.7093 23.9074 50.9327 23.6691 51.0221ZM32.4441 49.726C32.161 49.8899 31.7885 49.7856 31.6396 49.4876L30.3732 47.2082L27.334 48.0127L27.3489 50.2623C27.3489 50.5901 27.0807 50.8582 26.753 50.8582C26.4252 50.8582 26.157 50.5901 26.157 50.2623L26.0826 39.2675C26.0826 38.9993 26.2613 38.761 26.5295 38.6865C26.7977 38.612 27.0658 38.7312 27.1999 38.9695L32.6824 48.8917C32.8314 49.2045 32.7271 49.577 32.4441 49.726ZM40.4145 48.1468C40.2954 48.2511 40.1613 48.2958 40.0123 48.2958C39.8484 48.2958 39.6845 48.2362 39.5654 48.1021L35.1704 43.2006L34.3957 45.5098C34.3808 45.5396 34.3659 45.5694 34.351 45.6141L35.1704 48.6831C35.2598 48.996 35.0661 49.3237 34.7533 49.4131C34.7086 49.428 34.649 49.428 34.6043 49.428C34.3361 49.428 34.0977 49.2492 34.0233 48.9811L31.0138 37.8075C30.9244 37.4946 31.1181 37.1669 31.431 37.0775C31.7438 36.9881 32.0716 37.1818 32.161 37.4946L33.7998 43.5582L36.3027 36.1687C36.407 35.8558 36.7496 35.692 37.0625 35.7962C37.3753 35.9005 37.5392 36.2432 37.4349 36.556L35.6322 41.9045L40.4741 47.3125C40.6827 47.5509 40.6529 47.9233 40.4145 48.1468ZM46.6271 46.3441L42.6344 47.4764C42.5748 47.4913 42.5301 47.5062 42.4705 47.5062C42.3662 47.5062 42.2619 47.4764 42.1725 47.4317C42.0384 47.3572 41.9342 47.2231 41.8895 47.0741L38.88 35.7664C38.7907 35.4536 38.9843 35.1258 39.2972 35.0364L43.6176 33.8744C43.9305 33.785 44.2583 33.9787 44.3476 34.2915C44.437 34.6044 44.2434 34.9322 43.9305 35.0215L40.1911 36.0197L41.3829 40.504L44.4817 39.64C44.7946 39.5506 45.1224 39.7293 45.2117 40.0571C45.3011 40.37 45.1223 40.6977 44.7946 40.7871L41.6809 41.6661L42.8727 46.1653L46.2844 45.197C46.5973 45.1076 46.925 45.2863 47.0144 45.6141C47.1336 45.927 46.9399 46.2547 46.6271 46.3441ZM46.4185 25.0398C45.6289 24.2949 44.6754 23.5798 43.6921 23.3563C43.4091 23.2818 43.126 23.4606 43.0664 23.7437C42.9919 24.0267 43.1707 24.3098 43.4538 24.3694C44.8989 24.7269 46.4483 26.5147 47.1187 27.3639C47.0889 27.6321 46.9548 27.8555 46.7313 28.0045C46.2695 28.2876 45.4054 28.228 44.735 27.5278C43.4091 26.1572 42.3066 26.0678 41.7107 26.4402C41.2041 26.7531 41.0403 27.3937 41.2935 28.0939C41.5021 28.6898 41.3978 29.1815 41.0105 29.4347C40.5635 29.7178 39.7292 29.6731 38.9098 28.8835C38.7907 28.7643 38.6864 28.66 38.5821 28.5409L37.6435 27.2894C36.8241 26.2317 36.3623 25.7698 36.3474 25.7549C34.9618 24.3694 34.0679 24.6078 33.7402 24.7865C33.2634 25.0398 33.04 25.591 33.1592 26.2465C33.2337 26.6488 33.2039 26.9319 33.0847 27.0808C32.9655 27.2298 32.742 27.3192 32.3994 27.349C31.4459 27.4235 30.8649 26.6488 29.822 25.159C29.3005 24.4141 28.7195 23.5649 27.9448 22.7306C25.5313 20.1085 22.0601 21.36 21.9111 21.4047C21.6429 21.5089 21.5088 21.8069 21.5982 22.0751C21.7025 22.3432 22.0005 22.4773 22.2686 22.3879C22.3878 22.3432 25.2334 21.3302 27.1701 23.4308C27.8852 24.2204 28.4514 25.0249 28.9579 25.74C29.0473 25.8741 29.1367 25.9933 29.2261 26.1274C25.2483 25.6059 23.1029 28.4515 23.0731 28.4813C22.9093 28.7196 22.954 29.0325 23.1774 29.2113C23.2668 29.2858 23.386 29.3156 23.4903 29.3156C23.6542 29.3156 23.8031 29.2411 23.9074 29.107C23.9968 28.9878 26.1422 26.2019 30.2391 27.4235C30.85 28.0641 31.5353 28.4664 32.4738 28.3919C33.1294 28.3472 33.6061 28.1237 33.9041 27.7215C34.2169 27.3192 34.3063 26.768 34.1871 26.0529C34.1573 25.8443 34.1871 25.7251 34.2318 25.7102C34.3063 25.6655 34.7831 25.6804 35.6173 26.4998C35.6173 26.4998 36.0643 26.9468 36.8241 27.93L37.3604 28.6451C28.9281 31.0884 21.1364 34.7534 15.2367 37.9416C14.8494 38.1501 14.462 38.3587 14.0896 38.5673C12.4359 39.4761 10.961 40.3402 9.67973 41.1149C9.69463 40.7871 9.73932 40.3104 9.76912 39.8783C10.2608 31.4907 13.7022 24.1757 19.0059 18.9614C22.507 16.5032 25.5909 17.412 25.725 17.4567C25.9932 17.546 26.2911 17.3971 26.3805 17.114C26.4699 16.8458 26.3209 16.5479 26.0379 16.4585C25.9336 16.4287 24.2203 15.9073 21.8664 16.4883C23.5499 15.207 25.3674 14.1195 27.3042 13.2405C35.5727 11.5868 42.2619 15.1177 42.3513 15.1623C42.4258 15.207 42.5152 15.2219 42.6046 15.2219C42.7833 15.2219 42.9621 15.1177 43.0664 14.9538C43.2005 14.7005 43.1111 14.3876 42.8578 14.2536C42.6195 14.1195 37.8968 11.6166 31.3565 11.7656C33.9041 11.0356 36.6155 10.6482 39.4164 10.6482C39.5951 10.6482 39.7739 10.6482 39.9676 10.6482C51.2753 10.8568 60.5121 16.086 65.2944 25.01C65.2944 25.0249 65.3093 25.0249 65.3093 25.0398C65.3093 25.0547 65.9499 26.0976 66.0244 27.3639C66.0244 27.3788 66.0244 27.3937 66.0244 27.4086C65.9648 27.6321 65.786 27.8258 65.5924 28.0045C65.3987 28.1833 65.205 28.2578 64.9666 28.2578C64.5495 28.2429 63.8046 27.9449 62.5829 26.6339C62.3893 26.4253 62.1956 26.2614 62.0019 26.1125C60.4078 24.1608 58.5158 23.1477 58.4264 23.103C58.1731 22.969 57.8602 23.0732 57.7262 23.3265C57.5921 23.5798 57.6964 23.8926 57.9496 24.0267C57.9645 24.0416 59.0372 24.6078 60.1993 25.7102C60.1844 25.7251 60.1545 25.7251 60.1396 25.74C59.5288 26.0082 59.1862 26.6935 59.2458 27.5725C59.2607 27.9151 59.1117 28.1684 58.8286 28.2578C58.337 28.4217 57.5027 28.1386 56.8174 27.1255C55.8788 25.7102 54.5231 25.3974 53.6739 25.8145C52.9141 26.187 52.631 27.0361 52.9439 27.9896C53.1822 28.7047 52.9588 29.3752 52.4075 29.6731C51.7669 30.0158 50.59 29.837 49.3832 28.228L48.2212 26.917L47.3273 25.9784C47.0591 25.6804 46.7611 25.3676 46.4185 25.0398ZM49.5024 45.629C49.3683 45.7631 49.2044 45.8376 49.0257 45.8376H49.0108C48.6383 45.8376 48.3254 45.5396 48.3254 45.1672C48.3254 44.9884 48.385 44.8096 48.5191 44.6904C48.6532 44.5563 48.8171 44.4818 49.0108 44.4818H49.0257C49.3981 44.4818 49.711 44.7798 49.711 45.1523C49.6961 45.331 49.6365 45.4949 49.5024 45.629ZM57.5921 42.992C57.2792 43.0814 56.9515 42.8877 56.8621 42.5749L54.7763 34.7683L53.8526 38.8504C53.808 39.0589 53.6441 39.2377 53.4206 39.2973C53.212 39.3569 52.9737 39.2824 52.8247 39.1334L49.711 35.7664L52.0351 44.4074C52.1245 44.7202 51.9308 45.048 51.6179 45.1374C51.5732 45.1523 51.5136 45.1523 51.4689 45.1523C51.2008 45.1523 50.9624 44.9735 50.8879 44.7053L47.9381 33.7403C47.8636 33.4721 47.9828 33.1891 48.2212 33.0699C48.4595 32.9358 48.7575 32.9805 48.9512 33.1891L52.9439 37.4946L54.1506 32.176C54.2102 31.9078 54.4486 31.7142 54.7167 31.7142C54.9849 31.7142 55.2382 31.8929 55.2978 32.1611L58.0092 42.2918C58.0986 42.5749 57.9198 42.9026 57.5921 42.992Z" fill="white"/>
<defs>
<filter id="filter0_f_2139_5969" x="1.60156" y="25.6001" width="78.3984" height="32.7998" filterUnits="userSpaceOnUse" color-interpolation-filters="sRGB">
<feFlood flood-opacity="0" result="BackgroundImageFix"/>
<feBlend mode="normal" in="SourceGraphic" in2="BackgroundImageFix" result="shape"/>
<feGaussianBlur stdDeviation="2" result="effect1_foregroundBlur_2139_5969"/>
</filter>
</defs>
</svg>
