<svg width="64" height="64" fill="none" xmlns="http://www.w3.org/2000/svg"><g opacity=".4" fill-rule="evenodd" clip-rule="evenodd" fill="#fff"><path d="M32 8.333C18.93 8.333 8.334 18.93 8.334 32c0 13.07 10.595 23.667 23.666 23.667 13.07 0 23.667-10.596 23.667-23.667C55.667 18.93 45.07 8.333 32 8.333zM2.334 32C2.334 15.616 15.616 2.333 32 2.333c16.385 0 29.667 13.283 29.667 29.667S48.385 61.667 32 61.667C15.616 61.667 2.334 48.384 2.334 32z"/><path d="M37.426 37.425a3 3 0 014.242 0l11.307 11.307a3 3 0 11-4.243 4.243L37.426 41.668a3 3 0 010-4.243zm-10.851 0a3 3 0 010 4.243L15.268 52.975a3 3 0 11-4.243-4.243l11.307-11.307a3 3 0 014.243 0zm24.507-24.506a3 3 0 010 4.242l-9.414 9.414a3 3 0 01-4.242-4.243l9.413-9.413a3 3 0 014.243 0zm-40.057-1.894a3 3 0 014.243 0l11.307 11.307a3 3 0 11-4.243 4.243L11.025 15.268a3 3 0 010-4.243z"/></g><path fill-rule="evenodd" clip-rule="evenodd" d="M32 24.333a7.667 7.667 0 100 15.334 7.667 7.667 0 000-15.334zM18.334 32c0-7.548 6.118-13.667 13.666-13.667S45.667 24.453 45.667 32c0 7.548-6.119 13.667-13.667 13.667S18.334 39.547 18.334 32z" fill="#FFC700"/></svg>