<svg width="64" height="64" fill="none" xmlns="http://www.w3.org/2000/svg"><g clip-path="url(#clip0)" fill-rule="evenodd" clip-rule="evenodd"><path opacity=".4" d="M31.722 5.938a20.784 20.784 0 00-20.784 20.784c0 8.043 5.243 15.897 11.063 22.04 2.85 3.008 5.708 5.471 7.859 7.183a71.536 71.536 0 001.862 1.436c.523-.39 1.152-.87 1.861-1.436 2.15-1.712 5.01-4.175 7.86-7.183 5.82-6.143 11.062-13.997 11.062-22.04A20.783 20.783 0 0031.722 5.938zm0 55.093a433.248 433.248 0 01-1.649 2.47l-.008-.006-.018-.012-.062-.042a50.151 50.151 0 01-1.023-.72 75.566 75.566 0 01-2.801-2.13c-2.303-1.834-5.382-4.485-8.471-7.745C11.634 46.453 5 37.152 5 26.722a26.722 26.722 0 0153.443 0c0 10.43-6.633 19.731-12.69 26.124-3.089 3.26-6.167 5.91-8.47 7.745a75.566 75.566 0 01-2.802 2.13 50.151 50.151 0 01-1.023.72l-.062.042-.018.012-.008.005s-.001.001-1.648-2.47zm0 0l1.647 2.47a2.969 2.969 0 01-3.294 0l1.647-2.47z" fill="#fff"/><path d="M31.722 21.773a4.948 4.948 0 100 9.897 4.948 4.948 0 000-9.897zm-10.887 4.949c0-6.013 4.874-10.887 10.887-10.887 6.012 0 10.886 4.874 10.886 10.887 0 6.012-4.874 10.886-10.886 10.886-6.013 0-10.887-4.874-10.887-10.886z" fill="#FFC700"/></g><defs><clipPath id="clip0"><path fill="#fff" d="M0 0h64v64H0z"/></clipPath></defs></svg>