<svg width="64" height="64" fill="none" xmlns="http://www.w3.org/2000/svg"><g clip-path="url(#clip0)" fill-rule="evenodd" clip-rule="evenodd"><path d="M46.686 46.687a2.97 2.97 0 014.199 0l3.748 3.748a2.969 2.969 0 11-4.2 4.198l-3.747-3.747a2.97 2.97 0 010-4.2z" fill="#FFC700"/><path d="M32 52.785a2.97 2.97 0 012.97 2.969v5.278a2.97 2.97 0 11-5.939 0v-5.278a2.97 2.97 0 012.97-2.97zm-14.688-6.098a2.97 2.97 0 010 4.199l-3.747 3.747a2.97 2.97 0 01-4.2-4.199l3.748-3.747a2.97 2.97 0 014.2 0zM52.785 32a2.97 2.97 0 012.97-2.968h5.278a2.97 2.97 0 110 5.938h-5.279A2.97 2.97 0 0152.785 32zM0 32a2.97 2.97 0 012.97-2.968h5.278a2.97 2.97 0 110 5.938H2.969A2.97 2.97 0 010 32zm32-10.226c-5.648 0-10.226 4.578-10.226 10.227 0 5.648 4.578 10.227 10.227 10.227 5.648 0 10.227-4.58 10.227-10.227 0-5.649-4.58-10.227-10.227-10.227zM15.836 32c0-8.928 7.238-16.166 16.166-16.166S48.167 23.072 48.167 32 40.929 48.166 32 48.166c-8.928 0-16.166-7.237-16.166-16.165zM54.633 9.368a2.97 2.97 0 010 4.2l-3.748 3.747a2.97 2.97 0 01-4.199-4.2l3.748-3.747a2.97 2.97 0 014.199 0zm-45.267 0a2.97 2.97 0 014.199 0l3.747 3.748a2.97 2.97 0 01-4.199 4.199l-3.747-3.748a2.97 2.97 0 010-4.199zM32 0a2.97 2.97 0 012.97 2.97v5.278a2.97 2.97 0 11-5.939 0V2.969A2.97 2.97 0 0132.001 0z" opacity=".4" fill="#fff"/></g><defs><clipPath id="clip0"><path fill="#fff" d="M0 0h64v64H0z"/></clipPath></defs></svg>