<svg width="64" height="64" fill="none" xmlns="http://www.w3.org/2000/svg"><path d="M56 30.667a9.333 9.333 0 11-18.667 0 9.333 9.333 0 0118.667 0zm-5.334 0a4 4 0 10-8 0 4 4 0 008 0zm2.667 22.666a2.667 2.667 0 105.334 0c0-6.627-5.373-10.666-12-10.666-6.628 0-12 4.039-12 10.666a2.667 2.667 0 105.333 0C40 49.651 42.985 48 46.666 48c3.682 0 6.667 1.651 6.667 5.333z" fill="#FFC700"/><path d="M29.334 18.667c0 5.89-4.776 10.666-10.667 10.666S8 24.558 8 18.667 12.776 8 18.667 8c5.89 0 10.666 4.776 10.666 10.667zm-5.334 0a5.333 5.333 0 10-10.667 0 5.333 5.333 0 0010.667 0zM29.334 56a2.667 2.667 0 01-2.667-2.667v-8a8 8 0 00-16 0v8a2.667 2.667 0 11-5.333 0v-8C5.333 37.97 11.303 32 18.666 32S32 37.97 32 45.333v8A2.667 2.667 0 0129.334 56z" opacity=".4" fill="#fff"/></svg>