<svg width="126" height="100" fill="none" xmlns="http://www.w3.org/2000/svg"><path d="M76.55 75.488c-.123-.122-.368-.122-.49.122-.122.122-.122.366.122.488.123.122 4.407 2.927 10.404 4.146h.123c.122 0 .367-.122.367-.244 0-.244-.122-.366-.245-.488-5.875-1.22-10.159-4.024-10.281-4.024zM70.797 100c.245 0 .368-.122.49-.244.122-.244 0-.366-.245-.488-5.753-1.829-9.914-4.756-10.037-4.878-.122-.122-.367-.122-.49.122-.122.122-.122.366.123.488 0 0 4.284 3.049 10.16 5zM88.3 74.634c-.244-.122-.49 0-.612.244s0 .366.245.488h.123c3.672 1.463 7.833 3.048 16.034 3.536.245 0 .367-.122.367-.366 0-.243-.122-.365-.367-.365-8.078-.488-11.995-1.952-15.79-3.537zm-7.1 23.171c.123 0 .368-.122.368-.244 0-.244-.123-.366-.245-.488-11.383-2.56-20.808-7.439-28.152-14.512a.373.373 0 00-.49 0 .37.37 0 000 .488c7.345 7.195 17.014 12.073 28.52 14.756zm-32.435.732c-3.427-1.342-7.222-4.269-7.222-4.39a.373.373 0 00-.49 0 .37.37 0 000 .487c.123.122 3.917 3.049 7.467 4.512h.122c.123 0 .245-.122.368-.244.122-.121 0-.365-.245-.365zm55.203-55.733c-1.102-3.902-5.141-5-7.834-5.365l3.55 13.658c2.203-1.463 5.263-4.39 4.284-8.293zm-62.18 20.123l5.141-1.342-5.14-9.39v10.732zm52.388-25.61l3.917 14.756c.245-.122.612-.244.98-.488L95.4 37.44c-.612-.122-.98-.122-1.224-.122z" fill="#fff"/><path d="M89.77 7.317C82.058 2.683 73 .244 63.699 0h-.98C49.255 0 36.65 5 27.223 14.268c-9.547 9.269-15.177 22.074-16.156 36.22C4.335 54.512.295 57.439.173 57.56c-.122.122-.245.244-.122.366l5.752 21.341c0 .122.245.244.368.244l2.448.122c.49 0 4.896.488 11.995.61.857 1.098 7.589 10.122 14.198 13.659h.123c.122 0 .244-.122.367-.244.122-.244 0-.366-.123-.488C29.304 90 23.184 82.317 21.593 80.122h2.693c2.203 0 4.651 0 7.221-.122 1.224 1.83 3.428 4.634 7.1 7.44.122 0 .122.121.244.121.123 0 .245 0 .245-.122.123-.122.123-.366-.122-.488-3.305-2.56-5.508-5.122-6.732-6.95 1.836-.123 3.794-.123 5.753-.245 4.039 5.244 9.18 8.78 11.75 10.488l.49.366c.122 0 .122.122.244.122.123 0 .245 0 .368-.122.122-.122.122-.366-.123-.488l-.49-.366c-2.447-1.707-7.343-5.122-11.26-10 5.753-.366 11.995-.975 18.482-2.073 1.836-.244 3.672-.61 5.508-.976v.122c.123.122 12.485 12.074 31.702 12.927.245 0 .367-.122.367-.366 0-.243-.123-.365-.367-.365-17.259-.854-28.887-10.61-30.845-12.44C71.532 75 78.754 73.05 85.241 70.61c4.04 1.707 10.649 3.78 19.461 4.146.245 0 .368-.122.368-.366s-.123-.365-.368-.365c-8.2-.366-14.443-2.196-18.482-3.781 3.427-1.341 6.732-2.805 9.792-4.39h.245c2.938.731 5.63 1.341 9.547 1.341 1.469 0 3.182-.122 5.141-.366.245 0 .367-.244.367-.365 0-.244-.245-.366-.367-.366-6.243.853-9.915 0-13.709-.854 2.08-1.098 4.162-2.317 6.12-3.658.122.121.49.243 2.448.243.857 0 2.203 0 3.917-.122.245 0 .367-.243.367-.365 0-.244-.122-.366-.367-.366-3.427.122-4.896.122-5.386 0 9.67-6.464 16.891-14.39 21.665-23.78 0 0-.122 0-.245.121-.245.122-.857.244-.857.244l-19.584 5.244c1.347 5.854-5.14 9.878-6.854 10.488h-.245a.673.673 0 01-.612-.366s0-.122-.122-.122l-4.284-15.976c0-.122 0-.244.122-.366.123-.121.245-.243.49-.365.367 0 9.057-.366 11.138 5.975l19.584-5.244s.612-.244.857-.244h.245c-5.508-3.902-11.383-7.683-17.259-9.512a3.018 3.018 0 00-.367-.853c-4.284-7.805-10.648-14.39-18.237-18.903zm27.54 24.756c-2.816-1.22-5.631-2.195-8.691-3.049 0-.366-.122-.731-.122-1.097 3.06.976 5.997 2.439 8.813 4.146zM15.84 66.463l-6.61 1.708h-.122c-.122 0-.367-.122-.367-.244 0-.244.122-.366.245-.488l6.61-1.707c.244 0 .367.122.49.244 0 .244-.123.487-.246.487zm20.074 2.683c-.245.122-.49 0-.735-.243l-6.242-8.659-.367 9.512c0 .244-.123.488-.49.61h-.245c-.244 0-.367-.122-.49-.244l-9.057-11.098c-.245-.243-.122-.61.123-.853.244-.244.612-.122.856.122l8.079 9.878.367-9.634c0-.244.245-.488.49-.61.244-.122.49 0 .734.244l6.12 8.536-.122-15.61c0-.365.244-.61.612-.61.367 0 .612.245.612.61l.122 17.562c0 .243-.122.487-.367.487zM2.866 58.293l-.245.122L8.13 78.78l-1.714-.122-5.63-20.854C3.355 55.975 29.06 38.17 58.925 30l.857.976C29.304 39.756 3.11 58.17 2.866 58.293zm47.858 8.78c-.245.122-.734 0-.857-.244l-2.325-4.146-5.753 1.463v4.147c0 .366-.245.61-.612.61s-.612-.244-.612-.61l-.122-18.537c0-.244.244-.488.49-.61.244-.122.611 0 .734.244l9.302 16.83c.122.243 0 .61-.245.853zm13.464-2.683c-.122.122-.245.122-.367.122s-.367-.122-.49-.244l-7.833-8.78L53.907 60c0 .122-.123.122-.123.244l1.469 5.366c.122.366-.122.732-.49.732h-.122c-.245 0-.49-.244-.612-.488l-5.14-18.903c-.123-.366.122-.731.489-.731s.734.122.734.487l3.06 11.464 4.651-13.659c.123-.366.49-.488.857-.366s.49.488.367.854l-3.182 9.268 8.323 9.269a.588.588 0 010 .853zm10.649-3.048l-6.732 1.95h-.123c-.122 0-.244 0-.367-.121-.122-.122-.244-.244-.244-.366L62.23 43.659c-.123-.366.122-.732.49-.732l7.343-1.951c.368-.122.735.122.735.487.122.366-.123.732-.49.732l-6.732 1.83 2.203 8.292 5.63-1.585c.368-.122.735.122.735.488.122.365-.122.731-.49.731l-5.63 1.586 2.203 8.292 6.12-1.707c.368-.122.735.122.735.488.367.244.122.61-.245.732zm4.896-.976c-.245.244-.49.366-.734.366-.612 0-.98-.488-1.102-.976 0-.244.122-.488.245-.732.245-.243.49-.365.734-.365.612 0 .98.487 1.102.975.122.244 0 .488-.245.732zm14.198-5.488c.123.366-.122.732-.49.732-.367.122-.734-.122-.734-.488l-3.916-14.634-1.959 8.415c0 .243-.245.365-.49.487-.244 0-.49 0-.611-.122l-6.365-6.829 4.406 16.098c.122.366-.122.731-.49.731h-.122c-.245 0-.49-.243-.612-.487L77.53 40.244c-.123-.244 0-.61.245-.732.244-.122.611-.122.734.122l7.222 7.805 2.203-9.756c.122-.244.367-.488.612-.488.244 0 .49.244.612.488l4.773 17.195zm13.954-25.61c0 .61-.245 1.22-.612 1.464-.367.366-.735.488-1.224.488-1.102 0-2.571-.976-4.162-2.805l-.122-.122c-2.693-3.659-6.855-5.488-6.977-5.61-.245-.122-.367 0-.49.244-.122.244 0 .366.245.488 0 0 2.57 1.22 5.019 3.414-.49-.122-.98-.122-1.47.122-.978.366-1.468 1.464-1.346 2.805 0 .732-.244 1.22-.856 1.463-.98.366-2.448-.243-3.672-2.073-1.47-2.317-3.672-2.805-5.019-2.073-1.224.61-1.59 1.951-1.101 3.415.49 1.341 0 2.56-1.102 3.17-1.224.61-3.305.366-5.385-2.56l-1.959-2.195c-.49-.488-4.039-4.879-7.589-5.732-.244 0-.367.122-.49.244 0 .244.123.366.246.487 2.325.61 4.773 2.805 6.12 4.269v.122c.367 1.097.244 2.073-.612 2.56-.857.61-2.448.488-3.672-.853-2.081-2.195-3.917-2.317-4.774-1.83-.734.488-.98 1.464-.612 2.44.367 1.097.245 2.073-.49 2.439-.734.488-2.325.366-3.794-1.098-.367-.366-.612-.732-.98-1.097l-.244-.244-1.102-1.22c-1.346-1.585-2.08-2.317-2.08-2.317-1.47-1.463-3.06-2.073-4.04-1.585-.612.366-.979 1.097-.734 1.951.122.854.122 1.463-.245 1.83-.245.365-.857.61-1.591.61-1.958.121-3.182-1.586-4.774-3.903-.856-1.22-1.836-2.683-3.182-4.025-3.917-4.146-9.67-2.073-9.67-2.073-.244.122-.244.244-.244.488.122.244.244.244.49.244 0 0 5.385-1.951 8.812 1.951.734.732 1.346 1.585 1.958 2.317-4.284-2.073-9.302.488-9.424.488-.245.122-.245.366-.123.488.123.244.367.244.49.122.122 0 6.12-3.171 10.281.487.49.61.857 1.22 1.224 1.708-5.263-.244-9.18 5.244-9.424 5.488-.123.122-.123.365.122.487.122 0 .122.122.245.122.122 0 .245 0 .367-.122 0 0 4.284-5.853 9.547-5.122.98 1.098 2.081 1.708 3.427 1.586.98-.122 1.714-.366 2.081-.976.49-.61.612-1.341.367-2.439-.122-.488 0-.976.368-1.097.49-.244 1.59-.122 3.182 1.341.122.122.612.732 1.591 1.83-11.628 3.17-22.644 7.804-31.824 12.438 1.347-2.439 2.693-4.512 4.407-6.22a.37.37 0 000-.487.373.373 0 00-.49 0c-1.958 1.951-3.55 4.39-5.018 7.317-1.224.61-2.448 1.22-3.672 1.951 1.836-6.585 5.508-12.317 10.77-16.707a.37.37 0 000-.488.373.373 0 00-.489 0c-5.508 4.634-9.425 10.854-11.138 17.805a885.433 885.433 0 00-8.935 5c.979-14.024 6.854-26.22 15.79-35 6.242-4.39 11.872-2.683 11.872-2.683.245.122.367 0 .49-.244.122-.244 0-.366-.245-.488-.245-.121-4.407-1.341-9.547.976C34.2 9.39 38.117 6.951 42.4 5c14.32-2.927 25.826 3.17 25.949 3.293h.122c.123 0 .245-.122.367-.244.123-.244 0-.366-.122-.488-.122 0-10.282-5.366-23.256-3.902C50.969 1.585 56.967.488 63.209.488h.98c18.726.366 34.515 10.366 42.961 26.22.13.243.735 1.097.735 2.56z" fill="#fff"/><path d="M63.82 15.61c-.734-.244-1.468 0-2.08.365-.49.366-.735 1.098-.612 1.83.122.853-.123 1.585-.612 1.95-.49.245-1.347 0-2.081-.609-3.794-3.17-5.263-2.195-5.386-2.195-.122.122-.245.366-.122.488.122.122.367.244.49.122 0 0 1.224-.732 4.528 2.073.735.61 1.47.975 2.081.975.245 0 .612-.122.857-.244.857-.487 1.224-1.463.98-2.682-.123-.488 0-.854.366-1.098a1.705 1.705 0 011.347-.244c.245 0 .367 0 .49-.244 0-.244-.123-.488-.245-.488zm23.502-.854c0-.122-.245-.244-.367-.244-.245 0-.368.244-.368.366s0 .244.98 1.707c.979 1.585.612 2.195.367 2.44-.49.609-1.224.609-2.203 0-.98-.61-1.47-.976-1.959-1.464a9.99 9.99 0 00-1.102-.976c-.856-.61-1.59-.488-1.835-.366-.612.244-.857.854-.857 1.708 0 .365-.123.731-.49.975s-.979.244-1.469.122c-1.101-.366-3.794-2.56-3.794-2.56-1.836-1.464-2.57-1.83-2.693-1.83-.245-.122-.367 0-.49.122-.122.244 0 .366.123.488 0 0 .857.366 2.448 1.707.122.122 2.815 2.195 4.04 2.683.734.244 1.59.244 2.08-.244.49-.366.734-.854.857-1.585 0-.488.122-.976.49-1.098.244-.122.611 0 1.101.244.49.366.734.61.98.854.489.487.978.975 2.08 1.585.734.366 1.224.61 1.714.61.734 0 1.224-.366 1.468-.732.735-.854.612-1.951-.367-3.293-.612-.853-.734-1.22-.734-1.22z" fill="#fff"/></svg>