<svg width="64" height="64" fill="none" xmlns="http://www.w3.org/2000/svg"><path opacity=".4" d="M32 5.333a26.667 26.667 0 100 53.334 26.667 26.667 0 000-53.334zm0 48a21.333 21.333 0 110-42.666 21.333 21.333 0 010 42.666z" fill="#fff"/><path opacity=".4" d="M37.778 23.34a4 4 0 114.444 6.653 4 4 0 01-4.444-6.652zm-16 0a4 4 0 114.444 6.653 4 4 0 01-4.444-6.652z" fill="#fff"/><path d="M32 40.168c2.29 0 4.51-.784 6.293-2.221a2.67 2.67 0 113.413 4.106 15.146 15.146 0 01-19.413 0 2.67 2.67 0 113.413-4.106 10.026 10.026 0 006.293 2.22z" fill="#FFC700"/></svg>