<svg width="64" height="64" fill="none" xmlns="http://www.w3.org/2000/svg"><path opacity=".4" d="M55.253 41.947c-.935.288-1.83.691-2.666 1.2a5.548 5.548 0 01-5.6 0 12.373 12.373 0 00-12.107 0 5.627 5.627 0 01-5.653 0 12.373 12.373 0 00-12.107 0 5.547 5.547 0 01-5.6 0 11.861 11.861 0 00-2.667-1.2 2.665 2.665 0 00-3.085 3.842 2.666 2.666 0 001.592 1.278 6.821 6.821 0 011.493.64 10.667 10.667 0 0010.934 0 6.932 6.932 0 016.826 0 11.067 11.067 0 0010.987 0 6.932 6.932 0 016.827 0c1.69.966 3.6 1.48 5.546 1.493 1.88-.004 3.724-.52 5.334-1.493a6.82 6.82 0 011.493-.64 2.667 2.667 0 00-1.493-5.12h-.054zm0-13.334a11.9 11.9 0 00-2.666 1.2 5.547 5.547 0 01-5.6 0 12.374 12.374 0 00-12.107 0 5.627 5.627 0 01-5.653 0 12.374 12.374 0 00-12.107 0 5.546 5.546 0 01-5.6 0 11.866 11.866 0 00-2.667-1.2 2.667 2.667 0 00-3.52 1.814 2.666 2.666 0 001.814 3.306 6.826 6.826 0 011.493.64 10.666 10.666 0 0010.933 0 6.934 6.934 0 016.827 0 11.067 11.067 0 0010.987 0 6.933 6.933 0 016.826 0c1.69.966 3.6 1.48 5.547 1.494a10.35 10.35 0 005.333-1.493c.47-.273.972-.487 1.494-.64a2.667 2.667 0 10-1.494-5.12h.16z" fill="#fff"/><path d="M7.253 20.4a6.826 6.826 0 011.494.64 10.666 10.666 0 0010.933 0 6.933 6.933 0 016.827 0 11.067 11.067 0 0010.986 0 6.933 6.933 0 016.827 0c1.69.966 3.6 1.48 5.547 1.494A10.34 10.34 0 0055.2 21.04c.47-.272.972-.487 1.493-.64a2.667 2.667 0 00-1.493-5.12c-.935.289-1.83.692-2.667 1.2a5.546 5.546 0 01-5.6 0 12.373 12.373 0 00-12.106 0 5.626 5.626 0 01-5.654 0 12.373 12.373 0 00-12.106 0 5.546 5.546 0 01-5.6 0 11.865 11.865 0 00-2.667-1.2 2.666 2.666 0 10-1.493 5.12h-.054z" fill="#FFC700"/></svg>